<?xml version="1.0" standalone="no"?>
<!DOCTYPE svg PUBLIC "-//W3C//DTD SVG 1.1//EN" "http://www.w3.org/Graphics/SVG/1.1/DTD/svg11.dtd" >
<svg xmlns="http://www.w3.org/2000/svg" xmlns:xlink="http://www.w3.org/1999/xlink" version="1.1">
<metadata>
Created by FontForge 20170731 at Mon Oct 11 22:35:13 2021
 By Aleksey,,,
Copyright (c) 2019 by Nick Losacco. All rights reserved.
</metadata>
<defs>
<font id="Telegraf-UltraBold" horiz-adv-x="657" >
  <font-face 
    font-family="Telegraf UltraBold"
    font-weight="800"
    font-stretch="normal"
    units-per-em="1000"
    panose-1="0 0 9 0 0 0 0 0 0 0"
    ascent="800"
    descent="-200"
    x-height="500"
    cap-height="665"
    bbox="-90 -229 1068 795"
    underline-thickness="30"
    underline-position="-110"
    unicode-range="U+0020-201D"
  />
<missing-glyph horiz-adv-x="1000" 
 />
    <glyph glyph-name=".notdef" horiz-adv-x="1000" 
 />
    <glyph glyph-name=".null" horiz-adv-x="0" 
 />
    <glyph glyph-name="nonmarkingreturn" horiz-adv-x="333" 
 />
    <glyph glyph-name="space" unicode=" " horiz-adv-x="257" 
 />
    <glyph glyph-name="exclam" unicode="!" horiz-adv-x="262" 
d="M74 225l-30 440h174l-30 -440h-114zM50 0v150h162v-150h-162z" />
    <glyph glyph-name="quotedbl" unicode="&#x22;" horiz-adv-x="368" 
d="M23 665h140l-14 -278h-113zM205 665h141l-14 -278h-113z" />
    <glyph glyph-name="numbersign" unicode="#" horiz-adv-x="926" 
d="M876 394h-179l-44 -117h152v-107h-193l-64 -170h-143l64 170h-152l-64 -170h-143l64 170h-124v107h165l44 117h-137v106h177l63 165h143l-63 -165h152l63 165h143l-63 -165h139v-106zM510 277l44 117h-152l-44 -117h152z" />
    <glyph glyph-name="dollar" unicode="$" horiz-adv-x="548" 
d="M522 236q0 -138 -164 -162v-109h-164v110q-86 15 -128 61t-44 109h156q3 -33 28.5 -54t70.5 -21q81 0 81 48q0 22 -13.5 35t-53.5 18l-106 12q-149 17 -149 150q0 131 158 160v107h164v-107q147 -27 158 -157h-156q-8 62 -86 62q-81 0 -81 -49q0 -39 59 -45l106 -10
q86 -8 125 -46t39 -112z" />
    <glyph glyph-name="ampersand" unicode="&#x26;" horiz-adv-x="737" 
d="M705 269h-94q-9 -65 -33 -117l112 -94l-80 -88l-101 85q-81 -72 -211 -72q-113 0 -180 49.5t-67 138.5q0 114 114 182q-59 69 -59 146q0 87 62.5 135t167.5 48q98 0 154 -42t56 -116q0 -104 -120 -164l-59 -30l117 -99q7 20 10 46q12 100 111 100h100v-108zM334 573
q-40 0 -62.5 -19t-22.5 -54q0 -45 34 -90l48 23q40 19 58.5 35.5t18.5 42.5q0 62 -74 62zM309 95q63 0 109 36l-165 139q-59 -37 -59 -91q0 -39 30 -61.5t85 -22.5z" />
    <glyph glyph-name="quotesingle" unicode="'" horiz-adv-x="185" 
d="M23 665h140l-14 -278h-113z" />
    <glyph glyph-name="parenleft" unicode="(" horiz-adv-x="432" 
d="M40 283q0 97 28 183.5t75 149t94.5 106t98.5 73.5l66 -61q-191 -180 -191 -451t191 -451l-66 -61q-40 24 -78 55t-78.5 78.5t-70.5 101.5t-49.5 126.5t-19.5 150.5z" />
    <glyph glyph-name="parenright" unicode=")" horiz-adv-x="432" 
d="M392 283q0 -97 -28 -183.5t-74.5 -149t-94.5 -106t-99 -73.5l-66 61q191 180 191 451t-191 451l66 61q51 -30 99 -73.5t94.5 -106t74.5 -149t28 -183.5z" />
    <glyph glyph-name="asterisk" unicode="*" horiz-adv-x="417" 
d="M30 542l37 61l119 -81l-13 143h71l-13 -143l119 81l35 -61l-128 -60l130 -64l-37 -62l-119 83l13 -144h-71l13 144l-119 -83l-35 62l128 61z" />
    <glyph glyph-name="plus" unicode="+" horiz-adv-x="600" 
d="M515 317v-114h-154v-158h-122v158h-154v114h154v159h122v-159h154z" />
    <glyph glyph-name="comma" unicode="," horiz-adv-x="200" 
d="M23 8v142h154v-217q0 -55 -24.5 -83.5t-91.5 -28.5h-38v89h59v98h-59z" />
    <glyph glyph-name="hyphen" unicode="-" horiz-adv-x="483" 
d="M26 317h430v-114h-430v114z" />
    <glyph glyph-name="period" unicode="." horiz-adv-x="208" 
d="M23 0v150h162v-150h-162z" />
    <glyph glyph-name="slash" unicode="/" horiz-adv-x="430" 
d="M10 0l252 665h158l-252 -665h-158z" />
    <glyph glyph-name="zero" unicode="0" horiz-adv-x="725" 
d="M362 -16q-88 0 -154 29t-103.5 79t-55.5 110t-18 130q0 69 18 129t55.5 111t103.5 80.5t154 29.5q71 0 127.5 -20t94 -53t62.5 -78.5t36 -95t11 -103.5q0 -69 -18 -129.5t-55.5 -110.5t-103.5 -79t-154 -29zM215 332q0 -105 31.5 -155t115.5 -50t115.5 50t31.5 155
q0 106 -31.5 156t-115.5 50t-115.5 -50t-31.5 -156z" />
    <glyph glyph-name="one" unicode="1" horiz-adv-x="534" 
d="M54 0v137h148v391h-134v137h137q89 0 130.5 -39t41.5 -107v-382h128v-137h-451z" />
    <glyph glyph-name="two" unicode="2" horiz-adv-x="708" 
d="M61 0v137l336 225q70 47 70 107q0 36 -24.5 58t-74.5 22q-134 0 -140 -151h-177q1 56 19.5 105t55.5 90t101.5 65t148.5 24q143 0 206.5 -54t63.5 -142q0 -69 -50.5 -132t-172.5 -135l-128 -82h365v-137h-599z" />
    <glyph glyph-name="three" unicode="3" horiz-adv-x="673" 
d="M35 217h177q3 -52 34.5 -78.5t86.5 -26.5t85.5 27t30.5 77t-30.5 77.5t-77.5 27.5q-52 0 -102 -26l-62 107l220 126h-332v137h527v-137l-229 -132q34 6 73 6q23 0 47 -4.5t51.5 -17.5t48.5 -33t35 -55.5t14 -80.5q0 -106 -73 -166.5t-224 -60.5q-143 0 -221 59.5
t-79 173.5z" />
    <glyph glyph-name="four" unicode="4" horiz-adv-x="697" 
d="M566 273h105v-137h-105v-136h-176v136h-363v137l280 392h259v-392zM170 273h220v297z" />
    <glyph glyph-name="five" unicode="5" horiz-adv-x="675" 
d="M401 436q108 0 173.5 -54t65.5 -159q0 -116 -78 -177.5t-232 -61.5q-141 0 -212.5 58t-74.5 147h184q13 -75 115 -75q63 0 92.5 27t29.5 83q0 105 -111 105q-79 0 -118 -55h-172l25 391h519v-137h-378l-11 -149q62 57 183 57z" />
    <glyph glyph-name="six" unicode="6" horiz-adv-x="670" 
d="M410 429q93 0 157 -50.5t64 -152.5q0 -109 -79.5 -175.5t-209.5 -66.5q-308 0 -308 343q0 93 24.5 162.5t68.5 111t99.5 61.5t122.5 20q126 0 197 -53.5t82 -146.5h-175q-15 71 -102 71q-141 0 -141 -182v-17q67 75 200 75zM335 112q117 0 117 104q0 105 -114 105
q-61 0 -90 -28t-29 -77q0 -104 116 -104z" />
    <glyph glyph-name="seven" unicode="7" horiz-adv-x="588" 
d="M25 528v137h541v-101q-52 -51 -85 -91.5t-70 -107t-58.5 -157.5t-27.5 -208h-176q14 289 242 528h-366z" />
    <glyph glyph-name="eight" unicode="8" horiz-adv-x="654" 
d="M327 -16q-154 0 -223 55.5t-69 139.5q0 54 30 97t91 66q-102 50 -102 154q0 78 64.5 131.5t208.5 53.5t208.5 -53.5t64.5 -131.5q0 -102 -102 -153q62 -24 91.5 -67.5t29.5 -96.5q0 -83 -69.5 -139t-222.5 -56zM327 390q109 0 109 87q0 86 -109 86t-109 -86
q0 -87 109 -87zM327 102q116 0 116 93t-116 93q-115 0 -115 -93t115 -93z" />
    <glyph glyph-name="nine" unicode="9" horiz-adv-x="670" 
d="M328 682q308 0 308 -343q0 -93 -24.5 -162.5t-68.5 -111t-99.5 -61.5t-122.5 -20q-126 0 -197 53.5t-82 146.5h175q15 -71 102 -71q141 0 141 182v18q-68 -76 -200 -76q-93 0 -157 50.5t-64 153.5q0 109 79.5 175t209.5 66zM332 346q60 0 89.5 28t29.5 76q0 104 -116 104
q-117 0 -117 -104t114 -104z" />
    <glyph glyph-name="colon" unicode=":" horiz-adv-x="208" 
d="M23 350v150h162v-150h-162zM23 0v150h162v-150h-162z" />
    <glyph glyph-name="semicolon" unicode=";" horiz-adv-x="208" 
d="M23 350v150h162v-150h-162zM23 8v142h154v-217q0 -55 -24.5 -83.5t-91.5 -28.5h-38v89h59v98h-59z" />
    <glyph glyph-name="less" unicode="&#x3c;" horiz-adv-x="533" 
d="M448 466v-107l-271 -103l271 -102v-108l-363 138v144z" />
    <glyph glyph-name="equal" unicode="=" horiz-adv-x="564" 
d="M85 416h392v-114h-392v114zM85 211h392v-114h-392v114z" />
    <glyph glyph-name="greater" unicode="&#x3e;" horiz-adv-x="533" 
d="M85 466l363 -138v-144l-363 -138v108l271 102l-271 103v107z" />
    <glyph glyph-name="question" unicode="?" horiz-adv-x="691" 
d="M270 231v107h56q138 0 138 109q0 43 -27.5 69.5t-78.5 26.5q-123 0 -129 -121h-178q2 38 12 72.5t33 69.5t57.5 61t90 42t124.5 16q141 0 208.5 -63t67.5 -167q0 -103 -68 -162.5t-195 -59.5h-111zM272 0v150h162v-150h-162z" />
    <glyph glyph-name="at" unicode="@" horiz-adv-x="1087" 
d="M557 -200q-240 0 -372 114t-132 330q0 213 125.5 340t359.5 127q240 0 368.5 -108t128.5 -324q0 -271 -262 -271h-127l-6 84q-44 -88 -166 -88q-56 0 -97.5 19.5t-64 54.5t-33 77.5t-10.5 94.5q0 113 48 182t157 69q111 0 158 -78v63h162v-376h17q48 0 79.5 44t31.5 135
q0 333 -384 333q-182 0 -277 -99.5t-95 -269.5q0 -179 100.5 -268.5t289.5 -89.5h224v-95h-223zM531 130q56 0 79.5 27t23.5 95q0 69 -23.5 96t-79.5 27t-78 -27t-22 -96t22 -95.5t78 -26.5z" />
    <glyph glyph-name="A" unicode="A" horiz-adv-x="780" 
d="M576 0l-43 125h-286l-43 -125h-176l227 665h271l227 -665h-177zM292 258h196l-98 285z" />
    <glyph glyph-name="B" unicode="B" horiz-adv-x="688" 
d="M504 343q71 -13 110 -49.5t39 -112.5q0 -86 -56 -133.5t-162 -47.5h-381v665h388q101 0 151 -46t50 -118q0 -128 -139 -158zM386 533h-156v-137h155q74 0 74 69q0 68 -73 68zM390 132q79 0 79 74q0 75 -84 75h-155v-149h160z" />
    <glyph glyph-name="C" unicode="C" horiz-adv-x="779" 
d="M393 -16q-93 0 -163 28t-110.5 77.5t-60 110.5t-19.5 132q0 70 20 130.5t60.5 111t110.5 79.5t163 29q175 0 255 -69.5t91 -216.5h-181q-6 72 -42.5 107t-119.5 35q-90 0 -131.5 -51t-41.5 -155q0 -103 40 -154t128 -51q87 0 125.5 36t43.5 111h183
q-12 -155 -91.5 -222.5t-259.5 -67.5z" />
    <glyph glyph-name="D" unicode="D" horiz-adv-x="740" 
d="M390 665q153 0 234 -95.5t81 -235.5t-81 -237t-234 -97h-336v665h336zM350 139q89 0 130 48.5t41 146.5t-41 145t-130 47h-120v-387h120z" />
    <glyph glyph-name="E" unicode="E" horiz-adv-x="634" 
d="M230 139h359v-139h-535v665h532v-139h-356v-123h326v-129h-326v-135z" />
    <glyph glyph-name="F" unicode="F" horiz-adv-x="618" 
d="M581 526h-351v-138h315v-129h-315v-259h-176v665h527v-139z" />
    <glyph glyph-name="G" unicode="G" horiz-adv-x="794" 
d="M354 -16q-79 0 -140 27.5t-98.5 76t-56.5 110.5t-19 134q0 155 91 252.5t275 97.5q162 0 242 -65.5t87 -171.5h-176q-6 46 -45 73.5t-107 27.5q-91 0 -137 -52t-46 -162q0 -107 42 -159.5t130 -52.5q84 0 123 35.5t48 98.5h-215v111h382v-365h-147v122
q-51 -138 -233 -138z" />
    <glyph glyph-name="H" unicode="H" horiz-adv-x="738" 
d="M508 665h176v-665h-176v269h-278v-269h-176v665h176v-259h278v259z" />
    <glyph glyph-name="I" unicode="I" horiz-adv-x="518" 
d="M464 526h-117v-387h117v-139h-410v139h117v387h-117v139h410v-139z" />
    <glyph glyph-name="J" unicode="J" horiz-adv-x="465" 
d="M32 0v139h207v526h176v-423q0 -131 -54.5 -186.5t-185.5 -55.5h-143z" />
    <glyph glyph-name="K" unicode="K" horiz-adv-x="723" 
d="M446 383l255 -374v-9h-211l-161 253l-99 -109v-144h-176v665h176v-294l242 294h228z" />
    <glyph glyph-name="L" unicode="L" horiz-adv-x="555" 
d="M232 139h299v-139h-477v665h178v-526z" />
    <glyph glyph-name="M" unicode="M" horiz-adv-x="978" 
d="M924 665v-665h-176v551l-160 -551h-197l-161 555v-555h-176v665h303l135 -483l136 483h296z" />
    <glyph glyph-name="N" unicode="N" horiz-adv-x="782" 
d="M560 665h168v-665h-289l-185 434q-16 37 -32 94v-528h-168v665h289l187 -443q14 -34 30 -86v529z" />
    <glyph glyph-name="O" unicode="O" horiz-adv-x="795" 
d="M397 -16q-95 0 -166 29t-111.5 79t-60 110t-19.5 130q0 69 19.5 129t60 111t112 80.5t165.5 29.5q95 0 166.5 -29.5t112 -80.5t60 -111t19.5 -129q0 -70 -19.5 -130t-60 -110t-112 -79t-166.5 -29zM224 332q0 -104 37.5 -154.5t135.5 -50.5q99 0 136.5 50t37.5 155
q0 106 -37.5 156t-136.5 50q-98 0 -135.5 -50.5t-37.5 -155.5z" />
    <glyph glyph-name="P" unicode="P" horiz-adv-x="665" 
d="M426 665q109 0 161.5 -61t52.5 -159q0 -103 -52.5 -165.5t-161.5 -62.5h-194v-217h-178v665h372zM367 353q89 0 89 91q0 86 -87 86h-137v-177h135z" />
    <glyph glyph-name="Q" unicode="Q" horiz-adv-x="802" 
d="M40 334q0 69 18.5 128.5t58.5 110t111 80t167 29.5q95 0 166.5 -28.5t110.5 -75.5t57.5 -98.5t18.5 -105.5q0 -90 -38 -151.5t-105 -91.5h166v-131h-376q-96 0 -167 27t-111 74.5t-58.5 105t-18.5 127.5zM224 341q0 -99 36 -148t135 -49q100 0 136 49t36 148
q0 100 -36 148.5t-136 48.5q-99 0 -135 -48.5t-36 -148.5z" />
    <glyph glyph-name="R" unicode="R" horiz-adv-x="684" 
d="M628 157v-37q0 -49 13 -120h-178q-12 40 -12 120v27q0 46 -26.5 70t-71.5 24h-121v-241h-178v665h368q109 0 166 -50.5t57 -133.5q0 -69 -40 -116t-104 -60q59 -13 93 -46.5t34 -101.5zM375 367q45 0 65.5 21t20.5 64q0 78 -85 78h-144v-163h143z" />
    <glyph glyph-name="S" unicode="S" horiz-adv-x="671" 
d="M35 216h171q4 -46 36.5 -75.5t97.5 -29.5q117 0 117 76q0 62 -76 73l-145 16q-91 11 -140 61t-49 134q0 97 73 154t213 57q145 0 217 -60t79 -156h-174q-12 88 -122 88q-51 0 -79.5 -19t-28.5 -52q0 -57 71 -65l127 -13q212 -20 212 -203q0 -219 -298 -219
q-152 0 -224 66t-78 167z" />
    <glyph glyph-name="T" unicode="T" horiz-adv-x="666" 
d="M635 665v-139h-213v-526h-177v526h-214v139h604z" />
    <glyph glyph-name="U" unicode="U" horiz-adv-x="719" 
d="M50 253v412h177v-389q0 -84 31 -116t101 -32q71 0 102.5 32t31.5 116v389h176v-412q0 -269 -310 -269q-309 0 -309 269z" />
    <glyph glyph-name="V" unicode="V" horiz-adv-x="754" 
d="M546 665h177l-216 -665h-260l-216 665h182l136 -419q17 -52 30 -105q13 53 30 105z" />
    <glyph glyph-name="W" unicode="W" horiz-adv-x="1109" 
d="M895 665h173l-114 -665h-299l-101 524l-100 -524h-298l-115 665h173l96 -558l113 558h262l114 -561z" />
    <glyph glyph-name="X" unicode="X" horiz-adv-x="795" 
d="M770 0h-219l-160 204l-146 -204h-214l258 334l-259 331h216l157 -199l143 199h212l-253 -329z" />
    <glyph glyph-name="Y" unicode="Y" horiz-adv-x="718" 
d="M501 665h195l-248 -473v-192h-177v192l-250 473h198l95 -218q28 -68 44 -113q18 49 45 113z" />
    <glyph glyph-name="Z" unicode="Z" horiz-adv-x="688" 
d="M280 139h374v-139h-603v139l370 387h-360v139h590v-139z" />
    <glyph glyph-name="bracketleft" unicode="[" horiz-adv-x="558" 
d="M513 640h-260v-705h260v-135h-429v975h429v-135z" />
    <glyph glyph-name="backslash" unicode="\" horiz-adv-x="430" 
d="M420 0h-158l-252 665h158z" />
    <glyph glyph-name="bracketright" unicode="]" horiz-adv-x="558" 
d="M474 775v-975h-429v135h260v705h-260v135h429z" />
    <glyph glyph-name="asciicircum" unicode="^" horiz-adv-x="578" 
d="M493 356h-107l-97 218l-97 -218h-107l138 309h133z" />
    <glyph glyph-name="underscore" unicode="_" horiz-adv-x="483" 
d="M26 0h430v-114h-430v114z" />
    <glyph glyph-name="a" unicode="a" horiz-adv-x="590" 
d="M204 -13q-75 0 -120.5 39.5t-45.5 105.5q0 65 36.5 102.5t134.5 53.5l113 20q34 6 46 16t12 30q0 48 -75 48q-88 0 -90 -68h-167q4 81 71.5 131.5t183.5 50.5q117 0 176.5 -46t59.5 -133v-199q0 -76 9 -138h-148q-8 46 -8 104q-40 -117 -188 -117zM269 99q50 0 80.5 35
t30.5 101v19q-24 -18 -78 -32l-29 -7q-36 -9 -51 -23.5t-15 -39.5t17.5 -39t44.5 -14z" />
    <glyph glyph-name="b" unicode="b" 
d="M397 516q78 0 131.5 -38t75.5 -96t22 -131q0 -117 -56.5 -192t-172.5 -75q-122 0 -176 85v-69h-172v700h172v-269q55 85 176 85zM339 118q63 0 89 30.5t26 101.5t-26 101.5t-89 30.5q-64 0 -91 -31.5t-27 -100.5t27 -100.5t91 -31.5z" />
    <glyph glyph-name="c" unicode="c" horiz-adv-x="619" 
d="M33 250q0 53 15.5 99t48 84.5t88.5 60.5t131 22q130 0 200 -64t73 -163h-169q-8 93 -102 93q-57 0 -85 -30t-28 -102t27 -102t83 -30q97 0 107 94h169q-3 -97 -72.5 -162.5t-200.5 -65.5q-75 0 -131.5 22t-89 60.5t-48.5 84.5t-16 99z" />
    <glyph glyph-name="d" unicode="d" 
d="M436 700h172v-700h-172v68q-55 -84 -175 -84q-60 0 -105.5 21.5t-72 59t-39.5 84.5t-13 102q0 114 57 189.5t173 75.5q120 0 175 -84v268zM318 118q64 0 91 31.5t27 100.5t-27 100.5t-91 31.5q-63 0 -88.5 -30.5t-25.5 -101.5t25.5 -101.5t88.5 -30.5z" />
    <glyph glyph-name="e" unicode="e" horiz-adv-x="609" 
d="M313 99q72 0 96 52h167q-7 -34 -24 -62.5t-47 -53t-80 -38t-116 -13.5q-74 0 -129 22t-86 60.5t-46 84.5t-15 100q0 116 69.5 190.5t206.5 74.5q74 0 128 -22t83.5 -60.5t43.5 -84.5t14 -101q0 -26 -3 -42h-375q7 -58 35 -82.5t78 -24.5zM311 403q-48 0 -74.5 -22.5
t-34.5 -74.5h213q-9 97 -104 97z" />
    <glyph glyph-name="f" unicode="f" horiz-adv-x="418" 
d="M104 0v371h-91v80l91 50v33q0 166 177 166h137v-124h-168v-76h143v-129h-117v-371h-172z" />
    <glyph glyph-name="g" unicode="g" horiz-adv-x="661" 
d="M440 500h172v-471q0 -124 -68 -182t-224 -58q-129 0 -196.5 53t-73.5 139h167q10 -74 112 -74q57 0 84 22.5t27 72.5v89q-54 -76 -171 -76t-174.5 71t-57.5 179q0 110 57.5 180t174.5 70t171 -75v60zM328 141q61 0 86.5 29t25.5 92q0 62 -25.5 91t-86.5 29
q-64 0 -91.5 -27.5t-27.5 -92.5t27.5 -93t91.5 -28z" />
    <glyph glyph-name="h" unicode="h" horiz-adv-x="637" 
d="M403 516q188 0 188 -212v-304h-172v275q0 102 -87 102q-109 0 -109 -142v-235h-172v700h172v-293q55 109 180 109z" />
    <glyph glyph-name="i" unicode="i" horiz-adv-x="275" 
d="M48 561v104h178v-104h-178zM51 0v500h172v-500h-172z" />
    <glyph glyph-name="j" unicode="j" horiz-adv-x="282" 
d="M57 561v104h178v-104h-178zM-90 -200v136h150v564h172v-504q0 -100 -46.5 -148t-156.5 -48h-119z" />
    <glyph glyph-name="k" unicode="k" horiz-adv-x="625" 
d="M424 0l-130 179l-71 -69v-110h-172v700h172v-425q19 28 53 70l138 155h203v-4l-214 -210l224 -286h-203z" />
    <glyph glyph-name="l" unicode="l" horiz-adv-x="275" 
d="M51 0v700h172v-700h-172z" />
    <glyph glyph-name="m" unicode="m" horiz-adv-x="972" 
d="M735 516q96 0 143.5 -55.5t47.5 -156.5v-304h-172v278q0 99 -82 99q-51 0 -75 -34.5t-24 -107.5v-235h-169v278q0 99 -82 99q-99 0 -99 -142v-235h-172v500h172v-85q51 101 170 101q125 0 165 -111q51 111 177 111z" />
    <glyph glyph-name="n" unicode="n" horiz-adv-x="637" 
d="M403 516q188 0 188 -212v-304h-172v275q0 102 -87 102q-109 0 -109 -142v-235h-172v500h172v-93q55 109 180 109z" />
    <glyph glyph-name="o" unicode="o" horiz-adv-x="638" 
d="M319 -16q-76 0 -133.5 22t-89.5 60.5t-47.5 84.5t-15.5 99t15.5 98.5t47.5 84t89.5 61t133.5 22.5t133.5 -22.5t90 -61t48 -84t15.5 -98.5t-15.5 -98.5t-48 -84t-90 -61t-133.5 -22.5zM205 250q0 -74 26 -103t88 -29t88 29t26 103t-26 103t-88 29t-88 -29t-26 -103z" />
    <glyph glyph-name="p" unicode="p" 
d="M397 516q116 0 172.5 -75t56.5 -192q0 -73 -22 -131t-75.5 -96t-131.5 -38q-122 0 -176 86v-270h-172v700h172v-68q54 84 176 84zM339 118q63 0 89 30.5t26 101.5t-26 101.5t-89 30.5q-64 0 -91 -31.5t-27 -100.5t27 -100.5t91 -31.5z" />
    <glyph glyph-name="q" unicode="q" 
d="M436 500h172v-700h-172v269q-56 -85 -175 -85q-116 0 -173 75.5t-57 189.5q0 117 56.5 192t173.5 75q119 0 175 -83v67zM318 118q64 0 91 31.5t27 100.5t-27 100.5t-91 31.5q-63 0 -88.5 -30.5t-25.5 -101.5t25.5 -101.5t88.5 -30.5z" />
    <glyph glyph-name="r" unicode="r" horiz-adv-x="420" 
d="M360 508h42v-167h-61q-63 0 -90.5 -33t-27.5 -108v-200h-172v500h167v-102q31 110 142 110z" />
    <glyph glyph-name="s" unicode="s" horiz-adv-x="548" 
d="M22 161h156q3 -32 29.5 -53t72.5 -21q78 0 78 47q0 22 -13.5 35t-53.5 18l-106 12q-149 17 -149 150q0 85 64.5 126t171.5 41q230 0 244 -164h-156q-8 62 -87 62q-80 0 -80 -49q0 -39 59 -45l103 -10q88 -9 127.5 -46.5t39.5 -109.5q0 -170 -245 -170q-128 0 -190 50
t-65 127z" />
    <glyph glyph-name="t" unicode="t" horiz-adv-x="430" 
d="M297 0q-111 0 -156 48t-45 149v174h-88v80l102 45l71 125h87v-121h136v-129h-136v-235h120v-136h-91z" />
    <glyph glyph-name="u" unicode="u" horiz-adv-x="637" 
d="M414 500h172v-500h-172v91q-53 -107 -177 -107q-96 0 -143 55.5t-47 156.5v304h172v-274q0 -103 88 -103q107 0 107 142v235z" />
    <glyph glyph-name="v" unicode="v" horiz-adv-x="584" 
d="M418 500h163l-166 -500h-246l-166 500h175l120 -370z" />
    <glyph glyph-name="w" unicode="w" horiz-adv-x="922" 
d="M751 500h160l-123 -500h-238l-88 329l-89 -329h-239l-122 500h173l83 -369l111 369h181l111 -370z" />
    <glyph glyph-name="x" unicode="x" horiz-adv-x="570" 
d="M4 0l182 241l-187 259h201l92 -143l87 143h183l-177 -249l187 -251h-201l-90 139l-88 -139h-189z" />
    <glyph glyph-name="y" unicode="y" horiz-adv-x="590" 
d="M425 500h163l-159 -501q-32 -105 -85 -152t-164 -47h-144v136h215l26 78h-109l-162 486h175l97 -290l29 -93l26 93z" />
    <glyph glyph-name="z" unicode="z" horiz-adv-x="549" 
d="M245 125h270v-125h-480v125l272 250h-269v125h475v-125z" />
    <glyph glyph-name="braceleft" unicode="{" horiz-adv-x="465" 
d="M40 215v136h29q42 0 60 21.5t18 68.5v135q0 100 72.5 156t219.5 56v-71q-65 -2 -96 -39.5t-31 -118.5v-131q0 -110 -107 -129v-31q107 -19 107 -129v-132q0 -81 31 -118.5t96 -39.5v-71q-147 0 -219.5 56t-72.5 156v135q0 47 -18 68.5t-60 21.5h-29z" />
    <glyph glyph-name="bar" unicode="|" horiz-adv-x="339" 
d="M85 -200v975h169v-975h-169z" />
    <glyph glyph-name="braceright" unicode="}" horiz-adv-x="466" 
d="M425 215h-29q-42 0 -60 -21.5t-18 -68.5v-135q0 -100 -72 -156t-219 -56v71q65 2 96 39.5t31 118.5v132q0 110 106 129v31q-106 19 -106 129v131q0 81 -31 118.5t-96 39.5v71q147 0 219 -56t72 -156v-135q0 -47 18 -68.5t60 -21.5h29v-136z" />
    <glyph glyph-name="quotedblleft" unicode="&#x201c;" horiz-adv-x="413" 
d="M177 479v-142h-154v216q0 55 24.5 83.5t91.5 28.5h38v-89h-59v-97h59zM391 479v-142h-155v216q0 54 25 83t92 29h38v-89h-59v-97h59z" />
    <glyph glyph-name="quotedblright" unicode="&#x201d;" horiz-adv-x="413" 
d="M23 523v142h154v-217q0 -54 -24.5 -82.5t-91.5 -28.5h-38v88h59v98h-59zM236 523v142h155v-217q0 -54 -25 -82.5t-92 -28.5h-38v88h59v98h-59z" />
    </font>
</defs>
</svg>
