<svg width="100" height="100" viewBox="0 0 100 100" fill="none" xmlns="http://www.w3.org/2000/svg">
<mask id="mask0" style="mask-type:alpha" maskUnits="userSpaceOnUse" x="0" y="0" width="100" height="100">
<circle cx="50" cy="50" r="50" fill="#DADADA"/>
</mask>
<g mask="url(#mask0)">
<rect opacity="0.1" x="-4.52454" y="-7.43103" width="112" height="109.333" fill="#001E60"/>
<path d="M72.9345 33.6224C69.1449 29.5527 63.8114 27.9024 58.1782 27.9024C52.7738 27.9024 47.4214 29.6271 43.9054 33.3716C41.503 33.0996 39.0703 33.3379 36.7665 34.071C34.4627 34.8042 32.3398 36.0155 30.5369 37.6258C28.734 39.236 27.2917 41.2089 26.3046 43.415C25.3175 45.6212 24.8078 48.0109 24.8088 50.4277C24.8444 54.8847 26.5633 59.1638 29.6212 62.4077C31.2554 64.0291 33.2085 65.2939 35.3568 66.1219C37.5052 66.95 39.8021 67.3234 42.1023 67.2184H58.4602C61.062 67.2553 63.6447 66.7688 66.0547 65.7878C68.4646 64.8068 70.6526 63.3514 72.4885 61.5081C74.3244 59.6647 75.7707 57.4712 76.7413 55.0578C77.712 52.6445 78.1872 50.0607 78.1388 47.4601C78.2106 42.3567 76.3518 37.4145 72.9345 33.6224ZM41.659 64.8182C37.895 64.8126 34.2866 63.3163 31.6239 60.6569C28.9612 57.9975 27.4613 54.3917 27.4526 50.6292C27.4439 46.8667 28.9272 43.2541 31.5775 40.5824C34.2278 37.9107 37.8293 36.3978 41.5932 36.3748C45.0805 36.3627 48.4485 37.6434 51.046 39.9693L51.1156 40.0295L57.0099 46.0755C57.4768 46.5581 57.7331 47.2061 57.7224 47.8774C57.7117 48.5487 57.435 49.1883 56.953 49.6558C56.4709 50.1233 55.823 50.3804 55.1515 50.3708C54.4799 50.3612 53.8396 50.0856 53.3712 49.6045L47.5223 43.6046C46.2067 42.4728 44.594 41.7418 42.8754 41.4983C41.1568 41.2548 39.4045 41.509 37.826 42.2308C36.2476 42.9526 34.9093 44.1116 33.9698 45.5705C33.0303 47.0294 32.5289 48.7271 32.5252 50.4621C32.5675 52.8996 33.5601 55.2243 35.2918 56.941C37.0235 58.6576 39.3572 59.6306 41.7959 59.6525L42.9634 59.6579L42.9743 59.6907C44.6458 61.996 49.3021 64.8182 49.3021 64.8182H41.659ZM70.8034 59.7031C69.2294 61.3487 67.3386 62.6589 65.2448 63.5549C63.151 64.4509 60.8975 64.9141 58.6199 64.9168C53.9999 64.806 49.6086 62.8845 46.393 59.5667L38.6027 51.7629C38.2531 51.4055 38.0168 50.9529 37.9235 50.4619C37.8301 49.9709 37.8839 49.4632 38.0779 49.0026C38.272 48.5419 38.5977 48.1488 39.0143 47.8724C39.431 47.596 39.9199 47.4487 40.4199 47.449C40.7587 47.4472 41.0943 47.514 41.4066 47.6453C41.7188 47.7766 42.0013 47.9697 42.237 48.213L49.9726 55.9671C52.2346 58.3427 55.3406 59.7334 58.6198 59.839C60.2238 59.8353 61.8103 59.5053 63.2827 58.8691C64.755 58.2329 66.0824 57.3037 67.1839 56.1382C69.4659 53.7901 70.7421 50.6451 70.7411 47.3714C70.7367 44.1482 69.4535 41.0583 67.1729 38.7796C64.8923 36.5009 61.8006 35.2195 58.576 35.2165C56.1749 35.1097 53.8059 35.8002 51.8384 37.1803C51.8161 37.1622 51.2566 36.7915 50.6248 36.4078C50.2329 36.1696 49.8109 35.9327 49.4789 35.7526C49.1094 35.5518 48.0502 35.0323 47.42 34.772C47.2632 34.7071 47.0607 34.6328 46.9754 34.6027L46.9932 34.5931C50.1295 31.6621 54.2831 30.0648 58.576 30.1388C63.1474 30.1432 67.5303 31.9601 70.7632 35.1907C73.9961 38.4213 75.8151 42.8019 75.821 47.3714C75.8242 51.9794 74.0232 56.4056 70.8033 59.7031H70.8034Z" fill="#001E60"/>
</g>
</svg>