<svg width="50" height="36" viewBox="0 0 50 36" fill="none" xmlns="http://www.w3.org/2000/svg">
<path d="M28.75 0.5H21.25C19.8438 0.5 18.75 1.67188 18.75 3V10.5C18.75 11.9062 19.8438 13 21.25 13H28.75C30.0781 13 31.25 11.9062 31.25 10.5V3C31.25 1.67188 30.0781 0.5 28.75 0.5ZM16.25 4.875H9.60938C8.82812 3.07812 7.03125 1.75 5 1.75C2.1875 1.75 0 4.01562 0 6.75C0 9.5625 2.1875 11.75 5 11.75C7.03125 11.75 8.82812 10.5 9.60938 8.625H15.7812C11.4844 11.2031 8.35938 15.5 7.26562 20.5H11.0938C12.0312 17.2969 13.9844 14.4844 16.6406 12.6094C16.4062 11.9844 16.25 11.2812 16.25 10.5V4.875ZM12.5 23H5C3.59375 23 2.5 24.1719 2.5 25.5V33C2.5 34.4062 3.59375 35.5 5 35.5H12.5C13.8281 35.5 15 34.4062 15 33V25.5C15 24.1719 13.8281 23 12.5 23ZM45 1.75C42.8906 1.75 41.0938 3.07812 40.3125 4.875H33.75V10.5C33.75 11.2812 33.5156 11.9844 33.2812 12.6094C35.9375 14.4844 37.8906 17.2969 38.8281 20.5H42.6562C41.5625 15.5 38.4375 11.2031 34.1406 8.625H40.3125C41.0938 10.5 42.8906 11.75 45 11.75C47.7344 11.75 50 9.5625 50 6.75C50 4.01562 47.7344 1.75 45 1.75ZM45 23H37.5C36.0938 23 35 24.1719 35 25.5V33C35 34.4062 36.0938 35.5 37.5 35.5H45C46.3281 35.5 47.5 34.4062 47.5 33V25.5C47.5 24.1719 46.3281 23 45 23Z" fill="#001E60"/>
</svg>