<svg xmlns="http://www.w3.org/2000/svg" width="171.586" height="29.611" viewBox="0 0 171.586 29.611">
  <g id="logo" transform="translate(12379.018 -9294.653)">
    <g id="Group_113" data-name="Group 113" transform="translate(-12379.018 9294.653)">
      <g id="Group_59" data-name="Group 59" transform="translate(0.189 0)" opacity="0.29">
        <ellipse id="Ellipse_137" data-name="Ellipse 137" cx="2.313" cy="2.483" rx="2.313" ry="2.483" transform="translate(11.563 12.2)" fill="#002af5"/>
        <ellipse id="Ellipse_138" data-name="Ellipse 138" cx="2.313" cy="2.483" rx="2.313" ry="2.483" transform="translate(15.859 7.589)" fill="#002af5"/>
        <ellipse id="Ellipse_139" data-name="Ellipse 139" cx="2.313" cy="2.483" rx="2.313" ry="2.483" transform="translate(15.969 16.811)" fill="#002af5"/>
        <ellipse id="Ellipse_140" data-name="Ellipse 140" cx="2.313" cy="2.483" rx="2.313" ry="2.483" transform="translate(7.266 16.929)" fill="#002af5"/>
        <ellipse id="Ellipse_141" data-name="Ellipse 141" cx="2.313" cy="2.483" rx="2.313" ry="2.483" transform="translate(7.156 7.589)" fill="#002af5"/>
        <ellipse id="Ellipse_142" data-name="Ellipse 142" cx="1.487" cy="1.596" rx="1.487" ry="1.596" transform="translate(12.312 3.897)" fill="#002af5"/>
        <ellipse id="Ellipse_143" data-name="Ellipse 143" cx="1.487" cy="1.596" rx="1.487" ry="1.596" transform="translate(21.106 13.165)" fill="#002af5"/>
        <ellipse id="Ellipse_144" data-name="Ellipse 144" cx="1.487" cy="1.596" rx="1.487" ry="1.596" transform="translate(21.079 22.442)" fill="#002af5"/>
        <ellipse id="Ellipse_145" data-name="Ellipse 145" cx="1.487" cy="1.596" rx="1.487" ry="1.596" transform="translate(12.581 22.459)" fill="#002af5"/>
        <ellipse id="Ellipse_146" data-name="Ellipse 146" cx="1.487" cy="1.596" rx="1.487" ry="1.596" transform="translate(3.615 22.477)" fill="#002af5"/>
        <ellipse id="Ellipse_147" data-name="Ellipse 147" cx="1.487" cy="1.596" rx="1.487" ry="1.596" transform="translate(3.721 13.183)" fill="#002af5"/>
        <ellipse id="Ellipse_148" data-name="Ellipse 148" cx="1.487" cy="1.596" rx="1.487" ry="1.596" transform="translate(3.805 3.951)" fill="#002af5"/>
        <ellipse id="Ellipse_149" data-name="Ellipse 149" cx="1.487" cy="1.596" rx="1.487" ry="1.596" transform="translate(20.99 3.832)" fill="#002af5"/>
        <ellipse id="Ellipse_150" data-name="Ellipse 150" cx="0.826" cy="0.887" rx="0.826" ry="0.887" transform="translate(17.241 0.023)" fill="#002af5"/>
        <ellipse id="Ellipse_151" data-name="Ellipse 151" cx="0.826" cy="0.887" rx="0.826" ry="0.887" transform="translate(8.782)" fill="#002af5"/>
        <ellipse id="Ellipse_152" data-name="Ellipse 152" cx="0.826" cy="0.887" rx="0.826" ry="0.887" transform="translate(0 9.217)" fill="#002af5"/>
        <ellipse id="Ellipse_153" data-name="Ellipse 153" cx="0.826" cy="0.887" rx="0.826" ry="0.887" transform="translate(8.757 27.838)" fill="#002af5"/>
        <ellipse id="Ellipse_154" data-name="Ellipse 154" cx="0.826" cy="0.887" rx="0.826" ry="0.887" transform="translate(17.369 27.761)" fill="#002af5"/>
        <ellipse id="Ellipse_155" data-name="Ellipse 155" cx="0.826" cy="0.887" rx="0.826" ry="0.887" transform="translate(26.136 18.597)" fill="#002af5"/>
        <ellipse id="Ellipse_156" data-name="Ellipse 156" cx="0.826" cy="0.887" rx="0.826" ry="0.887" transform="translate(26.192 9.201)" fill="#002af5"/>
        <ellipse id="Ellipse_157" data-name="Ellipse 157" cx="0.826" cy="0.887" rx="0.826" ry="0.887" transform="translate(0.035 18.553)" fill="#002af5"/>
      </g>
      <g id="Group_60" data-name="Group 60" transform="translate(0 0)">
        <ellipse id="Ellipse_158" data-name="Ellipse 158" cx="2.313" cy="2.483" rx="2.313" ry="2.483" transform="translate(11.563 12.2)" fill="#002af5"/>
        <ellipse id="Ellipse_159" data-name="Ellipse 159" cx="2.313" cy="2.483" rx="2.313" ry="2.483" transform="translate(15.859 7.589)" fill="#002af5"/>
        <ellipse id="Ellipse_160" data-name="Ellipse 160" cx="2.313" cy="2.483" rx="2.313" ry="2.483" transform="translate(15.969 16.811)" fill="#002af5"/>
        <ellipse id="Ellipse_161" data-name="Ellipse 161" cx="2.313" cy="2.483" rx="2.313" ry="2.483" transform="translate(7.266 16.929)" fill="#002af5"/>
        <ellipse id="Ellipse_162" data-name="Ellipse 162" cx="2.313" cy="2.483" rx="2.313" ry="2.483" transform="translate(7.156 7.589)" fill="#002af5"/>
        <ellipse id="Ellipse_163" data-name="Ellipse 163" cx="1.487" cy="1.596" rx="1.487" ry="1.596" transform="translate(12.312 3.897)" fill="#002af5"/>
        <ellipse id="Ellipse_164" data-name="Ellipse 164" cx="1.487" cy="1.596" rx="1.487" ry="1.596" transform="translate(21.106 13.165)" fill="#002af5"/>
        <ellipse id="Ellipse_165" data-name="Ellipse 165" cx="1.487" cy="1.596" rx="1.487" ry="1.596" transform="translate(21.079 22.442)" fill="#002af5"/>
        <ellipse id="Ellipse_166" data-name="Ellipse 166" cx="1.487" cy="1.596" rx="1.487" ry="1.596" transform="translate(12.581 22.459)" fill="#002af5"/>
        <ellipse id="Ellipse_167" data-name="Ellipse 167" cx="1.487" cy="1.596" rx="1.487" ry="1.596" transform="translate(3.615 22.477)" fill="#002af5"/>
        <ellipse id="Ellipse_168" data-name="Ellipse 168" cx="1.487" cy="1.596" rx="1.487" ry="1.596" transform="translate(3.721 13.183)" fill="#002af5"/>
        <ellipse id="Ellipse_169" data-name="Ellipse 169" cx="1.487" cy="1.596" rx="1.487" ry="1.596" transform="translate(3.805 3.951)" fill="#002af5"/>
        <ellipse id="Ellipse_170" data-name="Ellipse 170" cx="1.487" cy="1.596" rx="1.487" ry="1.596" transform="translate(20.99 3.832)" fill="#002af5"/>
        <ellipse id="Ellipse_171" data-name="Ellipse 171" cx="0.826" cy="0.887" rx="0.826" ry="0.887" transform="translate(17.241 0.023)" fill="#002af5"/>
        <ellipse id="Ellipse_172" data-name="Ellipse 172" cx="0.826" cy="0.887" rx="0.826" ry="0.887" transform="translate(8.782)" fill="#002af5"/>
        <ellipse id="Ellipse_173" data-name="Ellipse 173" cx="0.826" cy="0.887" rx="0.826" ry="0.887" transform="translate(0 9.217)" fill="#002af5"/>
        <ellipse id="Ellipse_174" data-name="Ellipse 174" cx="0.826" cy="0.887" rx="0.826" ry="0.887" transform="translate(8.757 27.838)" fill="#002af5"/>
        <ellipse id="Ellipse_175" data-name="Ellipse 175" cx="0.826" cy="0.887" rx="0.826" ry="0.887" transform="translate(17.369 27.761)" fill="#002af5"/>
        <ellipse id="Ellipse_176" data-name="Ellipse 176" cx="0.826" cy="0.887" rx="0.826" ry="0.887" transform="translate(26.136 18.597)" fill="#002af5"/>
        <ellipse id="Ellipse_177" data-name="Ellipse 177" cx="0.826" cy="0.887" rx="0.826" ry="0.887" transform="translate(26.192 9.201)" fill="#002af5"/>
        <ellipse id="Ellipse_178" data-name="Ellipse 178" cx="0.826" cy="0.887" rx="0.826" ry="0.887" transform="translate(0.035 18.553)" fill="#002af5"/>
      </g>
    </g>
    <g id="Group_114" data-name="Group 114" transform="translate(-12335.976 9299.815)">
      <path id="Path_18" data-name="Path 18" d="M623.953,286.475l-5.361-8.734-2.014,2.132v6.6H612.85v-19.4h3.728v7.887l6.912-7.887h4.9l-7.13,7.653,7.293,11.743Z" transform="translate(-612.85 -267.079)" fill="#231f20"/>
      <path id="Path_19" data-name="Path 19" d="M659.129,286.475l-1.143-4h-6.668l-1.279,4h-4l6.45-19.4h4.382l6.369,19.4Zm-4.49-15.044h-.028l-2.313,7.712h4.6Z" transform="translate(-623.587 -267.079)" fill="#231f20"/>
      <path id="Path_20" data-name="Path 20" d="M682.406,286.475v-19.4h3.783v19.4Z" transform="translate(-635.352 -267.079)" fill="#002af5"/>
      <path id="Path_21" data-name="Path 21" d="M689.929,286.475v-19.4h3.783v19.4Z" transform="translate(-637.785 -267.079)" fill="#231f20"/>
      <path id="Path_22" data-name="Path 22" d="M719.164,286.692V267.75h1.509v17.465h8.546v1.477Z" transform="translate(-647.243 -267.296)" fill="#231f20"/>
      <path id="Path_23" data-name="Path 23" d="M760.926,286.692l-1.746-4.658h-9.34l-1.746,4.658h-1.746l7.223-18.942h1.879l7.224,18.942ZM754.5,269.483l-4.154,11.075h8.334Z" transform="translate(-656.037 -267.296)" fill="#231f20"/>
      <path id="Path_24" data-name="Path 24" d="M784.441,286.692V267.75h7.25a4.515,4.515,0,0,1,4.868,4.827,4.258,4.258,0,0,1-3.1,4.345c1.879.313,3.44,2.414,3.44,4.658,0,3.152-1.9,5.112-5.054,5.112Zm10.531-13.944a3.29,3.29,0,0,0-3.466-3.521H785.95v7.014h5.556A3.254,3.254,0,0,0,794.972,272.748Zm.344,8.718a3.556,3.556,0,0,0-3.7-3.748H785.95v7.5h5.662A3.442,3.442,0,0,0,795.316,281.466Z" transform="translate(-668.36 -267.296)" fill="#231f20"/>
    </g>
  </g>
</svg>