<?xml version="1.0" encoding="utf-8"?>
<!-- Generator: Adobe Illustrator 13.0.0, SVG Export Plug-In . SVG Version: 6.00 Build 14948)  -->
<!DOCTYPE svg PUBLIC "-//W3C//DTD SVG 1.1//EN" "http://www.w3.org/Graphics/SVG/1.1/DTD/svg11.dtd">
<svg version="1.1" id="Layer_1" xmlns="http://www.w3.org/2000/svg" xmlns:xlink="http://www.w3.org/1999/xlink" x="0px" y="0px"
	 width="110.5px" height="92.836px" viewBox="-5 5.663 110.5 92.836" enable-background="new -5 5.663 110.5 92.836"
	 xml:space="preserve">
<path fill="#5ABB7B" d="M7.139,45.372L6.884,81.245l35.875,0.257l0.255-35.874l-20.499-0.146c0.08-11.32,9.324-20.434,20.645-20.354
	l0.11-15.375C23.455,9.613,7.28,25.558,7.139,45.372z M94.406,25.492l0.109-15.374C74.703,9.975,58.528,25.923,58.387,45.736
	L58.132,81.61l35.874,0.256l0.255-35.874l-20.499-0.146C73.842,34.525,83.087,25.412,94.406,25.492z"/>
<path opacity="0.1" fill="#000CFF" enable-background="new    " d="M833.207,350.495l-14.232,32.932l-32.931-14.232l14.232-32.932
	l18.816,8.133c4.491-10.393-0.294-22.459-10.686-26.951l6.1-14.111C832.697,311.191,841.067,332.307,833.207,350.495z
	 M761.365,297.113L767.464,283c18.188,7.858,26.562,28.975,18.699,47.162l-14.232,32.932L739,348.861l14.232-32.93l18.816,8.133
	C776.541,313.672,771.757,301.605,761.365,297.113z"/>
</svg>
