<svg width="848" height="384" viewBox="0 0 848 384" fill="none" xmlns="http://www.w3.org/2000/svg">
<path fill-rule="evenodd" clip-rule="evenodd" d="M10.1335 34.414L-2.05934e-05 68.8281L34.414 78.9617L44.5476 44.5476L24.8824 38.757C28.0802 27.897 39.4782 21.6846 50.3382 24.8824L54.6811 10.1336C35.6731 4.53644 15.7304 15.4069 10.1335 34.414ZM99.5001 39.3587L103.843 24.6098C84.836 19.0129 64.8923 29.8832 59.2955 48.8903L49.1619 83.3043L83.576 93.4379L93.7095 59.0238L74.0444 53.2332C77.2422 42.3733 88.6402 36.1608 99.5001 39.3587Z" fill="#6CCCE2"/>
<path opacity="0.1" fill-rule="evenodd" clip-rule="evenodd" d="M833.207 350.494L818.975 383.426L786.044 369.194L800.276 336.262L819.094 344.395C823.585 334.003 818.8 321.936 808.408 317.444L814.508 303.331C832.697 311.192 841.067 332.306 833.207 350.494ZM761.365 297.113L767.464 283C785.652 290.86 794.024 311.975 786.163 330.163L771.931 363.094L739 348.862L753.232 315.931L772.05 324.064C776.541 313.672 771.757 301.605 761.365 297.113Z" fill="#001E60"/>
</svg>