<?xml version="1.0" encoding="utf-8"?>
<!-- Generator: Adobe Illustrator 13.0.0, SVG Export Plug-In . SVG Version: 6.00 Build 14948)  -->
<!DOCTYPE svg PUBLIC "-//W3C//DTD SVG 1.1//EN" "http://www.w3.org/Graphics/SVG/1.1/DTD/svg11.dtd">
<svg version="1.1" id="Layer_1" xmlns="http://www.w3.org/2000/svg" xmlns:xlink="http://www.w3.org/1999/xlink" x="0px" y="0px"
	 width="109.5px" height="97.5px" viewBox="0 0 109.5 97.5" enable-background="new 0 0 109.5 97.5" xml:space="preserve">
<path fill="#6CCCE2" d="M10.133,34.414L0,68.828l34.414,10.134l10.133-34.414l-19.665-5.791
	c3.198-10.86,14.596-17.072,25.456-13.875l4.343-14.749C35.673,4.537,15.73,15.407,10.133,34.414z M99.5,39.359l4.343-14.749
	c-19.007-5.597-38.951,5.273-44.547,24.28L49.162,83.304l34.414,10.134l10.133-34.414l-19.665-5.791
	C77.242,42.373,88.64,36.161,99.5,39.359z"/>
<path opacity="0.1" fill="#001E60" enable-background="new    " d="M833.207,350.494l-14.232,32.932l-32.931-14.232l14.232-32.932
	l18.817,8.133c4.491-10.392-0.294-22.459-10.686-26.951l6.1-14.112C832.697,311.191,841.067,332.307,833.207,350.494z
	 M761.365,297.113L767.464,283c18.188,7.859,26.561,28.975,18.699,47.163l-14.232,32.931L739,348.861l14.232-32.93l18.817,8.133
	C776.541,313.672,771.757,301.605,761.365,297.113z"/>
</svg>
