<svg width="21" height="19" viewBox="0 0 21 19" fill="none" xmlns="http://www.w3.org/2000/svg">
<path d="M18.5624 10.374H15.2928L16.9452 8.75684C17.9999 7.70215 17.2264 5.87402 15.7499 5.87402H13.4999V1.93652C13.4999 1.02246 12.7264 0.249023 11.8124 0.249023H8.43738C7.48816 0.249023 6.74988 1.02246 6.74988 1.93652V5.87402H4.49988C2.98816 5.87402 2.21472 7.70215 3.30457 8.75684L4.92175 10.374H1.68738C0.738159 10.374 -0.00012207 11.1475 -0.00012207 12.0615V16.5615C-0.00012207 17.5107 0.738159 18.249 1.68738 18.249H18.5624C19.4764 18.249 20.2499 17.5107 20.2499 16.5615V12.0615C20.2499 11.1475 19.4764 10.374 18.5624 10.374ZM4.49988 7.56152H8.43738V1.93652H11.8124V7.56152H15.7499L10.1249 13.1865L4.49988 7.56152ZM18.5624 16.5615H1.68738V12.0615H6.60925L8.92957 14.3818C9.56238 15.0498 10.6522 15.0498 11.285 14.3818L13.6053 12.0615H18.5624V16.5615ZM15.4686 14.3115C15.4686 14.8037 15.8202 15.1553 16.3124 15.1553C16.7694 15.1553 17.1561 14.8037 17.1561 14.3115C17.1561 13.8545 16.7694 13.4678 16.3124 13.4678C15.8202 13.4678 15.4686 13.8545 15.4686 14.3115Z" fill="#FAFAFA"/>
</svg>