<svg width="100" height="100" viewBox="0 0 100 100" fill="none" xmlns="http://www.w3.org/2000/svg">
<circle opacity="0.1" cx="50" cy="50" r="50" fill="#001E60"/>
<path d="M67.1069 39.6112C69.4071 38.2132 71.1807 36.1158 72.1587 33.6372C73.1367 31.1586 73.2657 28.4341 72.5261 25.8769C71.7866 23.3197 70.2188 21.0694 68.0607 19.4674C65.9025 17.8654 63.2718 16.9991 60.5675 17H39.4324C36.7282 16.9991 34.0974 17.8654 31.9393 19.4674C29.7811 21.0694 28.2134 23.3197 27.4738 25.8769C26.7343 28.4341 26.8633 31.1586 27.8413 33.6372C28.8193 36.1158 30.5929 38.2132 32.8931 39.6112C31.0914 40.7053 29.6042 42.2342 28.5728 44.0525C27.5414 45.8708 27 47.9182 27 50.0002C27 52.0821 27.5415 54.1295 28.573 55.9477C29.6045 57.766 31.0917 59.2949 32.8934 60.389C31.0517 61.5095 29.5397 63.0838 28.5074 64.9556C27.4751 66.8275 26.9582 68.9321 27.008 71.0609C27.0578 73.1896 27.6725 75.2686 28.7913 77.0919C29.91 78.9152 31.4939 80.4194 33.3861 81.4556C35.2783 82.4917 37.413 83.0238 39.5788 82.9992C41.7445 82.9745 43.8661 82.3939 45.7334 81.315C47.6006 80.236 49.1487 78.6961 50.2242 76.8478C51.2997 74.9996 51.8652 72.9071 51.8648 70.7778V58.7174C53.1121 59.9221 54.604 60.8544 56.2428 61.4535C57.8817 62.0526 59.6307 62.3049 61.3756 62.1939C63.1204 62.083 64.8218 61.6113 66.3686 60.8097C67.9153 60.008 69.2725 58.8945 70.3516 57.5419C71.4306 56.1893 72.2071 54.6281 72.6304 52.9603C73.0537 51.2925 73.1142 49.5556 72.8079 47.8632C72.5017 46.1708 71.8356 44.561 70.8532 43.1391C69.8708 41.7171 68.5942 40.5149 67.1069 39.6112V39.6112ZM69.2702 29.2223C69.2676 31.4896 68.3507 33.6634 66.7205 35.2671C65.0903 36.8708 62.8798 37.7737 60.5736 37.7778L60.5675 37.7777L60.5556 37.778L51.8648 37.7777V20.6667H60.5675C62.8748 20.6692 65.0869 21.5715 66.7184 23.1754C68.3499 24.7793 69.2677 26.954 69.2702 29.2223ZM30.7297 29.2223C30.7323 26.954 31.65 24.7793 33.2815 23.1754C34.9131 21.5715 37.1251 20.6692 39.4324 20.6667H48.1351V37.7777H39.4324L39.4265 37.7778C37.1203 37.7737 34.9097 36.8709 33.2795 35.2671C31.6493 33.6634 30.7323 31.4896 30.7297 29.2223ZM30.7297 50C30.7323 47.7327 31.6493 45.5589 33.2795 43.9552C34.9097 42.3514 37.1203 41.4486 39.4265 41.4445L39.4324 41.4447L48.1351 41.4444V58.5553L39.4324 58.5556C37.1251 58.5531 34.9131 57.6509 33.2815 56.0469C31.65 54.443 30.7323 52.2683 30.7297 50ZM39.4324 79.3333C38.289 79.3342 37.1565 79.1137 36.0998 78.6841C35.0432 78.2546 34.0829 77.6246 33.274 76.83C32.4652 76.0355 31.8235 75.092 31.3857 74.0535C30.9479 73.0151 30.7225 71.9019 30.7225 70.7778C30.7225 69.6537 30.9479 68.5406 31.3857 67.5021C31.8235 66.4636 32.4652 65.5202 33.274 64.7256C34.0829 63.9311 35.0432 63.301 36.0998 62.8715C37.1565 62.442 38.289 62.2214 39.4324 62.2223L48.1351 62.2221V70.7778C48.1325 73.0461 47.2148 75.2208 45.5833 76.8247C43.9517 78.4286 41.7397 79.3308 39.4324 79.3333ZM60.5675 58.5556C58.261 58.555 56.049 57.6541 54.4177 56.051C52.7863 54.4479 51.8691 52.2736 51.8675 50.006C51.8659 47.7384 52.7801 45.563 54.4092 43.9576C56.0383 42.3523 58.249 41.4484 60.5556 41.4447H60.5675L60.5734 41.4445C62.88 41.4475 65.0911 42.3506 66.7208 43.9554C68.3504 45.5602 69.2654 47.7353 69.2646 50.003C69.2638 52.2706 68.3474 54.4452 66.7166 56.0489C65.0858 57.6526 62.8741 58.5542 60.5675 58.5556Z" fill="#001E60"/>
</svg>