<svg xmlns="http://www.w3.org/2000/svg" viewBox="0 0 233.18 71"><defs><style>.cls-1{fill:#003da5;}.cls-2{fill:#0077c8;}.cls-3{fill:#00a9e0;}</style></defs><g id="Layer_2" data-name="Layer 2"><g id="Layer_2-2" data-name="Layer 2"><path class="cls-1" d="M145.11,48.07c-.34-.17-.68-.34-1-.54a6.41,6.41,0,0,1-1.14-.94c-.75-.75-1.59,1.22-1.81,1.67a6.66,6.66,0,0,1-2.65,2.87,6.18,6.18,0,0,1-4.23.73,7.2,7.2,0,0,1-2.09-.62,17.13,17.13,0,0,1-1.45-1.35A12.94,12.94,0,0,0,138.37,44c.78-1.32.12-1.66-1.18-1.7a16.86,16.86,0,0,0-3.39.39,7.36,7.36,0,0,0-2.35.71A6.87,6.87,0,0,0,129,46c-.21.36-1.13,2.54-1.52,2.61s-1,.17-1.42.23-.87.1-1.29.12h-1.13l-1-.22c.21.05.91-1,1-1.11a4,4,0,0,0,.72-1.66c-.08,0-.14,0-.23,0-.74.23-1.57,1.2-2.37,1.52-1.39.56-2.88.79-4.26,1.36-2.36,1-4.12,2.9-5.8,4.77a41,41,0,0,1-5.59,5.19c-5,3.85-10,7.24-16.21,8.65a40.61,40.61,0,0,1-16.47-.1,58.76,58.76,0,0,1-8-2.13c-1.25-.42-2.46-1-3.68-1.48-.77-.31-1.53-.62-2.3-.91-.31-.12-.95-.43-1.27-.27-.68.34.22,1.11.57,1.32A58.66,58.66,0,0,0,75,70.07a35.57,35.57,0,0,0,17.92-.46,32.79,32.79,0,0,0,12.95-7.67,56.2,56.2,0,0,0,5.4-5.62c1.65-2,2.87-3.73,5.28-4.83,1.58-.72,3.34-.93,4.94-1.64a.54.54,0,0,1,.48,0,14.81,14.81,0,0,0,4.72.67l-.27.93-.25,1s.07,0,.18,0l.1-.15.68-1.8.93,0,1.46-.23c.17,1.38.37,2.67,1.62,3.53a5.64,5.64,0,0,0,2.92.87,6.49,6.49,0,0,0,4.31-1.6c1.14-.87,2.49-2.52,4-2.57.66,0,1.11.36,1.7.45s.62-.15,1-.45a2.71,2.71,0,0,0,.89-1c.24-.5.31-.58-.17-.94A7.56,7.56,0,0,0,145.11,48.07Zm-17.05.44c.26-.06.65-1.32.82-1.55a4.23,4.23,0,0,1,1.69-1.33,10.79,10.79,0,0,1,3.33-.73,8.21,8.21,0,0,1,2.57,0c.13,0,.3.11.28.24a.28.28,0,0,1-.16.19,21.87,21.87,0,0,1-5.79,2.55Z"/><polygon class="cls-1" points="73.3 23.44 61.95 23.44 61.95 32.77 58.42 32.77 58.42 10.92 74.01 10.92 74.01 14.26 61.95 14.26 61.95 20.1 73.3 20.1 73.3 23.44"/><polygon class="cls-1" points="115.48 32.77 99.86 32.77 99.86 10.92 103.39 10.92 103.39 29.43 115.48 29.43 115.48 32.77"/><path class="cls-1" d="M122,23.45v6.06h5.29c2.77,0,4.63-.53,4.63-3.06s-1.86-3-4.63-3Zm0-9.17v5.88h4.83c2.45,0,4.59-.38,4.59-3s-2.17-2.9-4.62-2.9ZM126.91,11c4.67,0,8.18,1.61,8.18,5.94a4.79,4.79,0,0,1-3.37,4.66,5.26,5.26,0,0,1,3.87,5c0,4.36-3.2,6.25-8.18,6.25h-9V11Z"/><path class="cls-1" d="M96,24.16c0,6.07-4.1,9-9.27,9s-9.27-2.93-9.27-9V10.92H81v13c0,4.17,2.36,5.88,5.74,5.88s5.75-1.71,5.75-5.88v-13H96Z"/><path class="cls-1" d="M143.36,14.23v6.15h5.37c2.84,0,4.17-1,4.17-3.14s-1.41-3-4.17-3Zm5.46-3.31c5,0,7.74,2.25,7.74,6.32,0,3.72-2.84,6.18-7.29,6.34l7.2,9.19H152.1l-7-9.19h-1.78v9.19h-3.53V10.92Z"/><rect class="cls-1" x="160.83" y="10.92" width="3.53" height="21.85"/><path class="cls-1" d="M188.47,14l-2.59,2.52a7.76,7.76,0,0,0-13.61,5.28c0,4.72,3.28,8,7.59,8,4,0,6.32-2.06,6.88-5.67H181V20.84h9.61c0,.29,0,.57,0,.85,0,6.27-4,11.47-10.73,11.47a11,11,0,0,1-11.29-11.32A11,11,0,0,1,180,10.52,11.17,11.17,0,0,1,188.47,14"/><polygon class="cls-1" points="197.37 20.1 209.16 20.1 209.16 10.92 212.69 10.92 212.69 32.77 209.16 32.77 209.16 23.44 197.37 23.44 197.37 32.77 193.84 32.77 193.84 10.92 197.37 10.92 197.37 20.1"/><polygon class="cls-1" points="233.18 14.26 226.11 14.26 226.11 32.77 222.58 32.77 222.58 14.26 215.51 14.26 215.51 10.92 233.18 10.92 233.18 14.26"/><path class="cls-1" d="M58.94,39H66.6v.84H59.91v5.3h5.61v.84H59.91V52.1h6.9v.84H58.94Z"/><path class="cls-1" d="M68.8,55a3.2,3.2,0,0,1,1.53-2.46v-.09a1.8,1.8,0,0,1-.9-1.63A2.36,2.36,0,0,1,70.54,49v-.09a3.74,3.74,0,0,1-1.29-2.79,3.52,3.52,0,0,1,3.59-3.6,3.69,3.69,0,0,1,1.35.25h3.46v.8H75.27A3.35,3.35,0,0,1,76.4,46.1a3.51,3.51,0,0,1-3.56,3.6,3.59,3.59,0,0,1-1.69-.43,1.86,1.86,0,0,0-.83,1.47c0,.74.43,1.33,2,1.33h2.18c2.29,0,3.37.73,3.37,2.34,0,1.76-1.89,3.44-4.83,3.44C70.42,57.85,68.8,56.75,68.8,55Zm8.06-.52C76.86,53.38,76,53,74.5,53H72.31a6.58,6.58,0,0,1-1.26-.16,2.63,2.63,0,0,0-1.34,2.14c0,1.29,1.23,2.16,3.38,2.16S76.86,55.79,76.86,54.51Zm-1.39-8.42a2.64,2.64,0,1,0-5.27,0,2.64,2.64,0,1,0,5.27,0Z"/><path class="cls-1" d="M78.91,57.37l.22-.81a2.54,2.54,0,0,0,.83.17c1.25,0,2.1-1.15,2.61-2.71l.28-.89L78.67,42.74h1l2.46,6.41c.34.87.74,2,1.11,2.87h.08c.33-.91.66-2,1-2.87l2.17-6.41h1l-4,11.49c-.56,1.7-1.6,3.36-3.43,3.36A2.57,2.57,0,0,1,78.91,57.37Z"/><path class="cls-1" d="M89.37,42.74h.8l.1,1.29h0a5.87,5.87,0,0,1,3.46-1.54c2.74,0,4.08,2,4.08,5.2,0,3.46-2.09,5.51-4.49,5.51a5.29,5.29,0,0,1-3.07-1.26v5.62h-.94Zm7.51,5c0-2.51-.9-4.38-3.25-4.38A5.43,5.43,0,0,0,90.31,45v6a4.91,4.91,0,0,0,3,1.31C95.39,52.36,96.88,50.46,96.88,47.7Z"/><path class="cls-1" d="M100.87,50.13V43.56H99.28v-.73l1.61-.09.12-3h.8v3h3v.82h-3V50.2c0,1.3.33,2.18,1.73,2.18a3.52,3.52,0,0,0,1.28-.33l.25.76a5.89,5.89,0,0,1-1.67.39C101.44,53.2,100.87,52,100.87,50.13Z"/><path class="cls-1" d="M165.41,50.47a1.2,1.2,0,0,0,.58,1.1,2.65,2.65,0,0,0,1.44.36h.12a1.45,1.45,0,0,1,.63.11.43.43,0,0,1,.21.41c0,.32-.07.5-.2.56a2,2,0,0,1-.64.08,3.93,3.93,0,0,1-1.41-.23,1.83,1.83,0,0,1-.93-.81,1.87,1.87,0,0,1-2,1h-9.91a2.71,2.71,0,0,1-1.87-.52,2.33,2.33,0,0,1-.56-1.76V46.26a.19.19,0,0,1,.21-.21h.73a.19.19,0,0,1,.21.21v4.57a1.22,1.22,0,0,0,.24.85,1,1,0,0,0,.75.25h10.2a1.07,1.07,0,0,0,.78-.24,1.21,1.21,0,0,0,.24-.86v-5.9a.19.19,0,0,1,.21-.21h.73a.18.18,0,0,1,.2.21Zm-9-6.56a.19.19,0,0,1-.21-.21V42.45a.18.18,0,0,1,.21-.2h1.08a.18.18,0,0,1,.2.2V43.7a.18.18,0,0,1-.2.21Zm2.66,0a.19.19,0,0,1-.21-.21V42.45a.18.18,0,0,1,.21-.2h1.08a.18.18,0,0,1,.2.2V43.7a.18.18,0,0,1-.2.21Z"/><path class="cls-1" d="M167.53,53.09A.78.78,0,0,1,167,53a.72.72,0,0,1-.12-.46c0-.28,0-.44.11-.49a1.26,1.26,0,0,1,.55-.07h2.1a1.59,1.59,0,0,1,.62.09.4.4,0,0,1,.21.41.61.61,0,0,1-.19.53,1.2,1.2,0,0,1-.64.13Z"/><path class="cls-1" d="M169.57,53.09A.74.74,0,0,1,169,53a.72.72,0,0,1-.13-.46c0-.28,0-.44.12-.49a1.23,1.23,0,0,1,.55-.07h2.1a1.66,1.66,0,0,1,.62.09.4.4,0,0,1,.21.41.61.61,0,0,1-.2.53,1.14,1.14,0,0,1-.63.13Z"/><path class="cls-1" d="M171.61,53.09a.79.79,0,0,1-.55-.14.72.72,0,0,1-.12-.46c0-.28,0-.44.11-.49a1.29,1.29,0,0,1,.56-.07h2.09a1.68,1.68,0,0,1,.63.09.41.41,0,0,1,.2.41.61.61,0,0,1-.19.53,1.2,1.2,0,0,1-.64.13Z"/><path class="cls-1" d="M173.64,53.09a.74.74,0,0,1-.54-.14.72.72,0,0,1-.12-.46c0-.28,0-.44.11-.49a1.26,1.26,0,0,1,.55-.07h2.1a1.62,1.62,0,0,1,.62.09.4.4,0,0,1,.21.41.61.61,0,0,1-.2.53,1.14,1.14,0,0,1-.63.13Z"/><path class="cls-1" d="M175.68,53.09a.74.74,0,0,1-.54-.14.67.67,0,0,1-.13-.46c0-.28,0-.44.12-.49a1.23,1.23,0,0,1,.55-.07h2.09a1.68,1.68,0,0,1,.63.09.4.4,0,0,1,.21.41.61.61,0,0,1-.2.53,1.16,1.16,0,0,1-.64.13Z"/><path class="cls-1" d="M177.73,53.09a1.94,1.94,0,0,1-.62-.08q-.21-.09-.21-.42c0-.28.07-.46.2-.54a1.25,1.25,0,0,1,.63-.12h1.5a1,1,0,0,0,.76-.24,1.21,1.21,0,0,0,.24-.86v-5.9c0-.14.06-.21.2-.21h.73a.19.19,0,0,1,.21.21v5.54a3,3,0,0,1-.55,2,2.37,2.37,0,0,1-1.86.63Zm.63,3.41a.19.19,0,0,1-.21-.21V55c0-.14.07-.2.21-.2h1.08a.18.18,0,0,1,.2.2v1.25a.18.18,0,0,1-.2.21Zm2.66,0a.19.19,0,0,1-.21-.21V55c0-.14.07-.2.21-.2h1.08a.18.18,0,0,1,.2.2v1.25a.18.18,0,0,1-.2.21Z"/><path class="cls-1" d="M185.71,52.88a.19.19,0,0,1-.21.21h-.72a.19.19,0,0,1-.21-.21V39.17a.19.19,0,0,1,.21-.21h.72a.19.19,0,0,1,.21.21Z"/><path class="cls-1" d="M190.82,50.37a1.31,1.31,0,0,0,.55,1.17,2.51,2.51,0,0,0,1.47.39h.1a1.4,1.4,0,0,1,.62.11.43.43,0,0,1,.21.41c0,.32-.06.5-.2.56a1.88,1.88,0,0,1-.63.08,6.22,6.22,0,0,1-1.21-.1,1.66,1.66,0,0,1-.91-.54v1.66a3.18,3.18,0,0,1-.73,2.26,2.93,2.93,0,0,1-2.28.79h-.36a.18.18,0,0,1-.2-.21v-.74a.18.18,0,0,1,.2-.21h.48a1.79,1.79,0,0,0,1.3-.44,1.77,1.77,0,0,0,.45-1.33v-9.3a.19.19,0,0,1,.21-.21h.72a.19.19,0,0,1,.21.21Z"/><path class="cls-1" d="M192.92,53.09a.74.74,0,0,1-.54-.14.72.72,0,0,1-.13-.46c0-.28,0-.44.12-.49a1.23,1.23,0,0,1,.55-.07H195a1.66,1.66,0,0,1,.62.09.4.4,0,0,1,.21.41.61.61,0,0,1-.2.53,1.14,1.14,0,0,1-.63.13Z"/><path class="cls-1" d="M198.71,50.37a1.32,1.32,0,0,0,.56,1.17,2.45,2.45,0,0,0,1.46.39h.12a1.45,1.45,0,0,1,.63.11.47.47,0,0,1,.21.45.56.56,0,0,1-.19.47,1.17,1.17,0,0,1-.65.13,5,5,0,0,1-1.49-.2,1.46,1.46,0,0,1-.92-.9,1.82,1.82,0,0,1-1.87,1.1H195a1.46,1.46,0,0,1-.62-.11.48.48,0,0,1-.22-.45.5.5,0,0,1,.21-.48,1.3,1.3,0,0,1,.63-.12h1.47a1.5,1.5,0,0,0,.62-.11.63.63,0,0,0,.34-.32,1.59,1.59,0,0,0,.13-.55c0-.22,0-.48,0-.77V44.93a.19.19,0,0,1,.21-.21h.73c.14,0,.2.07.2.21Zm-1.05,6a.18.18,0,0,1-.21-.2V55a.19.19,0,0,1,.21-.21h1.08a.18.18,0,0,1,.2.21v1.25a.18.18,0,0,1-.2.2Z"/><path class="cls-1" d="M200.83,53.09a.78.78,0,0,1-.54-.14.72.72,0,0,1-.12-.46c0-.28,0-.44.11-.49a1.26,1.26,0,0,1,.55-.07h2.1a1.68,1.68,0,0,1,.63.09.41.41,0,0,1,.2.41.61.61,0,0,1-.19.53,1.2,1.2,0,0,1-.64.13Z"/><path class="cls-1" d="M202.89,53.09a1.42,1.42,0,0,1-.62-.1c-.14-.07-.21-.22-.21-.46s.06-.43.2-.5a1.42,1.42,0,0,1,.63-.1h1.52a1.21,1.21,0,0,0,.8-.25,1.13,1.13,0,0,0,.28-.85V39.17a.18.18,0,0,1,.2-.21h.73a.19.19,0,0,1,.21.21v11.3a5.8,5.8,0,0,1-.1,1.17,1.89,1.89,0,0,1-.38.82,1.55,1.55,0,0,1-.74.47,3.69,3.69,0,0,1-1.21.16Z"/><path class="cls-1" d="M211.2,57.16A.19.19,0,0,1,211,57v-.74a.19.19,0,0,1,.21-.21h2.53a2.46,2.46,0,0,0,1.51-.38,1.77,1.77,0,0,0,.49-1.49v-1h-2.35a5.54,5.54,0,0,1-1.58-.21,3,3,0,0,1-1.21-.68,3.08,3.08,0,0,1-.78-1.28,6.27,6.27,0,0,1-.27-2,6.09,6.09,0,0,1,.29-2,4,4,0,0,1,.8-1.43,3.5,3.5,0,0,1,2.64-1.18A3.26,3.26,0,0,1,216,45.45a5.29,5.29,0,0,1,.88,3.36v3.12h1.47a1.47,1.47,0,0,1,.63.1.42.42,0,0,1,.21.42.59.59,0,0,1-.2.53,1.44,1.44,0,0,1-.64.11h-1.47v1a3.41,3.41,0,0,1-.66,2.34,2.81,2.81,0,0,1-2.12.71Zm2.08-11.65a2.24,2.24,0,0,0-1.84.87,4.07,4.07,0,0,0-.7,2.6,5.06,5.06,0,0,0,.16,1.39,2.06,2.06,0,0,0,.49.9,1.89,1.89,0,0,0,.83.5,3.7,3.7,0,0,0,1.16.16h2.35V48.85a4.61,4.61,0,0,0-.56-2.47A2.09,2.09,0,0,0,213.28,45.51Z"/><path class="cls-1" d="M218.33,53.09a.74.74,0,0,1-.54-.14.67.67,0,0,1-.13-.46c0-.28,0-.44.12-.49a1.2,1.2,0,0,1,.55-.07h2.09a1.68,1.68,0,0,1,.63.09.4.4,0,0,1,.21.41.61.61,0,0,1-.2.53,1.18,1.18,0,0,1-.64.13Z"/><path class="cls-1" d="M220.36,53.09a.74.74,0,0,1-.54-.14.72.72,0,0,1-.12-.46c0-.28,0-.44.11-.49a1.26,1.26,0,0,1,.55-.07h2.1a1.62,1.62,0,0,1,.62.09.4.4,0,0,1,.21.41.59.59,0,0,1-.2.53,1.14,1.14,0,0,1-.63.13Z"/><path class="cls-1" d="M222.43,53.09a1.39,1.39,0,0,1-.63-.11.59.59,0,0,1-.2-.53.43.43,0,0,1,.21-.41,1.4,1.4,0,0,1,.62-.11h2.91a4.85,4.85,0,0,1-.56-1.35,7.47,7.47,0,0,1-.2-1.81,4.78,4.78,0,0,1,1-3.32,3.39,3.39,0,0,1,2.64-1.11c2.44,0,3.65,1.48,3.65,4.43a4.85,4.85,0,0,1-.92,3.31,3.5,3.5,0,0,1-2.72,1Zm5.82-7.58a2.12,2.12,0,0,0-1.85.86,3.87,3.87,0,0,0-.62,2.3,4.25,4.25,0,0,0,.58,2.48,2.21,2.21,0,0,0,1.89.78,2.31,2.31,0,0,0,1.89-.73,3.78,3.78,0,0,0,.59-2.37,4.41,4.41,0,0,0-.59-2.43A2.11,2.11,0,0,0,228.25,45.51Zm-.45-2.83a.19.19,0,0,1-.21-.21V41.23a.19.19,0,0,1,.21-.21h.83a.19.19,0,0,1,.21.21v1.24a.19.19,0,0,1-.21.21Z"/><path class="cls-2" d="M2.11,12.23A21.56,21.56,0,0,0,0,19.43a.63.63,0,0,0,.62.68h9.57a.66.66,0,0,0,.65-.63,57.47,57.47,0,0,1,.74-7.16.47.47,0,0,0-.47-.57H2.89a.86.86,0,0,0-.78.48"/><path class="cls-3" d="M21.81,0c-2,0-4.14,2.94-5.64,7.71a.51.51,0,0,0,.47.65H38.31a.36.36,0,0,0,.28-.58A21.94,21.94,0,0,0,21.81,0"/><path class="cls-2" d="M40.72,11.75h-25a.64.64,0,0,0-.63.51,51.09,51.09,0,0,0-.78,7.17.64.64,0,0,0,.64.68H43a.62.62,0,0,0,.61-.68,21.56,21.56,0,0,0-2.09-7.2.88.88,0,0,0-.79-.48"/><path class="cls-1" d="M10.27,23.5H.44A.44.44,0,0,0,0,24,21.85,21.85,0,0,0,14.73,42.44a.29.29,0,0,0,.35-.42c-2.52-4.4-4-11.15-4.22-18a.6.6,0,0,0-.59-.57"/><path class="cls-1" d="M21.81,43.61A21.87,21.87,0,0,0,43.6,24.15.58.58,0,0,0,43,23.5H14.87a.59.59,0,0,0-.59.62c.45,11.29,4.17,19.48,7.53,19.49"/><path class="cls-3" d="M12.58,7.84a27,27,0,0,1,2.5-6.25.29.29,0,0,0-.35-.42,21.9,21.9,0,0,0-9.68,6.6.37.37,0,0,0,.28.59h6.58a.71.71,0,0,0,.67-.52"/></g></g></svg>