<?xml version="1.0" encoding="utf-8"?>
<!-- Generator: Adobe Illustrator 13.0.0, SVG Export Plug-In . SVG Version: 6.00 Build 14948)  -->
<!DOCTYPE svg PUBLIC "-//W3C//DTD SVG 1.1//EN" "http://www.w3.org/Graphics/SVG/1.1/DTD/svg11.dtd">
<svg version="1.1" id="Layer_1" xmlns="http://www.w3.org/2000/svg" xmlns:xlink="http://www.w3.org/1999/xlink" x="0px" y="0px"
	 width="496.519px" height="488.659px" viewBox="0 0 496.519 488.659" enable-background="new 0 0 496.519 488.659"
	 xml:space="preserve">
<g opacity="0.29">
	<g opacity="0.29">
		<path opacity="0.29" fill="#FAFAFA" enable-background="new    " d="M290.085,242.309c0,22.628-18.347,40.982-40.976,40.982
			c-22.628,0-40.976-18.354-40.976-40.982c0-22.629,18.348-40.975,40.976-40.975C271.738,201.334,290.085,219.68,290.085,242.309z"
			/>
	</g>
	<g opacity="0.29">
		<path opacity="0.29" fill="#FAFAFA" enable-background="new    " d="M366.178,166.215c0,22.629-18.347,40.975-40.975,40.975
			c-22.629,0-40.967-18.346-40.967-40.975c0-22.628,18.338-40.975,40.967-40.975C347.831,125.24,366.178,143.587,366.178,166.215z"
			/>
	</g>
	<g opacity="0.29">
		<path opacity="0.29" fill="#FAFAFA" enable-background="new    " d="M368.127,318.403c0,22.628-18.347,40.981-40.976,40.981
			c-22.62,0-40.966-18.354-40.966-40.981c0-22.629,18.347-40.985,40.966-40.985C349.781,277.417,368.127,295.774,368.127,318.403z"
			/>
	</g>
	<g opacity="0.29">
		<path opacity="0.29" fill="#FAFAFA" enable-background="new    " d="M213.992,320.36c0,22.611-18.347,40.968-40.976,40.968
			c-22.619,0-40.966-18.356-40.966-40.968c0-22.646,18.347-40.983,40.966-40.983C195.645,279.376,213.992,297.713,213.992,320.36z"
			/>
	</g>
	<g opacity="0.29">
		<path opacity="0.29" fill="#FAFAFA" enable-background="new    " d="M212.042,166.215c0,22.629-18.347,40.975-40.975,40.975
			c-22.62,0-40.966-18.346-40.966-40.975c0-22.628,18.346-40.975,40.966-40.975C193.695,125.24,212.042,143.587,212.042,166.215z"/>
	</g>
	<g opacity="0.29">
		<path opacity="0.29" fill="#FAFAFA" enable-background="new    " d="M274.097,90.657c0,14.545-11.794,26.332-26.34,26.332
			c-14.546,0-26.349-11.786-26.349-26.332c0-14.555,11.803-26.35,26.349-26.35C262.302,64.307,274.097,76.102,274.097,90.657z"/>
	</g>
	<g opacity="0.29">
		<path opacity="0.29" fill="#FAFAFA" enable-background="new    " d="M429.844,243.599c0,14.555-11.786,26.34-26.332,26.34
			c-14.555,0-26.341-11.785-26.341-26.34c0-14.544,11.786-26.34,26.341-26.34C418.058,217.259,429.844,229.055,429.844,243.599z"/>
	</g>
	<g opacity="0.29">
		<path opacity="0.29" fill="#FAFAFA" enable-background="new    " d="M429.372,396.685c0,14.545-11.787,26.331-26.332,26.331
			c-14.554,0-26.34-11.786-26.34-26.331c0-14.547,11.786-26.332,26.34-26.332C417.585,370.353,429.372,382.138,429.372,396.685z"/>
	</g>
	<g opacity="0.29">
		<path opacity="0.29" fill="#FAFAFA" enable-background="new    " d="M278.859,396.968c0,14.547-11.795,26.332-26.341,26.332
			s-26.34-11.785-26.34-26.332c0-14.544,11.795-26.331,26.34-26.331S278.859,382.424,278.859,396.968z"/>
	</g>
	<g opacity="0.29">
		<path opacity="0.29" fill="#FAFAFA" enable-background="new    " d="M120.05,397.273c0,14.544-11.786,26.331-26.34,26.331
			c-14.546,0-26.341-11.787-26.341-26.331c0-14.565,11.795-26.349,26.341-26.349C108.264,370.924,120.05,382.708,120.05,397.273z"/>
	</g>
	<g opacity="0.29">
		<path opacity="0.29" fill="#FAFAFA" enable-background="new    " d="M121.92,243.902c0,14.555-11.786,26.342-26.333,26.342
			c-14.545,0-26.34-11.787-26.34-26.342c0-14.545,11.795-26.34,26.34-26.34C110.134,217.562,121.92,229.357,121.92,243.902z"/>
	</g>
	<g opacity="0.29">
		<path opacity="0.29" fill="#FAFAFA" enable-background="new    " d="M123.415,91.529c0,14.545-11.786,26.34-26.341,26.34
			c-14.545,0-26.332-11.795-26.332-26.34c0-14.546,11.787-26.332,26.332-26.332C111.629,65.197,123.415,76.983,123.415,91.529z"/>
	</g>
	<g opacity="0.29">
		<path opacity="0.29" fill="#FAFAFA" enable-background="new    " d="M427.787,89.588c0,14.545-11.786,26.332-26.332,26.332
			c-14.555,0-26.35-11.786-26.35-26.332c0-14.554,11.795-26.349,26.35-26.349C416.001,63.239,427.787,75.034,427.787,89.588z"/>
	</g>
	<g opacity="0.29">
		<path opacity="0.29" fill="#FAFAFA" enable-background="new    " d="M337.976,15c0,8.092-6.551,14.635-14.635,14.635
			c-8.074,0-14.635-6.543-14.635-14.635c0-8.074,6.561-14.625,14.635-14.625C331.425,0.375,337.976,6.926,337.976,15z"/>
	</g>
	<g opacity="0.29">
		<path opacity="0.29" fill="#FAFAFA" enable-background="new    " d="M188.159,14.635c0,8.083-6.543,14.635-14.635,14.635
			c-8.074,0-14.625-6.552-14.625-14.635C158.898,6.552,165.45,0,173.524,0C181.616,0,188.159,6.552,188.159,14.635z"/>
	</g>
	<g opacity="0.29">
		<path opacity="0.29" fill="#FAFAFA" enable-background="new    " d="M32.607,166.723c0,8.083-6.543,14.635-14.635,14.635
			c-8.074,0-14.626-6.551-14.626-14.635c0-8.083,6.552-14.626,14.626-14.626C26.064,152.097,32.607,158.64,32.607,166.723z"/>
	</g>
	<g opacity="0.29">
		<path opacity="0.29" fill="#FAFAFA" enable-background="new    " d="M173.088,459.389c8.083,0,14.634,6.552,14.634,14.634
			c0,8.084-6.552,14.636-14.634,14.636c-8.083,0-14.635-6.552-14.635-14.636C158.453,465.941,165.005,459.389,173.088,459.389z"/>
	</g>
	<g opacity="0.29">
		<path opacity="0.29" fill="#FAFAFA" enable-background="new    " d="M325.612,458.143c8.083,0,14.634,6.553,14.634,14.616
			c0,8.084-6.552,14.636-14.634,14.636c-8.083,0-14.635-6.552-14.635-14.636C310.978,464.696,317.529,458.143,325.612,458.143z"/>
	</g>
	<g opacity="0.29">
		<path opacity="0.29" fill="#FAFAFA" enable-background="new    " d="M480.896,306.882c8.092,0,14.635,6.568,14.635,14.636
			c0,8.081-6.543,14.633-14.635,14.633c-8.083,0-14.625-6.552-14.625-14.633C466.27,313.451,472.813,306.882,480.896,306.882z"/>
	</g>
	<g opacity="0.29">
		<path opacity="0.29" fill="#FAFAFA" enable-background="new    " d="M481.884,151.848c8.083,0,14.635,6.552,14.635,14.625
			c0,8.092-6.552,14.635-14.635,14.635c-8.083,0-14.634-6.543-14.634-14.635C467.25,158.4,473.801,151.848,481.884,151.848z"/>
	</g>
	<g opacity="0.29">
		<path opacity="0.29" fill="#FAFAFA" enable-background="new    " d="M7.246,311.565c5.11-6.267,14.323-7.211,20.59-2.1
			c6.267,5.107,7.202,14.314,2.092,20.58c-5.101,6.268-14.314,7.209-20.581,2.102C3.08,327.053,2.146,317.833,7.246,311.565z"/>
	</g>
</g>
<path fill="#FAFAFA" d="M286.737,242.309c0,22.628-18.347,40.982-40.975,40.982c-22.629,0-40.967-18.354-40.967-40.982
	c0-22.629,18.338-40.975,40.967-40.975C268.391,201.334,286.737,219.68,286.737,242.309z"/>
<path fill="#FAFAFA" d="M362.831,166.215c0,22.629-18.347,40.975-40.976,40.975c-22.619,0-40.966-18.346-40.966-40.975
	c0-22.628,18.347-40.975,40.966-40.975C344.484,125.24,362.831,143.587,362.831,166.215z"/>
<path fill="#FAFAFA" d="M364.78,318.403c0,22.628-18.337,40.981-40.975,40.981c-22.62,0-40.967-18.354-40.967-40.981
	c0-22.629,18.347-40.985,40.967-40.985C346.442,277.417,364.78,295.774,364.78,318.403z"/>
<path fill="#FAFAFA" d="M210.644,320.36c0,22.611-18.347,40.968-40.975,40.968c-22.62,0-40.966-18.356-40.966-40.968
	c0-22.646,18.346-40.983,40.966-40.983C192.297,279.376,210.644,297.713,210.644,320.36z"/>
<path fill="#FAFAFA" d="M208.695,166.215c0,22.629-18.347,40.975-40.975,40.975c-22.62,0-40.966-18.346-40.966-40.975
	c0-22.628,18.346-40.975,40.966-40.975C190.348,125.24,208.695,143.587,208.695,166.215z"/>
<path fill="#FAFAFA" d="M270.75,90.657c0,14.545-11.786,26.332-26.34,26.332c-14.546,0-26.333-11.786-26.333-26.332
	c0-14.555,11.786-26.35,26.333-26.35C258.964,64.307,270.75,76.102,270.75,90.657z"/>
<path fill="#FAFAFA" d="M426.506,243.599c0,14.555-11.795,26.34-26.341,26.34c-14.554,0-26.34-11.785-26.34-26.34
	c0-14.544,11.786-26.34,26.34-26.34C414.711,217.259,426.506,229.055,426.506,243.599z"/>
<path fill="#FAFAFA" d="M426.024,396.685c0,14.545-11.785,26.331-26.332,26.331c-14.555,0-26.34-11.786-26.34-26.331
	c0-14.547,11.785-26.332,26.34-26.332C414.239,370.353,426.024,382.138,426.024,396.685z"/>
<path fill="#FAFAFA" d="M275.513,396.968c0,14.547-11.795,26.332-26.341,26.332c-14.546,0-26.341-11.785-26.341-26.332
	c0-14.544,11.795-26.331,26.341-26.331C263.717,370.637,275.513,382.424,275.513,396.968z"/>
<path fill="#FAFAFA" d="M116.703,397.273c0,14.544-11.786,26.331-26.34,26.331c-14.546,0-26.332-11.787-26.332-26.331
	c0-14.565,11.786-26.349,26.332-26.349C104.917,370.924,116.703,382.708,116.703,397.273z"/>
<path fill="#FAFAFA" d="M118.581,243.902c0,14.555-11.794,26.342-26.34,26.342c-14.546,0-26.341-11.787-26.341-26.342
	c0-14.545,11.795-26.34,26.341-26.34C106.787,217.562,118.581,229.357,118.581,243.902z"/>
<path fill="#FAFAFA" d="M120.067,91.529c0,14.545-11.786,26.34-26.331,26.34s-26.341-11.795-26.341-26.34
	c0-14.546,11.795-26.332,26.341-26.332S120.067,76.983,120.067,91.529z"/>
<path fill="#FAFAFA" d="M424.44,89.588c0,14.545-11.786,26.332-26.332,26.332c-14.546,0-26.35-11.786-26.35-26.332
	c0-14.554,11.804-26.349,26.35-26.349C412.654,63.239,424.44,75.034,424.44,89.588z"/>
<path fill="#FAFAFA" d="M334.629,15c0,8.092-6.552,14.635-14.635,14.635S305.369,23.092,305.369,15
	c0-8.074,6.543-14.625,14.626-14.625S334.629,6.926,334.629,15z"/>
<path fill="#FAFAFA" d="M184.811,14.635c0,8.083-6.552,14.635-14.625,14.635c-8.083,0-14.635-6.552-14.635-14.635
	C155.551,6.552,162.103,0,170.186,0C178.259,0,184.811,6.552,184.811,14.635z"/>
<path fill="#FAFAFA" d="M29.27,166.723c0,8.083-6.561,14.635-14.635,14.635C6.552,181.357,0,174.806,0,166.723
	c0-8.083,6.552-14.626,14.635-14.626C22.708,152.097,29.27,158.64,29.27,166.723z"/>
<path fill="#FAFAFA" d="M169.74,459.389c8.092,0,14.635,6.552,14.635,14.634c0,8.084-6.542,14.636-14.635,14.636
	c-8.083,0-14.625-6.552-14.625-14.636C155.115,465.941,161.658,459.389,169.74,459.389z"/>
<path fill="#FAFAFA" d="M322.265,458.143c8.083,0,14.635,6.553,14.635,14.616c0,8.084-6.552,14.636-14.635,14.636
	c-8.083,0-14.626-6.552-14.626-14.636C307.639,464.696,314.182,458.143,322.265,458.143z"/>
<path fill="#FAFAFA" d="M477.549,306.882c8.092,0,14.635,6.568,14.635,14.636c0,8.081-6.543,14.633-14.635,14.633
	c-8.083,0-14.625-6.552-14.625-14.633C462.923,313.451,469.466,306.882,477.549,306.882z"/>
<path fill="#FAFAFA" d="M478.537,151.848c8.083,0,14.635,6.552,14.635,14.625c0,8.092-6.552,14.635-14.635,14.635
	c-8.083,0-14.635-6.543-14.635-14.635C463.902,158.4,470.454,151.848,478.537,151.848z"/>
<path fill="#FAFAFA" d="M3.899,311.565c5.109-6.267,14.332-7.211,20.599-2.1c6.258,5.107,7.193,14.314,2.092,20.58
	c-5.109,6.268-14.323,7.209-20.59,2.102C-0.267,327.053-1.202,317.833,3.899,311.565z"/>
</svg>
