<svg xmlns="http://www.w3.org/2000/svg" viewBox="0 0 139.08 36.1"><defs><style>.cls-1{fill:#b7905c;}</style></defs><g id="Layer_2" data-name="Layer 2"><g id="Layer_2-2" data-name="Layer 2"><path class="cls-1" d="M2.54,36.1c.51-.66,1-1.23,1.42-1.86a15.23,15.23,0,0,0,2.35-8.88c-.08-1.9.18-3.44,1.77-4.63a1.35,1.35,0,0,0,.23-1.89c-1-1.85-1.95-3.72-2.87-5.61C4.91,12.14,4.48,11,4,9.78,2.75,11.45,1.67,13,.51,14.56A2.73,2.73,0,0,0,.1,17c.62,3,1.29,6,1.67,9,.41,3.32.52,6.67.77,10.17"/><path class="cls-1" d="M0,4.56,4.1,8.23,7.31,3.6,3,0C2.38,1,1.79,1.82,1.21,2.7.82,3.28.44,3.88,0,4.56"/><path class="cls-1" d="M80.45,13.18c-.24.59-.52,1.36-.84,2.19L74.36,27.86l-6-13.53,2.86-6.82h-2l-2.78,6.82h0s-.09.24-.28.71L63,22.77c-.62,1.5-1.32,3.2-2.13,5.13L54.25,12.52,52,7.51h-4.6L48.89,11c.17.28.31.7.49,1.05.2.52.34,1,.48,1.28l.25.46,8.56,19.62h1.71l5.77-13.77,6,13.77h1.71l7.38-17.57,3.51-8.35H82.64ZM33,33.43h4.45V7.51H33ZM98.08,7.51,87.36,33.43h2.23l3.55-9.22h8.59l1.81,4.35s.56,1.32,2,4.87h4.83l-11-25.92Zm-4.35,15,3.62-9,3.72,9Zm43.43-15V25.64L123.59,7.51h-4.45V33.43h1.7V11.2l16.91,22.23h1.33V7.51Z"/><rect class="cls-1" x="20.34" width="0.79" height="36.1"/></g></g></svg>