<?xml version="1.0" encoding="utf-8"?>
<!-- Generator: Adobe Illustrator 13.0.0, SVG Export Plug-In . SVG Version: 6.00 Build 14948)  -->
<!DOCTYPE svg PUBLIC "-//W3C//DTD SVG 1.1//EN" "http://www.w3.org/Graphics/SVG/1.1/DTD/svg11.dtd">
<svg version="1.1" id="Layer_1" xmlns="http://www.w3.org/2000/svg" xmlns:xlink="http://www.w3.org/1999/xlink" x="0px" y="0px"
	 width="488.729px" height="484.265px" viewBox="0 0 488.729 484.265" enable-background="new 0 0 488.729 484.265"
	 xml:space="preserve">
<path fill="#002AF5" d="M284.154,240.125c0,22.427-18.18,40.612-40.607,40.612c-22.419,0-40.594-18.185-40.594-40.612
	c0-22.421,18.175-40.603,40.594-40.603C265.975,199.523,284.154,217.705,284.154,240.125z"/>
<path fill="#002AF5" d="M359.557,164.726c0,22.423-18.18,40.605-40.604,40.605c-22.418,0-40.603-18.188-40.603-40.605
	c0-22.427,18.185-40.609,40.603-40.609C341.377,124.112,359.557,142.298,359.557,164.726z"/>
<path fill="#002AF5" d="M361.492,315.537c0,22.427-18.175,40.616-40.611,40.616c-22.41,0-40.595-18.193-40.595-40.616
	c0-22.424,18.185-40.612,40.595-40.612C343.317,274.925,361.492,293.109,361.492,315.537z"/>
<path fill="#002AF5" d="M208.748,317.478c0,22.405-18.18,40.594-40.607,40.594c-22.415,0-40.594-18.188-40.594-40.594
	c0-22.437,18.18-40.612,40.594-40.612C190.559,276.861,208.748,295.041,208.748,317.478z"/>
<path fill="#002AF5" d="M206.816,164.726c0,22.423-18.185,40.605-40.603,40.605s-40.603-18.188-40.603-40.605
	c0-22.427,18.185-40.609,40.603-40.609C188.631,124.112,206.816,142.298,206.816,164.726z"/>
<path fill="#002AF5" d="M268.313,89.845c0,14.417-11.683,26.094-26.101,26.094c-14.418,0-26.101-11.682-26.101-26.094
	c0-14.425,11.682-26.111,26.101-26.111C256.63,63.733,268.313,75.42,268.313,89.845z"/>
<path fill="#002AF5" d="M422.662,241.408c0,14.424-11.691,26.103-26.101,26.103c-14.428,0-26.105-11.679-26.105-26.103
	c0-14.417,11.678-26.103,26.105-26.103C410.971,215.305,422.662,226.991,422.662,241.408z"/>
<path fill="#002AF5" d="M422.185,393.113c0,14.419-11.678,26.097-26.092,26.097c-14.427,0-26.105-11.678-26.105-26.097
	c0-14.413,11.683-26.092,26.105-26.092C410.507,367.018,422.185,378.7,422.185,393.113z"/>
<path fill="#002AF5" d="M273.028,393.414c0,14.4-11.687,26.079-26.104,26.079c-14.414,0-26.101-11.679-26.101-26.079
	c0-14.427,11.687-26.113,26.101-26.113C261.342,367.301,273.028,378.987,273.028,393.414z"/>
<path fill="#002AF5" d="M115.647,393.697c0,14.414-11.678,26.092-26.101,26.092c-14.414,0-26.092-11.678-26.092-26.092
	c0-14.437,11.678-26.114,26.092-26.114C103.969,367.583,115.647,379.261,115.647,393.697z"/>
<path fill="#002AF5" d="M117.512,241.706c0,14.425-11.691,26.103-26.105,26.103c-14.418,0-26.105-11.683-26.105-26.103
	c0-14.417,11.696-26.103,26.105-26.103C105.821,215.603,117.512,227.294,117.512,241.706z"/>
<path fill="#002AF5" d="M118.984,90.709c0,14.416-11.683,26.103-26.092,26.103c-14.414,0-26.105-11.687-26.105-26.103
	s11.691-26.094,26.105-26.094C107.302,64.615,118.984,76.293,118.984,90.709z"/>
<path fill="#002AF5" d="M420.615,88.786c0,14.414-11.678,26.092-26.096,26.092c-14.419,0-26.114-11.678-26.114-26.092
	c0-14.427,11.695-26.114,26.114-26.114C408.938,62.672,420.615,74.359,420.615,88.786z"/>
<path fill="#002AF5" d="M331.612,14.869c0,8.009-6.493,14.502-14.507,14.502c-8.009,0-14.488-6.498-14.488-14.502
	c0-8.002,6.479-14.507,14.488-14.507C325.119,0.362,331.612,6.867,331.612,14.869z"/>
<path fill="#002AF5" d="M183.146,14.507c0,8.011-6.493,14.502-14.494,14.502c-8.014,0-14.507-6.491-14.507-14.502
	S160.639,0,168.653,0C176.653,0.004,183.146,6.496,183.146,14.507z"/>
<path fill="#002AF5" d="M29.004,165.223c0,8.012-6.5,14.502-14.502,14.502C6.491,179.725,0,173.234,0,165.223
	c0-8.011,6.495-14.506,14.502-14.506C22.505,150.721,29.004,157.211,29.004,165.223z"/>
<path fill="#002AF5" d="M168.207,455.256c8.014,0,14.506,6.511,14.506,14.507c0,8.014-6.484,14.502-14.506,14.502
	c-8.014,0-14.494-6.488-14.494-14.502C153.713,461.767,160.202,455.256,168.207,455.256z"/>
<path fill="#002AF5" d="M319.36,454c8.009,0,14.498,6.511,14.498,14.503c0,8.014-6.489,14.502-14.498,14.502
	c-8.014,0-14.498-6.493-14.498-14.502C304.862,460.511,311.351,454,319.36,454z"/>
<path fill="#002AF5" d="M473.25,304.12c8.014,0,14.507,6.511,14.507,14.506c0,8.01-6.489,14.498-14.507,14.498
	c-8.014,0-14.498-6.493-14.498-14.498C458.752,310.631,465.236,304.12,473.25,304.12z"/>
<path fill="#002AF5" d="M474.222,150.478c8.014,0,14.507,6.5,14.507,14.502c0,8.009-6.493,14.506-14.507,14.506
	c-8.009,0-14.497-6.498-14.497-14.506C459.725,156.977,466.213,150.478,474.222,150.478z"/>
<path fill="#002AF5" d="M3.861,308.761c5.065-6.215,14.204-7.147,20.414-2.082c6.199,5.065,7.127,14.185,2.073,20.395
	c-5.065,6.21-14.195,7.147-20.405,2.082C-0.268,324.116-1.193,314.971,3.861,308.761z"/>
</svg>
