<?xml version="1.0" encoding="utf-8"?>
<!-- Generator: Adobe Illustrator 13.0.0, SVG Export Plug-In . SVG Version: 6.00 Build 14948)  -->
<!DOCTYPE svg PUBLIC "-//W3C//DTD SVG 1.1//EN" "http://www.w3.org/Graphics/SVG/1.1/DTD/svg11.dtd">
<svg version="1.1" id="Layer_1" xmlns="http://www.w3.org/2000/svg" xmlns:xlink="http://www.w3.org/1999/xlink" x="0px" y="0px"
	 width="220.021px" height="33.211px" viewBox="0 0 220.021 33.211" enable-background="new 0 0 220.021 33.211"
	 xml:space="preserve">
<g id="logo" transform="translate(12379.018 -9294.653)">
	<g id="Group_114" transform="translate(-12335.976 9299.815)">
		<path id="Path_18" fill="#231F20" d="M-24.036,28.05l-9.177-14.95l-3.448,3.648v11.298h-6.381V-5.162h6.381v13.5l11.832-13.5
			h8.387l-12.203,13.1l12.482,20.101L-24.036,28.05z"/>
		<path id="Path_19" fill="#231F20" d="M17.797,28.05l-1.958-6.847H4.425L2.237,28.05H-4.61L6.431-5.158h7.5L24.833,28.05H17.797z
			 M10.11,2.299h-0.049L6.103,15.498h7.875L10.11,2.299z"/>
		<path id="Path_20" fill="#002AF5" d="M37.5,28.05V-5.158h6.477V28.05H37.5z"/>
		<path id="Path_21" fill="#231F20" d="M46.213,28.05V-5.158h6.476V28.05H46.213z"/>
		<path id="Path_22" fill="#231F20" d="M80.066,28.05V-4.375h2.584V25.52h14.626v2.53H80.066z"/>
		<path id="Path_23" fill="#231F20" d="M136.499,28.05l-2.989-7.975h-15.986l-2.99,7.975h-2.987l12.362-32.424h3.216L139.49,28.05
			H136.499z M125.498-1.407l-7.11,18.958h14.267L125.498-1.407z"/>
		<path id="Path_24" fill="#231F20" d="M155.656,28.05V-4.375h12.41c4.253-0.344,7.982,2.825,8.325,7.079
			c0.032,0.393,0.034,0.79,0.007,1.184c0.196,3.418-2.01,6.514-5.308,7.438c3.215,0.535,5.889,4.132,5.889,7.975
			c0,5.394-3.252,8.75-8.65,8.75H155.656z M173.681,4.181c0.224-3.104-2.108-5.797-5.214-6.021c-0.237-0.016-0.477-0.02-0.72-0.005
			h-9.51v12.005h9.51c3.069,0.209,5.727-2.109,5.938-5.178C173.702,4.716,173.702,4.446,173.681,4.181z M174.27,19.103
			c0.185-3.355-2.386-6.227-5.742-6.409c-0.198-0.013-0.395-0.015-0.592-0.007h-9.698v12.838h9.691
			c3.246,0.263,6.086-2.154,6.348-5.396C174.304,19.785,174.302,19.444,174.27,19.103L174.27,19.103z"/>
	</g>
</g>
</svg>
