<?xml version="1.0" encoding="utf-8"?>
<!-- Generator: Adobe Illustrator 13.0.0, SVG Export Plug-In . SVG Version: 6.00 Build 14948)  -->
<!DOCTYPE svg PUBLIC "-//W3C//DTD SVG 1.1//EN" "http://www.w3.org/Graphics/SVG/1.1/DTD/svg11.dtd">
<svg version="1.1" id="Layer_1" xmlns="http://www.w3.org/2000/svg" xmlns:xlink="http://www.w3.org/1999/xlink" x="0px" y="0px"
	 width="957.5px" height="150px" viewBox="0 0 957.5 150" enable-background="new 0 0 957.5 150" xml:space="preserve">
<g>
	<g>
		<g opacity="0.29">
			<path opacity="0.29" fill="#002AF5" enable-background="new    " d="M82.101,69.26c0,4.955-4.017,8.973-8.971,8.973
				c-4.955,0-8.972-4.018-8.972-8.973c0-4.954,4.017-8.971,8.972-8.971C78.084,60.289,82.101,64.306,82.101,69.26z"/>
		</g>
		<g opacity="0.29">
			<path opacity="0.29" fill="#002AF5" enable-background="new    " d="M98.761,52.601c0,4.954-4.018,8.971-8.971,8.971
				c-4.955,0-8.97-4.018-8.97-8.971c0-4.955,4.015-8.972,8.97-8.972C94.744,43.628,98.761,47.646,98.761,52.601z"/>
		</g>
		<g opacity="0.29">
			<path opacity="0.29" fill="#002AF5" enable-background="new    " d="M99.188,85.921c0,4.955-4.017,8.973-8.972,8.973
				c-4.952,0-8.969-4.019-8.969-8.973s4.017-8.973,8.969-8.973C95.171,76.948,99.188,80.966,99.188,85.921z"/>
		</g>
		<g opacity="0.29">
			<path opacity="0.29" fill="#002AF5" enable-background="new    " d="M65.44,86.35c0,4.95-4.017,8.969-8.972,8.969
				c-4.952,0-8.969-4.019-8.969-8.969c0-4.958,4.017-8.973,8.969-8.973C61.423,77.376,65.44,81.392,65.44,86.35z"/>
		</g>
		<g opacity="0.29">
			<path opacity="0.29" fill="#002AF5" enable-background="new    " d="M65.013,52.601c0,4.954-4.017,8.971-8.971,8.971
				c-4.952,0-8.969-4.018-8.969-8.971c0-4.955,4.017-8.972,8.969-8.972C60.997,43.628,65.013,47.646,65.013,52.601z"/>
		</g>
		<g opacity="0.29">
			<path opacity="0.29" fill="#002AF5" enable-background="new    " d="M78.6,36.057c0,3.185-2.583,5.765-5.767,5.765
				s-5.769-2.581-5.769-5.765c0-3.187,2.584-5.769,5.769-5.769S78.6,32.87,78.6,36.057z"/>
		</g>
		<g opacity="0.29">
			<path opacity="0.29" fill="#002AF5" enable-background="new    " d="M112.701,69.543c0,3.187-2.581,5.767-5.766,5.767
				c-3.187,0-5.767-2.58-5.767-5.767c0-3.185,2.58-5.767,5.767-5.767C110.12,63.776,112.701,66.358,112.701,69.543z"/>
		</g>
		<g opacity="0.29">
			<path opacity="0.29" fill="#002AF5" enable-background="new    " d="M112.597,103.061c0,3.185-2.58,5.765-5.765,5.765
				c-3.187,0-5.767-2.58-5.767-5.765c0-3.185,2.581-5.765,5.767-5.765C110.017,97.295,112.597,99.876,112.597,103.061z"/>
		</g>
		<g opacity="0.29">
			<path opacity="0.29" fill="#002AF5" enable-background="new    " d="M79.643,103.127c0,3.181-2.582,5.762-5.767,5.762
				c-3.185,0-5.768-2.581-5.768-5.762c0-3.188,2.583-5.769,5.768-5.769C77.061,97.358,79.643,99.939,79.643,103.127z"/>
		</g>
		<g opacity="0.29">
			<path opacity="0.29" fill="#002AF5" enable-background="new    " d="M44.872,103.189c0,3.185-2.581,5.765-5.767,5.765
				c-3.185,0-5.767-2.58-5.767-5.765c0-3.189,2.583-5.769,5.767-5.769C42.292,97.42,44.872,100,44.872,103.189z"/>
		</g>
		<g opacity="0.29">
			<path opacity="0.29" fill="#002AF5" enable-background="new    " d="M45.282,69.609c0,3.187-2.581,5.767-5.766,5.767
				c-3.185,0-5.767-2.581-5.767-5.767c0-3.185,2.582-5.767,5.767-5.767C42.701,63.842,45.282,66.425,45.282,69.609z"/>
		</g>
		<g opacity="0.29">
			<path opacity="0.29" fill="#002AF5" enable-background="new    " d="M45.609,36.248c0,3.185-2.581,5.767-5.768,5.767
				c-3.184,0-5.765-2.582-5.765-5.767c0-3.185,2.581-5.765,5.765-5.765C43.028,30.482,45.609,33.063,45.609,36.248z"/>
		</g>
		<g opacity="0.29">
			<path opacity="0.29" fill="#002AF5" enable-background="new    " d="M112.25,35.823c0,3.185-2.581,5.765-5.766,5.765
				c-3.187,0-5.769-2.58-5.769-5.765c0-3.187,2.582-5.769,5.769-5.769C109.67,30.054,112.25,32.636,112.25,35.823z"/>
		</g>
		<g opacity="0.29">
			<path opacity="0.29" fill="#002AF5" enable-background="new    " d="M92.586,19.492c0,1.77-1.435,3.204-3.204,3.204
				c-1.768,0-3.204-1.435-3.204-3.204c0-1.768,1.437-3.205,3.204-3.205C91.152,16.287,92.586,17.724,92.586,19.492z"/>
		</g>
		<g opacity="0.29">
			<path opacity="0.29" fill="#002AF5" enable-background="new    " d="M59.784,19.412c0,1.77-1.433,3.204-3.205,3.204
				c-1.768,0-3.202-1.434-3.202-3.204c0-1.77,1.434-3.205,3.202-3.205C58.352,16.208,59.784,17.642,59.784,19.412z"/>
		</g>
		<g opacity="0.29">
			<path opacity="0.29" fill="#002AF5" enable-background="new    " d="M25.727,52.711c0,1.77-1.432,3.204-3.204,3.204
				c-1.768,0-3.202-1.434-3.202-3.204c0-1.77,1.435-3.205,3.202-3.205C24.294,49.507,25.727,50.941,25.727,52.711z"/>
		</g>
		<g opacity="0.29">
			<path opacity="0.29" fill="#002AF5" enable-background="new    " d="M56.484,116.79c1.77,0,3.205,1.438,3.205,3.205
				c0,1.77-1.435,3.204-3.205,3.204s-3.204-1.434-3.204-3.204C53.28,118.228,54.714,116.79,56.484,116.79z"/>
		</g>
		<g opacity="0.29">
			<path opacity="0.29" fill="#002AF5" enable-background="new    " d="M89.879,116.513c1.77,0,3.204,1.438,3.204,3.204
				c0,1.77-1.435,3.204-3.204,3.204c-1.77,0-3.205-1.435-3.205-3.204C86.675,117.951,88.109,116.513,89.879,116.513z"/>
		</g>
		<g opacity="0.29">
			<path opacity="0.29" fill="#002AF5" enable-background="new    " d="M123.878,83.399c1.772,0,3.205,1.438,3.205,3.204
				c0,1.77-1.433,3.204-3.205,3.204c-1.77,0-3.202-1.435-3.202-3.204C120.676,84.837,122.108,83.399,123.878,83.399z"/>
		</g>
		<g opacity="0.29">
			<path opacity="0.29" fill="#002AF5" enable-background="new    " d="M124.095,49.453c1.77,0,3.204,1.436,3.204,3.204
				c0,1.77-1.434,3.205-3.204,3.205s-3.205-1.435-3.205-3.205C120.89,50.889,122.325,49.453,124.095,49.453z"/>
		</g>
		<g opacity="0.29">
			<path opacity="0.29" fill="#002AF5" enable-background="new    " d="M20.174,84.424c1.119-1.373,3.136-1.579,4.508-0.46
				c1.372,1.119,1.577,3.134,0.458,4.506c-1.117,1.372-3.134,1.579-4.506,0.46C19.262,87.816,19.058,85.796,20.174,84.424z"/>
		</g>
	</g>
	<path fill="#002AF5" d="M81.368,69.26c0,4.955-4.017,8.973-8.971,8.973s-8.969-4.018-8.969-8.973c0-4.954,4.015-8.971,8.969-8.971
		S81.368,64.306,81.368,69.26z"/>
	<path fill="#002AF5" d="M98.028,52.601c0,4.954-4.017,8.971-8.972,8.971c-4.952,0-8.97-4.018-8.97-8.971
		c0-4.955,4.018-8.972,8.97-8.972C94.011,43.628,98.028,47.646,98.028,52.601z"/>
	<path fill="#002AF5" d="M98.455,85.921c0,4.955-4.015,8.973-8.972,8.973c-4.952,0-8.969-4.019-8.969-8.973s4.017-8.973,8.969-8.973
		C94.44,76.948,98.455,80.966,98.455,85.921z"/>
	<path fill="#002AF5" d="M64.708,86.35c0,4.95-4.017,8.969-8.971,8.969c-4.953,0-8.97-4.019-8.97-8.969
		c0-4.958,4.017-8.973,8.97-8.973C60.69,77.376,64.708,81.392,64.708,86.35z"/>
	<path fill="#002AF5" d="M64.281,52.601c0,4.954-4.017,8.971-8.971,8.971c-4.953,0-8.97-4.018-8.97-8.971
		c0-4.955,4.017-8.972,8.97-8.972C60.264,43.628,64.281,47.646,64.281,52.601z"/>
	<path fill="#002AF5" d="M77.868,36.057c0,3.185-2.581,5.765-5.767,5.765c-3.185,0-5.766-2.581-5.766-5.765
		c0-3.187,2.581-5.769,5.766-5.769C75.287,30.288,77.868,32.87,77.868,36.057z"/>
	<path fill="#002AF5" d="M111.97,69.543c0,3.187-2.583,5.767-5.767,5.767c-3.187,0-5.767-2.58-5.767-5.767
		c0-3.185,2.58-5.767,5.767-5.767C109.387,63.776,111.97,66.358,111.97,69.543z"/>
	<path fill="#002AF5" d="M111.864,103.061c0,3.185-2.58,5.765-5.765,5.765c-3.187,0-5.767-2.58-5.767-5.765
		c0-3.185,2.581-5.765,5.767-5.765C109.284,97.295,111.864,99.876,111.864,103.061z"/>
	<path fill="#002AF5" d="M78.91,103.127c0,3.181-2.582,5.762-5.767,5.762c-3.185,0-5.767-2.581-5.767-5.762
		c0-3.188,2.582-5.769,5.767-5.769C76.328,97.358,78.91,99.939,78.91,103.127z"/>
	<path fill="#002AF5" d="M44.139,103.189c0,3.185-2.581,5.765-5.767,5.765c-3.185,0-5.765-2.58-5.765-5.765
		c0-3.189,2.581-5.769,5.765-5.769C41.559,97.42,44.139,100,44.139,103.189z"/>
	<path fill="#002AF5" d="M44.551,69.609c0,3.187-2.583,5.767-5.768,5.767c-3.185,0-5.767-2.581-5.767-5.767
		c0-3.185,2.583-5.767,5.767-5.767C41.968,63.842,44.551,66.425,44.551,69.609z"/>
	<path fill="#002AF5" d="M44.876,36.248c0,3.185-2.581,5.767-5.765,5.767s-5.767-2.582-5.767-5.767c0-3.185,2.583-5.765,5.767-5.765
		S44.876,33.063,44.876,36.248z"/>
	<path fill="#002AF5" d="M111.518,35.823c0,3.185-2.581,5.765-5.766,5.765s-5.77-2.58-5.77-5.765c0-3.187,2.585-5.769,5.77-5.769
		S111.518,32.636,111.518,35.823z"/>
	<path fill="#002AF5" d="M91.854,19.492c0,1.77-1.435,3.204-3.205,3.204s-3.202-1.435-3.202-3.204c0-1.768,1.432-3.205,3.202-3.205
		S91.854,17.724,91.854,19.492z"/>
	<path fill="#002AF5" d="M59.052,19.412c0,1.77-1.435,3.204-3.203,3.204c-1.77,0-3.205-1.434-3.205-3.204
		c0-1.77,1.435-3.205,3.205-3.205C57.617,16.208,59.052,17.642,59.052,19.412z"/>
	<path fill="#002AF5" d="M24.996,52.711c0,1.77-1.436,3.204-3.204,3.204c-1.77,0-3.204-1.434-3.204-3.204
		c0-1.77,1.435-3.205,3.204-3.205C23.56,49.507,24.996,50.941,24.996,52.711z"/>
	<path fill="#002AF5" d="M55.751,116.79c1.771,0,3.205,1.438,3.205,3.205c0,1.77-1.433,3.204-3.205,3.204
		c-1.77,0-3.202-1.434-3.202-3.204C52.549,118.228,53.982,116.79,55.751,116.79z"/>
	<path fill="#002AF5" d="M89.146,116.513c1.77,0,3.204,1.438,3.204,3.204c0,1.77-1.434,3.204-3.204,3.204
		c-1.77,0-3.202-1.435-3.202-3.204C85.944,117.951,87.377,116.513,89.146,116.513z"/>
	<path fill="#002AF5" d="M123.146,83.399c1.771,0,3.205,1.438,3.205,3.204c0,1.77-1.433,3.204-3.205,3.204
		c-1.77,0-3.202-1.435-3.202-3.204C119.943,84.837,121.376,83.399,123.146,83.399z"/>
	<path fill="#002AF5" d="M123.362,49.453c1.77,0,3.204,1.436,3.204,3.204c0,1.77-1.434,3.205-3.204,3.205
		c-1.77,0-3.204-1.435-3.204-3.205C120.158,50.889,121.592,49.453,123.362,49.453z"/>
	<path fill="#002AF5" d="M19.441,84.424c1.119-1.373,3.138-1.579,4.51-0.46c1.37,1.119,1.575,3.134,0.458,4.506
		c-1.119,1.372-3.136,1.579-4.508,0.46C18.529,87.816,18.324,85.796,19.441,84.424z"/>
	<path fill="#231F20" d="M270.898,123.195l-30.789-46.739L228.542,87.87v35.325h-21.41V19.416h21.41v42.201l39.702-42.201h28.135
		l-40.952,40.952l41.891,62.828H270.898z"/>
	<path fill="#231F20" d="M385.461,42.707h-0.154l-13.292,41.261h26.419L385.461,42.707z M411.25,123.195l-6.568-21.409h-38.287
		l-7.354,21.409h-22.969L373.11,19.416h25.17l36.572,103.779H411.25z"/>
	<path fill="#002AF5" d="M477.358,19.419h21.73v103.779h-21.73V19.419z"/>
	<path fill="#231F20" d="M506.577,19.419h21.731v103.779h-21.731V19.419z"/>
	<path fill="#231F20" d="M620.162,123.195V21.848h8.662v93.449h49.069v7.898H620.162z"/>
	<path fill="#231F20" d="M772.562,31.118L748.713,90.38h47.86L772.562,31.118z M809.484,123.195l-10.026-24.921h-53.645
		l-10.026,24.921h-10.026l41.483-101.351h10.783l41.483,101.351H809.484z"/>
	<path fill="#231F20" d="M936.204,95.238c0-10.338-7.134-20.052-21.269-20.052h-32.518v40.107h32.518
		C928.31,115.293,936.204,107.54,936.204,95.238z M934.23,48.591c0-10.328-6.841-18.843-19.898-18.843h-31.915v37.53h31.915
		C927.39,67.278,934.23,59.073,934.23,48.591z M873.756,123.198V21.852h41.632c17.019,0,27.957,9.872,27.957,25.827
		c0,12.76-8.662,21.422-17.775,23.252c10.79,1.667,19.751,12.917,19.751,24.907c0,16.878-10.934,27.36-29.021,27.36H873.756z"/>
</g>
</svg>
