<?xml version="1.0" encoding="utf-8"?>
<!-- Generator: Adobe Illustrator 13.0.0, SVG Export Plug-In . SVG Version: 6.00 Build 14948)  -->
<!DOCTYPE svg PUBLIC "-//W3C//DTD SVG 1.1//EN" "http://www.w3.org/Graphics/SVG/1.1/DTD/svg11.dtd">
<svg version="1.1" id="Layer_1" xmlns="http://www.w3.org/2000/svg" xmlns:xlink="http://www.w3.org/1999/xlink" x="0px" y="0px"
	 width="782px" height="150px" viewBox="176.25 0 782 150" enable-background="new 176.25 0 782 150" xml:space="preserve">
<g>
	<g opacity="0.29">
		<g opacity="0.29">
			<path opacity="0.29" fill="#FAFAFA" enable-background="new    " d="M82.101,67.213c0,4.955-4.017,8.973-8.971,8.973
				c-4.955,0-8.972-4.018-8.972-8.973c0-4.954,4.017-8.972,8.972-8.972C78.084,58.241,82.101,62.259,82.101,67.213z"/>
		</g>
		<g opacity="0.29">
			<path opacity="0.29" fill="#FAFAFA" enable-background="new    " d="M98.761,50.553c0,4.954-4.018,8.971-8.971,8.971
				c-4.955,0-8.97-4.017-8.97-8.971c0-4.954,4.015-8.972,8.97-8.972C94.744,41.581,98.761,45.599,98.761,50.553z"/>
		</g>
		<g opacity="0.29">
			<path opacity="0.29" fill="#FAFAFA" enable-background="new    " d="M99.188,83.874c0,4.955-4.017,8.974-8.972,8.974
				c-4.952,0-8.969-4.02-8.969-8.974s4.017-8.973,8.969-8.973C95.171,74.9,99.188,78.919,99.188,83.874z"/>
		</g>
		<g opacity="0.29">
			<path opacity="0.29" fill="#FAFAFA" enable-background="new    " d="M65.44,84.302c0,4.95-4.017,8.97-8.972,8.97
				c-4.952,0-8.969-4.02-8.969-8.97c0-4.958,4.017-8.973,8.969-8.973C61.423,75.329,65.44,79.344,65.44,84.302z"/>
		</g>
		<g opacity="0.29">
			<path opacity="0.29" fill="#FAFAFA" enable-background="new    " d="M65.013,50.553c0,4.954-4.017,8.971-8.971,8.971
				c-4.952,0-8.969-4.017-8.969-8.971c0-4.954,4.017-8.972,8.969-8.972C60.997,41.581,65.013,45.599,65.013,50.553z"/>
		</g>
		<g opacity="0.29">
			<path opacity="0.29" fill="#FAFAFA" enable-background="new    " d="M78.6,34.009c0,3.185-2.583,5.765-5.767,5.765
				s-5.769-2.581-5.769-5.765c0-3.187,2.584-5.769,5.769-5.769S78.6,30.823,78.6,34.009z"/>
		</g>
		<g opacity="0.29">
			<path opacity="0.29" fill="#FAFAFA" enable-background="new    " d="M112.701,67.496c0,3.187-2.581,5.767-5.766,5.767
				c-3.187,0-5.767-2.58-5.767-5.767c0-3.185,2.58-5.767,5.767-5.767C110.12,61.729,112.701,64.311,112.701,67.496z"/>
		</g>
		<g opacity="0.29">
			<path opacity="0.29" fill="#FAFAFA" enable-background="new    " d="M112.597,101.014c0,3.186-2.58,5.764-5.765,5.764
				c-3.187,0-5.767-2.578-5.767-5.764s2.581-5.766,5.767-5.766C110.017,95.248,112.597,97.829,112.597,101.014z"/>
		</g>
		<g opacity="0.29">
			<path opacity="0.29" fill="#FAFAFA" enable-background="new    " d="M79.643,101.079c0,3.181-2.582,5.762-5.767,5.762
				s-5.768-2.581-5.768-5.762c0-3.188,2.583-5.769,5.768-5.769S79.643,97.893,79.643,101.079z"/>
		</g>
		<g opacity="0.29">
			<path opacity="0.29" fill="#FAFAFA" enable-background="new    " d="M44.872,101.143c0,3.186-2.581,5.766-5.767,5.766
				c-3.185,0-5.767-2.58-5.767-5.766c0-3.188,2.583-5.77,5.767-5.77C42.292,95.373,44.872,97.953,44.872,101.143z"/>
		</g>
		<g opacity="0.29">
			<path opacity="0.29" fill="#FAFAFA" enable-background="new    " d="M45.282,67.562c0,3.187-2.581,5.767-5.766,5.767
				s-5.767-2.581-5.767-5.767c0-3.185,2.582-5.767,5.767-5.767S45.282,64.377,45.282,67.562z"/>
		</g>
		<g opacity="0.29">
			<path opacity="0.29" fill="#FAFAFA" enable-background="new    " d="M45.609,34.2c0,3.185-2.581,5.767-5.768,5.767
				c-3.184,0-5.765-2.582-5.765-5.767c0-3.185,2.581-5.765,5.765-5.765C43.028,28.435,45.609,31.016,45.609,34.2z"/>
		</g>
		<g opacity="0.29">
			<path opacity="0.29" fill="#FAFAFA" enable-background="new    " d="M112.25,33.775c0,3.185-2.581,5.765-5.766,5.765
				c-3.187,0-5.769-2.581-5.769-5.765c0-3.187,2.582-5.769,5.769-5.769C109.67,28.006,112.25,30.589,112.25,33.775z"/>
		</g>
		<g opacity="0.29">
			<path opacity="0.29" fill="#FAFAFA" enable-background="new    " d="M92.586,17.444c0,1.77-1.435,3.204-3.204,3.204
				c-1.768,0-3.204-1.435-3.204-3.204c0-1.768,1.437-3.205,3.204-3.205C91.152,14.24,92.586,15.677,92.586,17.444z"/>
		</g>
		<g opacity="0.29">
			<path opacity="0.29" fill="#FAFAFA" enable-background="new    " d="M59.784,17.364c0,1.77-1.433,3.204-3.205,3.204
				c-1.768,0-3.202-1.434-3.202-3.204c0-1.771,1.434-3.204,3.202-3.204C58.352,14.16,59.784,15.595,59.784,17.364z"/>
		</g>
		<g opacity="0.29">
			<path opacity="0.29" fill="#FAFAFA" enable-background="new    " d="M25.727,50.664c0,1.77-1.432,3.204-3.204,3.204
				c-1.768,0-3.202-1.434-3.202-3.204s1.435-3.205,3.202-3.205C24.294,47.459,25.727,48.894,25.727,50.664z"/>
		</g>
		<g opacity="0.29">
			<path opacity="0.29" fill="#FAFAFA" enable-background="new    " d="M56.484,114.742c1.77,0,3.205,1.438,3.205,3.205
				c0,1.77-1.435,3.203-3.205,3.203s-3.204-1.436-3.204-3.203C53.28,116.182,54.714,114.742,56.484,114.742z"/>
		</g>
		<g opacity="0.29">
			<path opacity="0.29" fill="#FAFAFA" enable-background="new    " d="M89.879,114.466c1.77,0,3.204,1.438,3.204,3.204
				c0,1.77-1.435,3.204-3.204,3.204c-1.77,0-3.205-1.435-3.205-3.204C86.675,115.904,88.109,114.466,89.879,114.466z"/>
		</g>
		<g opacity="0.29">
			<path opacity="0.29" fill="#FAFAFA" enable-background="new    " d="M123.878,81.352c1.772,0,3.205,1.438,3.205,3.205
				c0,1.771-1.433,3.203-3.205,3.203c-1.77,0-3.202-1.435-3.202-3.203C120.676,82.79,122.108,81.352,123.878,81.352z"/>
		</g>
		<g opacity="0.29">
			<path opacity="0.29" fill="#FAFAFA" enable-background="new    " d="M124.095,47.405c1.77,0,3.204,1.436,3.204,3.204
				c0,1.77-1.434,3.205-3.204,3.205s-3.205-1.435-3.205-3.205C120.89,48.841,122.325,47.405,124.095,47.405z"/>
		</g>
		<g opacity="0.29">
			<path opacity="0.29" fill="#FAFAFA" enable-background="new    " d="M20.174,82.377c1.119-1.373,3.136-1.579,4.508-0.46
				s1.577,3.134,0.458,4.506c-1.117,1.372-3.134,1.579-4.506,0.46C19.262,85.77,19.058,83.749,20.174,82.377z"/>
		</g>
	</g>
	<path fill="#FAFAFA" d="M81.368,67.213c0,4.955-4.017,8.973-8.971,8.973s-8.969-4.018-8.969-8.973c0-4.954,4.015-8.972,8.969-8.972
		S81.368,62.259,81.368,67.213z"/>
	<path fill="#FAFAFA" d="M98.028,50.553c0,4.954-4.017,8.971-8.972,8.971c-4.952,0-8.97-4.017-8.97-8.971
		c0-4.954,4.018-8.972,8.97-8.972C94.011,41.581,98.028,45.599,98.028,50.553z"/>
	<path fill="#FAFAFA" d="M98.455,83.874c0,4.955-4.015,8.974-8.972,8.974c-4.952,0-8.969-4.02-8.969-8.974s4.017-8.973,8.969-8.973
		C94.44,74.9,98.455,78.919,98.455,83.874z"/>
	<path fill="#FAFAFA" d="M64.708,84.302c0,4.95-4.017,8.97-8.971,8.97c-4.953,0-8.97-4.02-8.97-8.97c0-4.958,4.017-8.973,8.97-8.973
		C60.69,75.329,64.708,79.344,64.708,84.302z"/>
	<path fill="#FAFAFA" d="M64.281,50.553c0,4.954-4.017,8.971-8.971,8.971c-4.953,0-8.97-4.017-8.97-8.971
		c0-4.954,4.017-8.972,8.97-8.972C60.264,41.581,64.281,45.599,64.281,50.553z"/>
	<path fill="#FAFAFA" d="M77.868,34.009c0,3.185-2.581,5.765-5.767,5.765c-3.185,0-5.766-2.581-5.766-5.765
		c0-3.187,2.581-5.769,5.766-5.769C75.287,28.24,77.868,30.823,77.868,34.009z"/>
	<path fill="#FAFAFA" d="M111.97,67.496c0,3.187-2.583,5.767-5.767,5.767c-3.187,0-5.767-2.58-5.767-5.767
		c0-3.185,2.58-5.767,5.767-5.767C109.387,61.729,111.97,64.311,111.97,67.496z"/>
	<path fill="#FAFAFA" d="M111.864,101.014c0,3.186-2.58,5.764-5.765,5.764c-3.187,0-5.767-2.578-5.767-5.764
		s2.581-5.766,5.767-5.766C109.284,95.248,111.864,97.829,111.864,101.014z"/>
	<path fill="#FAFAFA" d="M78.91,101.079c0,3.181-2.582,5.762-5.767,5.762s-5.767-2.581-5.767-5.762c0-3.188,2.582-5.769,5.767-5.769
		S78.91,97.893,78.91,101.079z"/>
	<path fill="#FAFAFA" d="M44.139,101.143c0,3.186-2.581,5.766-5.767,5.766c-3.185,0-5.765-2.58-5.765-5.766
		c0-3.188,2.581-5.77,5.765-5.77C41.559,95.373,44.139,97.953,44.139,101.143z"/>
	<path fill="#FAFAFA" d="M44.551,67.562c0,3.187-2.583,5.767-5.768,5.767c-3.185,0-5.767-2.581-5.767-5.767
		c0-3.185,2.583-5.767,5.767-5.767C41.968,61.795,44.551,64.377,44.551,67.562z"/>
	<path fill="#FAFAFA" d="M44.876,34.2c0,3.185-2.581,5.767-5.765,5.767s-5.767-2.582-5.767-5.767c0-3.185,2.583-5.765,5.767-5.765
		S44.876,31.016,44.876,34.2z"/>
	<path fill="#FAFAFA" d="M111.518,33.775c0,3.185-2.581,5.765-5.766,5.765s-5.77-2.581-5.77-5.765c0-3.187,2.585-5.769,5.77-5.769
		S111.518,30.589,111.518,33.775z"/>
	<path fill="#FAFAFA" d="M91.854,17.444c0,1.77-1.435,3.204-3.205,3.204s-3.202-1.435-3.202-3.204c0-1.768,1.432-3.205,3.202-3.205
		S91.854,15.677,91.854,17.444z"/>
	<path fill="#FAFAFA" d="M59.052,17.364c0,1.77-1.435,3.204-3.203,3.204c-1.77,0-3.205-1.434-3.205-3.204
		c0-1.771,1.435-3.204,3.205-3.204C57.617,14.16,59.052,15.595,59.052,17.364z"/>
	<path fill="#FAFAFA" d="M24.996,50.664c0,1.77-1.436,3.204-3.204,3.204c-1.77,0-3.204-1.434-3.204-3.204s1.435-3.205,3.204-3.205
		C23.56,47.459,24.996,48.894,24.996,50.664z"/>
	<path fill="#FAFAFA" d="M55.751,114.742c1.771,0,3.205,1.438,3.205,3.205c0,1.77-1.433,3.203-3.205,3.203
		c-1.77,0-3.202-1.436-3.202-3.203C52.549,116.182,53.982,114.742,55.751,114.742z"/>
	<path fill="#FAFAFA" d="M89.146,114.466c1.77,0,3.204,1.438,3.204,3.204c0,1.77-1.434,3.204-3.204,3.204s-3.202-1.435-3.202-3.204
		C85.944,115.904,87.377,114.466,89.146,114.466z"/>
	<path fill="#FAFAFA" d="M123.146,81.352c1.771,0,3.205,1.438,3.205,3.205c0,1.771-1.433,3.203-3.205,3.203
		c-1.77,0-3.202-1.435-3.202-3.203C119.943,82.79,121.376,81.352,123.146,81.352z"/>
	<path fill="#FAFAFA" d="M123.362,47.405c1.77,0,3.204,1.436,3.204,3.204c0,1.77-1.434,3.205-3.204,3.205s-3.204-1.435-3.204-3.205
		C120.158,48.841,121.592,47.405,123.362,47.405z"/>
	<path fill="#FAFAFA" d="M19.441,82.377c1.119-1.373,3.138-1.579,4.51-0.46c1.37,1.119,1.575,3.134,0.458,4.506
		c-1.119,1.372-3.136,1.579-4.508,0.46C18.529,85.77,18.324,83.749,19.441,82.377z"/>
	<path fill="#231F20" d="M270.898,121.146l-30.789-46.737l-11.567,11.414v35.325h-21.41V17.368h21.41v42.201l39.702-42.201h28.135
		L255.427,58.32l41.891,62.827H270.898L270.898,121.146z"/>
	<path fill="#231F20" d="M385.461,40.659h-0.154L372.015,81.92h26.419L385.461,40.659z M411.25,121.146l-6.568-21.407h-38.287
		l-7.354,21.407h-22.969L373.11,17.368h25.17l36.57,103.778H411.25z"/>
	<path fill="#002AF5" d="M477.358,17.372h21.729V121.15h-21.729V17.372z"/>
	<path fill="#231F20" d="M506.577,17.372h21.729V121.15h-21.729V17.372z"/>
	<path fill="#231F20" d="M620.162,121.146V19.801h8.662v93.449h49.067v7.896H620.162z"/>
	<path fill="#231F20" d="M772.563,29.07l-23.85,59.263h47.86L772.563,29.07z M809.484,121.146l-10.026-24.92h-53.646l-10.025,24.92
		h-10.026l41.483-101.351h10.783l41.481,101.351H809.484z"/>
	<path fill="#231F20" d="M936.204,93.189c0-10.338-7.134-20.051-21.271-20.051h-32.518v40.107h32.518
		C928.31,113.246,936.204,105.492,936.204,93.189z M934.23,46.543c0-10.328-6.843-18.843-19.898-18.843h-31.915v37.53h31.915
		C927.39,65.23,934.23,57.025,934.23,46.543z M873.756,121.15V19.805h41.632c17.021,0,27.957,9.872,27.957,25.827
		c0,12.76-8.662,21.422-17.773,23.252c10.79,1.667,19.751,12.917,19.751,24.907c0,16.878-10.936,27.359-29.021,27.359H873.756z"/>
</g>
<g>
	<g>
		<g opacity="0.29">
			<path opacity="0.29" fill="#002AF5" enable-background="new    " d="M67.101,368.094c0,4.955-4.017,8.973-8.971,8.973
				c-4.955,0-8.972-4.018-8.972-8.973c0-4.953,4.017-8.971,8.972-8.971C63.084,359.123,67.101,363.141,67.101,368.094z"/>
		</g>
		<g opacity="0.29">
			<path opacity="0.29" fill="#002AF5" enable-background="new    " d="M83.761,351.434c0,4.955-4.018,8.971-8.971,8.971
				c-4.955,0-8.97-4.018-8.97-8.971c0-4.955,4.015-8.972,8.97-8.972C79.744,342.462,83.761,346.479,83.761,351.434z"/>
		</g>
		<g opacity="0.29">
			<path opacity="0.29" fill="#002AF5" enable-background="new    " d="M84.188,384.754c0,4.955-4.017,8.973-8.972,8.973
				c-4.952,0-8.969-4.019-8.969-8.973s4.017-8.973,8.969-8.973C80.171,375.781,84.188,379.8,84.188,384.754z"/>
		</g>
		<g opacity="0.29">
			<path opacity="0.29" fill="#002AF5" enable-background="new    " d="M50.44,385.184c0,4.949-4.017,8.969-8.972,8.969
				c-4.952,0-8.969-4.02-8.969-8.969c0-4.959,4.017-8.974,8.969-8.974C46.423,376.21,50.44,380.225,50.44,385.184z"/>
		</g>
		<g opacity="0.29">
			<path opacity="0.29" fill="#002AF5" enable-background="new    " d="M50.013,351.434c0,4.955-4.017,8.971-8.971,8.971
				c-4.952,0-8.969-4.018-8.969-8.971c0-4.955,4.017-8.972,8.969-8.972C45.997,342.462,50.013,346.479,50.013,351.434z"/>
		</g>
		<g opacity="0.29">
			<path opacity="0.29" fill="#002AF5" enable-background="new    " d="M63.6,334.891c0,3.186-2.583,5.764-5.767,5.764
				s-5.769-2.579-5.769-5.764c0-3.188,2.584-5.77,5.769-5.77S63.6,331.704,63.6,334.891z"/>
		</g>
		<g opacity="0.29">
			<path opacity="0.29" fill="#002AF5" enable-background="new    " d="M97.701,368.376c0,3.187-2.581,5.767-5.766,5.767
				c-3.187,0-5.767-2.58-5.767-5.767c0-3.185,2.58-5.767,5.767-5.767C95.12,362.609,97.701,365.191,97.701,368.376z"/>
		</g>
		<g opacity="0.29">
			<path opacity="0.29" fill="#002AF5" enable-background="new    " d="M97.597,401.895c0,3.186-2.58,5.766-5.765,5.766
				c-3.187,0-5.767-2.58-5.767-5.766s2.581-5.766,5.767-5.766C95.017,396.129,97.597,398.709,97.597,401.895z"/>
		</g>
		<g opacity="0.29">
			<path opacity="0.29" fill="#002AF5" enable-background="new    " d="M64.643,401.96c0,3.181-2.582,5.763-5.767,5.763
				s-5.768-2.582-5.768-5.763c0-3.188,2.583-5.769,5.768-5.769S64.643,398.771,64.643,401.96z"/>
		</g>
		<g opacity="0.29">
			<path opacity="0.29" fill="#002AF5" enable-background="new    " d="M29.872,402.023c0,3.185-2.581,5.765-5.767,5.765
				c-3.185,0-5.767-2.58-5.767-5.765c0-3.189,2.583-5.771,5.767-5.771C27.292,396.254,29.872,398.834,29.872,402.023z"/>
		</g>
		<g opacity="0.29">
			<path opacity="0.29" fill="#002AF5" enable-background="new    " d="M30.282,368.443c0,3.187-2.581,5.767-5.766,5.767
				s-5.767-2.581-5.767-5.767c0-3.187,2.582-5.769,5.767-5.769S30.282,365.258,30.282,368.443z"/>
		</g>
		<g opacity="0.29">
			<path opacity="0.29" fill="#002AF5" enable-background="new    " d="M30.609,335.081c0,3.185-2.581,5.767-5.768,5.767
				c-3.184,0-5.765-2.582-5.765-5.767s2.581-5.765,5.765-5.765C28.028,329.316,30.609,331.896,30.609,335.081z"/>
		</g>
		<g opacity="0.29">
			<path opacity="0.29" fill="#002AF5" enable-background="new    " d="M97.25,334.656c0,3.185-2.581,5.765-5.766,5.765
				c-3.187,0-5.769-2.58-5.769-5.765c0-3.188,2.582-5.77,5.769-5.77C94.67,328.887,97.25,331.471,97.25,334.656z"/>
		</g>
		<g opacity="0.29">
			<path opacity="0.29" fill="#002AF5" enable-background="new    " d="M77.586,318.325c0,1.771-1.435,3.204-3.204,3.204
				c-1.768,0-3.204-1.437-3.204-3.204c0-1.769,1.437-3.205,3.204-3.205C76.152,315.121,77.586,316.559,77.586,318.325z"/>
		</g>
		<g opacity="0.29">
			<path opacity="0.29" fill="#002AF5" enable-background="new    " d="M44.784,318.246c0,1.77-1.433,3.204-3.205,3.204
				c-1.768,0-3.202-1.435-3.202-3.204s1.434-3.205,3.202-3.205C43.352,315.041,44.784,316.477,44.784,318.246z"/>
		</g>
		<g opacity="0.29">
			<path opacity="0.29" fill="#002AF5" enable-background="new    " d="M10.727,351.545c0,1.77-1.432,3.204-3.204,3.204
				c-1.768,0-3.202-1.435-3.202-3.204s1.435-3.205,3.202-3.205C9.294,348.34,10.727,349.775,10.727,351.545z"/>
		</g>
		<g opacity="0.29">
			<path opacity="0.29" fill="#002AF5" enable-background="new    " d="M41.484,415.623c1.77,0,3.205,1.438,3.205,3.205
				c0,1.77-1.435,3.204-3.205,3.204s-3.204-1.436-3.204-3.204C38.28,417.063,39.714,415.623,41.484,415.623z"/>
		</g>
		<g opacity="0.29">
			<path opacity="0.29" fill="#002AF5" enable-background="new    " d="M74.879,415.348c1.77,0,3.204,1.438,3.204,3.203
				c0,1.771-1.435,3.204-3.204,3.204c-1.77,0-3.205-1.435-3.205-3.204C71.675,416.785,73.109,415.348,74.879,415.348z"/>
		</g>
		<g opacity="0.29">
			<path opacity="0.29" fill="#002AF5" enable-background="new    " d="M108.878,382.232c1.772,0,3.205,1.438,3.205,3.203
				c0,1.771-1.433,3.205-3.205,3.205c-1.77,0-3.202-1.437-3.202-3.205C105.676,383.67,107.108,382.232,108.878,382.232z"/>
		</g>
		<g opacity="0.29">
			<path opacity="0.29" fill="#002AF5" enable-background="new    " d="M109.095,348.286c1.77,0,3.204,1.437,3.204,3.204
				c0,1.77-1.434,3.205-3.204,3.205s-3.205-1.437-3.205-3.205C105.89,349.723,107.325,348.286,109.095,348.286z"/>
		</g>
		<g opacity="0.29">
			<path opacity="0.29" fill="#002AF5" enable-background="new    " d="M5.174,383.258c1.119-1.373,3.136-1.578,4.508-0.46
				c1.372,1.119,1.577,3.134,0.458,4.507c-1.117,1.371-3.134,1.578-4.506,0.459C4.262,386.648,4.058,384.629,5.174,383.258z"/>
		</g>
	</g>
	<path fill="#002AF5" d="M66.368,368.094c0,4.955-4.017,8.973-8.971,8.973s-8.969-4.018-8.969-8.973
		c0-4.953,4.015-8.971,8.969-8.971S66.368,363.141,66.368,368.094z"/>
	<path fill="#002AF5" d="M83.028,351.434c0,4.955-4.017,8.971-8.972,8.971c-4.952,0-8.97-4.018-8.97-8.971
		c0-4.955,4.018-8.972,8.97-8.972C79.011,342.462,83.028,346.479,83.028,351.434z"/>
	<path fill="#002AF5" d="M83.455,384.754c0,4.955-4.015,8.973-8.972,8.973c-4.952,0-8.969-4.019-8.969-8.973
		s4.017-8.973,8.969-8.973C79.44,375.781,83.455,379.8,83.455,384.754z"/>
	<path fill="#002AF5" d="M49.708,385.184c0,4.949-4.017,8.969-8.971,8.969c-4.953,0-8.97-4.02-8.97-8.969
		c0-4.959,4.017-8.974,8.97-8.974C45.69,376.21,49.708,380.225,49.708,385.184z"/>
	<path fill="#002AF5" d="M49.281,351.434c0,4.955-4.017,8.971-8.971,8.971c-4.953,0-8.97-4.018-8.97-8.971
		c0-4.955,4.017-8.972,8.97-8.972C45.264,342.462,49.281,346.479,49.281,351.434z"/>
	<path fill="#002AF5" d="M62.868,334.891c0,3.186-2.581,5.764-5.767,5.764c-3.185,0-5.766-2.579-5.766-5.764
		c0-3.188,2.581-5.77,5.766-5.77C60.287,329.121,62.868,331.704,62.868,334.891z"/>
	<path fill="#002AF5" d="M96.97,368.376c0,3.187-2.583,5.767-5.767,5.767c-3.187,0-5.767-2.58-5.767-5.767
		c0-3.185,2.58-5.767,5.767-5.767C94.387,362.609,96.97,365.191,96.97,368.376z"/>
	<path fill="#002AF5" d="M96.864,401.895c0,3.186-2.58,5.766-5.765,5.766c-3.187,0-5.767-2.58-5.767-5.766s2.581-5.766,5.767-5.766
		C94.284,396.129,96.864,398.709,96.864,401.895z"/>
	<path fill="#002AF5" d="M63.91,401.96c0,3.181-2.582,5.763-5.767,5.763s-5.767-2.582-5.767-5.763c0-3.188,2.582-5.769,5.767-5.769
		S63.91,398.771,63.91,401.96z"/>
	<path fill="#002AF5" d="M29.139,402.023c0,3.185-2.581,5.765-5.767,5.765c-3.185,0-5.765-2.58-5.765-5.765
		c0-3.189,2.581-5.771,5.765-5.771C26.559,396.254,29.139,398.834,29.139,402.023z"/>
	<path fill="#002AF5" d="M29.551,368.443c0,3.187-2.583,5.767-5.768,5.767c-3.185,0-5.767-2.581-5.767-5.767
		c0-3.187,2.583-5.769,5.767-5.769C26.968,362.676,29.551,365.258,29.551,368.443z"/>
	<path fill="#002AF5" d="M29.876,335.081c0,3.185-2.581,5.767-5.765,5.767s-5.767-2.582-5.767-5.767s2.583-5.765,5.767-5.765
		S29.876,331.896,29.876,335.081z"/>
	<path fill="#002AF5" d="M96.518,334.656c0,3.185-2.581,5.765-5.766,5.765s-5.77-2.58-5.77-5.765c0-3.188,2.585-5.77,5.77-5.77
		S96.518,331.471,96.518,334.656z"/>
	<path fill="#002AF5" d="M76.854,318.325c0,1.771-1.435,3.204-3.205,3.204s-3.202-1.437-3.202-3.204
		c0-1.769,1.432-3.205,3.202-3.205S76.854,316.559,76.854,318.325z"/>
	<path fill="#002AF5" d="M44.052,318.246c0,1.77-1.435,3.204-3.203,3.204c-1.77,0-3.205-1.435-3.205-3.204s1.435-3.205,3.205-3.205
		C42.617,315.041,44.052,316.477,44.052,318.246z"/>
	<path fill="#002AF5" d="M9.996,351.545c0,1.77-1.436,3.204-3.204,3.204c-1.77,0-3.204-1.435-3.204-3.204s1.435-3.205,3.204-3.205
		C8.56,348.34,9.996,349.775,9.996,351.545z"/>
	<path fill="#002AF5" d="M40.751,415.623c1.771,0,3.205,1.438,3.205,3.205c0,1.77-1.433,3.204-3.205,3.204
		c-1.77,0-3.202-1.436-3.202-3.204C37.549,417.063,38.982,415.623,40.751,415.623z"/>
	<path fill="#002AF5" d="M74.146,415.348c1.77,0,3.204,1.438,3.204,3.203c0,1.771-1.434,3.204-3.204,3.204s-3.202-1.435-3.202-3.204
		C70.944,416.785,72.377,415.348,74.146,415.348z"/>
	<path fill="#002AF5" d="M108.146,382.232c1.771,0,3.205,1.438,3.205,3.203c0,1.771-1.433,3.205-3.205,3.205
		c-1.77,0-3.202-1.437-3.202-3.205C104.943,383.67,106.376,382.232,108.146,382.232z"/>
	<path fill="#002AF5" d="M108.362,348.286c1.77,0,3.204,1.437,3.204,3.204c0,1.77-1.434,3.205-3.204,3.205s-3.204-1.437-3.204-3.205
		C105.158,349.723,106.592,348.286,108.362,348.286z"/>
	<path fill="#002AF5" d="M4.441,383.258c1.119-1.373,3.138-1.578,4.51-0.46c1.37,1.119,1.575,3.134,0.458,4.507
		c-1.119,1.371-3.136,1.578-4.508,0.459C3.529,386.648,3.324,384.629,4.441,383.258z"/>
	<path fill="#231F20" d="M255.898,422.027l-30.789-46.738l-11.567,11.414v35.324h-21.41V318.249h21.41v42.201l39.702-42.201h28.135
		l-40.952,40.952l41.891,62.828h-26.42V422.027z"/>
	<path fill="#231F20" d="M370.461,341.54h-0.154l-13.292,41.261h26.419L370.461,341.54z M396.25,422.027l-6.568-21.408h-38.287
		l-7.354,21.408h-22.969l37.038-103.778h25.17l36.57,103.778H396.25L396.25,422.027z"/>
	<path fill="#002AF5" d="M462.358,318.253h21.729v103.779h-21.729V318.253z"/>
	<path fill="#231F20" d="M491.577,318.253h21.729v103.779h-21.729V318.253z"/>
	<path fill="#231F20" d="M605.162,422.027V320.682h8.662v93.449h49.067v7.898h-57.729V422.027z"/>
	<path fill="#231F20" d="M757.563,329.951l-23.85,59.263h47.86L757.563,329.951z M794.484,422.027l-10.026-24.92h-53.646
		l-10.025,24.92h-10.026l41.483-101.352h10.783l41.481,101.352H794.484L794.484,422.027z"/>
	<path fill="#231F20" d="M921.204,394.07c0-10.338-7.134-20.051-21.271-20.051h-32.518v40.105h32.518
		C913.31,414.126,921.204,406.373,921.204,394.07z M919.23,347.424c0-10.328-6.843-18.843-19.898-18.843h-31.915v37.53h31.915
		C912.39,366.111,919.23,357.906,919.23,347.424z M858.756,422.032V320.686h41.632c17.021,0,27.957,9.873,27.957,25.828
		c0,12.76-8.662,21.422-17.773,23.252c10.79,1.666,19.751,12.916,19.751,24.906c0,16.878-10.936,27.36-29.021,27.36H858.756
		L858.756,422.032z"/>
</g>
</svg>
