<?xml version="1.0" encoding="utf-8"?>
<!-- Generator: Adobe Illustrator 13.0.0, SVG Export Plug-In . SVG Version: 6.00 Build 14948)  -->
<!DOCTYPE svg PUBLIC "-//W3C//DTD SVG 1.1//EN" "http://www.w3.org/Graphics/SVG/1.1/DTD/svg11.dtd">
<svg version="1.1" id="Layer_1" xmlns="http://www.w3.org/2000/svg" xmlns:xlink="http://www.w3.org/1999/xlink" x="0px" y="0px"
	 width="1000.203px" height="991.068px" viewBox="0 0 1000.203 991.068" enable-background="new 0 0 1000.203 991.068"
	 xml:space="preserve">
<path fill="#FFFFFF" d="M581.531,491.425c0,45.898-37.205,83.114-83.103,83.114c-45.881,0-83.077-37.216-83.077-83.114
	c0-45.885,37.196-83.096,83.077-83.096C544.33,408.332,581.531,445.542,581.531,491.425z"/>
<path fill="#FFFFFF" d="M735.847,337.119c0,45.889-37.205,83.1-83.098,83.1c-45.879,0-83.094-37.223-83.094-83.1
	c0-45.898,37.215-83.108,83.094-83.108C698.642,254,735.847,291.218,735.847,337.119z"/>
<path fill="#FFFFFF" d="M739.808,645.759c0,45.898-37.193,83.122-83.111,83.122c-45.861,0-83.078-37.23-83.078-83.122
	s37.217-83.112,83.078-83.112C702.613,562.646,739.808,599.859,739.808,645.759z"/>
<path fill="#FFFFFF" d="M427.211,649.731c0,45.852-37.207,83.076-83.104,83.076c-45.874,0-83.079-37.222-83.079-83.076
	c0-45.919,37.207-83.112,83.079-83.112C389.987,566.606,427.211,603.813,427.211,649.731z"/>
<path fill="#FFFFFF" d="M423.257,337.119c0,45.889-37.217,83.1-83.096,83.1s-83.096-37.223-83.096-83.1
	c0-45.898,37.217-83.108,83.096-83.108C386.041,254,423.257,291.218,423.257,337.119z"/>
<path fill="#FFFFFF" d="M549.115,183.871c0,29.506-23.912,53.403-53.418,53.403c-29.507,0-53.417-23.908-53.417-53.403
	c0-29.521,23.908-53.437,53.417-53.437C525.203,130.432,549.115,154.35,549.115,183.871z"/>
<path fill="#FFFFFF" d="M864.996,494.052c0,29.519-23.928,53.421-53.418,53.421c-29.527,0-53.424-23.902-53.424-53.421
	c0-29.505,23.896-53.421,53.424-53.421C841.068,440.631,864.996,464.547,864.996,494.052z"/>
<path fill="#FFFFFF" d="M864.017,804.521c0,29.511-23.896,53.408-53.396,53.408c-29.525,0-53.424-23.897-53.424-53.408
	c0-29.495,23.908-53.398,53.424-53.398C840.119,751.117,864.017,775.026,864.017,804.521z"/>
<path fill="#FFFFFF" d="M558.763,805.137c0,29.472-23.918,53.374-53.424,53.374c-29.499,0-53.416-23.902-53.416-53.374
	c0-29.524,23.917-53.441,53.416-53.441C534.847,751.694,558.763,775.611,558.763,805.137z"/>
<path fill="#FFFFFF" d="M236.676,805.716c0,29.499-23.899,53.398-53.417,53.398c-29.499,0-53.398-23.899-53.398-53.398
	c0-29.547,23.899-53.44,53.398-53.44C212.777,752.274,236.676,776.173,236.676,805.716z"/>
<path fill="#FFFFFF" d="M240.494,494.661c0,29.52-23.927,53.421-53.425,53.421c-29.508,0-53.426-23.909-53.426-53.421
	c0-29.505,23.937-53.421,53.426-53.421C216.566,441.24,240.494,465.166,240.494,494.661z"/>
<path fill="#FFFFFF" d="M243.505,185.64c0,29.503-23.91,53.421-53.398,53.421c-29.499,0-53.425-23.918-53.425-53.421
	s23.926-53.402,53.425-53.402C219.597,132.238,243.505,156.137,243.505,185.64z"/>
<path fill="#FFFFFF" d="M860.806,181.704c0,29.499-23.9,53.398-53.406,53.398c-29.512,0-53.443-23.899-53.443-53.398
	c0-29.526,23.934-53.444,53.443-53.444C836.908,128.26,860.806,152.178,860.806,181.704z"/>
<path fill="#FFFFFF" d="M678.658,30.43c0,16.39-13.289,29.679-29.689,29.679c-16.391,0-29.648-13.298-29.648-29.679
	c0-16.376,13.258-29.69,29.648-29.69C665.369,0.74,678.658,14.054,678.658,30.43z"/>
<path fill="#FFFFFF" d="M374.815,29.689c0,16.395-13.288,29.679-29.663,29.679c-16.4,0-29.689-13.284-29.689-29.679
	C315.464,13.294,328.754,0,345.155,0C361.527,0.008,374.815,13.294,374.815,29.689z"/>
<path fill="#FFFFFF" d="M59.357,338.136c0,16.396-13.302,29.679-29.679,29.679C13.285,367.814,0,354.53,0,338.136
	c0-16.396,13.292-29.688,29.679-29.688C46.057,308.457,59.357,321.738,59.357,338.136z"/>
<path fill="#FFFFFF" d="M344.243,931.698c16.4,0,29.687,13.326,29.687,29.69c0,16.399-13.27,29.68-29.687,29.68
	c-16.401,0-29.663-13.279-29.663-29.68C314.58,945.024,327.86,931.698,344.243,931.698z"/>
<path fill="#FFFFFF" d="M653.583,929.128c16.391,0,29.672,13.327,29.672,29.685c0,16.398-13.281,29.679-29.672,29.679
	c-16.402,0-29.67-13.291-29.67-29.679C623.914,942.455,637.191,929.128,653.583,929.128z"/>
<path fill="#FFFFFF" d="M968.525,622.395c16.4,0,29.688,13.323,29.688,29.688c0,16.393-13.279,29.671-29.688,29.671
	c-16.4,0-29.672-13.291-29.672-29.671C938.853,635.718,952.125,622.395,968.525,622.395z"/>
<path fill="#FFFFFF" d="M970.513,307.959c16.402,0,29.689,13.302,29.689,29.679c0,16.391-13.287,29.687-29.689,29.687
	c-16.391,0-29.668-13.299-29.668-29.687C940.845,321.26,954.123,307.959,970.513,307.959z"/>
<path fill="#FFFFFF" d="M7.901,631.893c10.366-12.72,29.069-14.628,41.778-4.262c12.687,10.365,14.585,29.029,4.243,41.738
	c-10.365,12.711-29.051,14.628-41.76,4.262C-0.549,663.317-2.441,644.602,7.901,631.893z"/>
</svg>
