<svg xmlns="http://www.w3.org/2000/svg" xmlns:xlink="http://www.w3.org/1999/xlink" viewBox="0 0 171.22 81"><defs><style>.cls-1{fill:none;}.cls-2{fill:#ec1c24;}.cls-2,.cls-3,.cls-6{fill-rule:evenodd;}.cls-3,.cls-4{fill:#fff;}.cls-5{clip-path:url(#clip-path);}.cls-6{fill:#231f20;}.cls-7{clip-path:url(#clip-path-2);}</style><clipPath id="clip-path" transform="translate(2.68)"><rect class="cls-1" x="0.18" y="12.62" width="39.72" height="68.2" rx="19.86"/></clipPath><clipPath id="clip-path-2" transform="translate(2.68)"><rect class="cls-1" x="5.12" y="17.57" width="29.84" height="58.31" rx="14.92"/></clipPath></defs><g id="Layer_2" data-name="Layer 2"><g id="Layer_2-2" data-name="Layer 2"><path class="cls-2" d="M120.37,42.6l2.14-4.66a14.2,14.2,0,0,1,2.5,4.18h6.24V38.19c0-.65-.47-1-1.06-1,2.6-1.51,4.06-3,4.32-4.32v3.82h15.14c3.21,0,4.81,1.55,4.81,5.48h5.91c0-6,6-4.67,8.16-7.23V46.83h-43a6.77,6.77,0,0,1-2.58,4c-2.56,2-8-.83-11.6.41-.38.12-.66-.22-.25-.55,1.93-1.52,5.76-.17,8.39-1s4.62-5.05.88-7.14ZM96,30.11a1.47,1.47,0,1,1-1.46,1.46A1.47,1.47,0,0,1,96,30.11ZM85.3,46.83h25.09V30.6c0-.61.6-.73,1.32-.77a13.53,13.53,0,0,1-3.78-5.3V42.12H104.5V24.53a13.53,13.53,0,0,1-3.78,5.3c.72,0,1.32.16,1.32.77V42.12H96.13V34.94a13.53,13.53,0,0,1-3.78,5.31c.72,0,1.32.16,1.32.76v1.11H87.76V24.53A13.33,13.33,0,0,1,84,29.83c.73,0,1.32.16,1.32.77V46.83ZM55.68,42.12l1.41-4.57a8.51,8.51,0,0,1,2.07,4.57h6.18V41c0-.6-.6-.72-1.32-.76a13.63,13.63,0,0,0,3.78-5.31v7.18h5.9c0-6,6-4.67,8.17-7.23V46.83H59.23c-.5,2.93-2.18,5.39-5.72,5.39-4.77,0-6.5-4.88-5.55-8.17,1.32-4.59,5.09-9,2.42-12.69-.24-.32.12-.56.37-.22,3.37,4.62-.69,8.62-1,13-.2,2.57,1.16,4.29,3.41,4.29,4.11,0,3.88-4.8,2.55-6.33Zm23.46,0v-2.8l-.34.12c-1.59.55-2.37.85-2.37,2.68ZM66.61,48.05a1.46,1.46,0,1,0,1.46,1.46,1.46,1.46,0,0,0-1.46-1.46Zm-3.09,0A1.46,1.46,0,1,0,65,49.51a1.46,1.46,0,0,0-1.46-1.46ZM53.14,42.77a1.46,1.46,0,1,0,1.46,1.46,1.46,1.46,0,0,0-1.46-1.46ZM86.83,24.35a.84.84,0,0,1-.17.74,3.36,3.36,0,0,1-.6.58l-1.55,1.25c-.12-.43-.12-.69.54-1.23a2.5,2.5,0,0,1-.65-.29.89.89,0,0,1-.39-.5,2.49,2.49,0,0,1,.26-1.39c.28-.71.59-1.11.92-1.2a.51.51,0,0,1,.44.09.72.72,0,0,1,.3.46,1.24,1.24,0,0,1,0,.43,3.83,3.83,0,0,1-.07.51,1,1,0,0,0-.85-.18,1.1,1.1,0,0,0-.46.25c-.13.13-.19.25-.16.36s.26.29.68.43a1.65,1.65,0,0,0,1,.12,2.49,2.49,0,0,0,.35-.11,3.24,3.24,0,0,0,.38-.32Zm6.1,5.76a1.47,1.47,0,1,1-1.46,1.46,1.47,1.47,0,0,1,1.46-1.46Zm72.88,12v-2.8l-.35.12c-1.59.55-2.37.85-2.37,2.68Zm-14.58,0c0-1.74-.7-2.25-1.89-2.25H134.51v2.25Z" transform="translate(2.68)"/><path class="cls-2" d="M59.27,54.73v13H56V59l-1.31,8.78H52.38L51,59.16v8.58H47.71v-13h4.85c.13.79.28,1.71.44,2.77l.54,3.31.85-6.08Zm5.26,0v13H60.78v-13Zm9.43,4H70.48v-1a1.69,1.69,0,0,0-.14-.86.49.49,0,0,0-.44-.19.58.58,0,0,0-.51.25,1.39,1.39,0,0,0-.17.75,1.94,1.94,0,0,0,.2,1,2.85,2.85,0,0,0,1.06.8,10.54,10.54,0,0,1,3.14,2.2,4.69,4.69,0,0,1,.65,2.77,4.45,4.45,0,0,1-.36,2,2.71,2.71,0,0,1-1.4,1.1,6.65,6.65,0,0,1-5-.06,2.67,2.67,0,0,1-1.39-1.31,6.13,6.13,0,0,1-.33-2.26v-.85h3.48v1.58a1.86,1.86,0,0,0,.15.94.57.57,0,0,0,.51.21.63.63,0,0,0,.56-.27,1.38,1.38,0,0,0,.18-.78,2.24,2.24,0,0,0-.34-1.5,11.55,11.55,0,0,0-1.76-1.19,16,16,0,0,1-1.84-1.21,2.73,2.73,0,0,1-.75-1,4.14,4.14,0,0,1-.3-1.7,4.34,4.34,0,0,1,.42-2.18,2.77,2.77,0,0,1,1.37-1.08,5.88,5.88,0,0,1,2.27-.39,6.53,6.53,0,0,1,2.48.42A2.5,2.5,0,0,1,73.62,56,5.16,5.16,0,0,1,74,58.16v.52Zm1.49-4h2.66a23.11,23.11,0,0,1,3.59.18,2.55,2.55,0,0,1,1.53,1,4,4,0,0,1,.59,2.42,3.47,3.47,0,0,1-.42,2,2.29,2.29,0,0,1-1.65.63,2.84,2.84,0,0,1,1.5.66,1.91,1.91,0,0,1,.48.77,11.51,11.51,0,0,1,.09,1.93v3.43H80.34V63.41a2.76,2.76,0,0,0-.18-1.29c-.12-.17-.44-.25-1-.25v5.87H75.45v-13ZM79.21,57v2.9a1.82,1.82,0,0,0,.88-.16c.16-.1.25-.44.25-1V58a1,1,0,0,0-.24-.82,1.48,1.48,0,0,0-.89-.19Zm13-2.22v13H88.48v-13Zm9.86,0v13H98.82l-1.95-5.91v5.91H93.74v-13h3.13L99,60.59V54.73Zm9.43,4h-3.48v-1a1.72,1.72,0,0,0-.13-.86.5.5,0,0,0-.44-.19.56.56,0,0,0-.51.25,1.3,1.3,0,0,0-.18.75,1.94,1.94,0,0,0,.2,1,2.94,2.94,0,0,0,1.06.8,10.54,10.54,0,0,1,3.14,2.2,4.62,4.62,0,0,1,.65,2.77,4.45,4.45,0,0,1-.36,2,2.68,2.68,0,0,1-1.39,1.1,6.68,6.68,0,0,1-5-.06,2.71,2.71,0,0,1-1.39-1.31,6.13,6.13,0,0,1-.33-2.26v-.85h3.48v1.58a1.86,1.86,0,0,0,.15.94.59.59,0,0,0,.52.21.64.64,0,0,0,.56-.27,1.38,1.38,0,0,0,.18-.78,2.23,2.23,0,0,0-.35-1.5,11.27,11.27,0,0,0-1.75-1.19,17.47,17.47,0,0,1-1.85-1.21,2.84,2.84,0,0,1-.75-1,4.14,4.14,0,0,1-.3-1.7,4.22,4.22,0,0,1,.43-2.18,2.75,2.75,0,0,1,1.36-1.08,6,6,0,0,1,2.28-.39,6.56,6.56,0,0,1,2.48.42A2.54,2.54,0,0,1,111.2,56a5.2,5.2,0,0,1,.33,2.19v.52Zm10-4v8.7a13.69,13.69,0,0,1-.11,2.08,2.68,2.68,0,0,1-.63,1.23,3.3,3.3,0,0,1-1.38,1,5.88,5.88,0,0,1-2,.32,6.39,6.39,0,0,1-2.27-.38,3.49,3.49,0,0,1-1.48-1,2.61,2.61,0,0,1-.58-1.31c0-.45-.09-1.42-.09-2.89v-7.7h3.76v9.76a3.47,3.47,0,0,0,.1,1.09.4.4,0,0,0,.41.24.44.44,0,0,0,.45-.26,4.89,4.89,0,0,0,.1-1.24V54.73Zm1.46,0h2.65a23,23,0,0,1,3.59.18,2.55,2.55,0,0,1,1.53,1,4,4,0,0,1,.59,2.42,3.47,3.47,0,0,1-.42,2,2.26,2.26,0,0,1-1.64.63,2.84,2.84,0,0,1,1.49.66,1.91,1.91,0,0,1,.48.77,11.51,11.51,0,0,1,.09,1.93v3.43h-3.48V63.41a2.76,2.76,0,0,0-.18-1.29c-.12-.17-.44-.25-1-.25v5.87H123v-13ZM126.75,57v2.9a1.82,1.82,0,0,0,.88-.16c.17-.1.25-.44.25-1V58a1,1,0,0,0-.24-.82,1.48,1.48,0,0,0-.89-.19Zm12.53-2.22,2.14,13h-3.83l-.2-2.33H136l-.21,2.33H132l1.9-13Zm-2,8.37q-.27-2.2-.57-5.48c-.37,2.5-.6,4.33-.71,5.48Zm13.14-8.37v13h-3.28l-2-5.91v5.91h-3.13v-13h3.13l2.1,5.86V54.73Zm10.25,5.68h-3.75V58.15a3.65,3.65,0,0,0-.12-1.23c-.08-.17-.25-.25-.53-.25a.56.56,0,0,0-.58.3,4.26,4.26,0,0,0-.12,1.28v6a4,4,0,0,0,.12,1.24.55.55,0,0,0,.56.29.53.53,0,0,0,.54-.29,4.19,4.19,0,0,0,.13-1.37V62.53h3.75V63a9.15,9.15,0,0,1-.31,2.87,3,3,0,0,1-1.4,1.49,5.22,5.22,0,0,1-2.67.63,6,6,0,0,1-2.71-.54A2.68,2.68,0,0,1,152.17,66a8.93,8.93,0,0,1-.34-2.86v-3.8a15.71,15.71,0,0,1,.1-2.11,2.71,2.71,0,0,1,.64-1.35,3.45,3.45,0,0,1,1.47-1,5.75,5.75,0,0,1,2.16-.37,5.69,5.69,0,0,1,2.73.58,2.86,2.86,0,0,1,1.42,1.44,8,8,0,0,1,.33,2.68v1.24ZM162,54.73h6.25v2.6h-2.5v2.48h2.33v2.47h-2.33v2.86h2.75v2.6H162Z" transform="translate(2.68)"/><path class="cls-3" d="M9.42,51.71h1.85V7.34h.15a.56.56,0,0,0,.37-.15.51.51,0,0,0,.15-.36V6.19a.51.51,0,0,0-.15-.36.56.56,0,0,0-.37-.15h-.15V5.47L10.34,0,9.42,5.47v.21H9.26a.51.51,0,0,0-.51.51v.64a.51.51,0,0,0,.15.36h0a.51.51,0,0,0,.36.15h.16V51.71Z" transform="translate(2.68)"/><path class="cls-2" d="M9.61,51.52h1.47V7.15h.34l.13,0h0l.1-.07A.26.26,0,0,0,11.72,7h0a.5.5,0,0,0,0-.12V6.19a.5.5,0,0,0,0-.12h0A.44.44,0,0,0,11.65,6h0l-.1-.07h0l-.13,0h-.34V5.49l-.74-4.35L9.61,5.49v.38H9.26l-.12,0h0A.3.3,0,0,0,9,6.07H9a.5.5,0,0,0,0,.12v.64A.43.43,0,0,0,9,7,.41.41,0,0,0,9,7.06H9a.41.41,0,0,0,.11.07h0l.12,0h.35V51.52Zm1.66.38h-2V7.53A.86.86,0,0,1,9,7.47H9a.61.61,0,0,1-.23-.15h0a.61.61,0,0,1-.15-.23h0a.58.58,0,0,1,0-.26V6.19a.65.65,0,0,1,0-.27.66.66,0,0,1,.15-.22A.61.61,0,0,1,9,5.55a.86.86,0,0,1,.23-.06v0L10.16,0h.37l.92,5.44v0a.86.86,0,0,1,.23.06.57.57,0,0,1,.23.15h0a.86.86,0,0,1,.15.22h0a.75.75,0,0,1,0,.26v.64a.75.75,0,0,1,0,.26.76.76,0,0,1-.15.23.7.7,0,0,1-.23.15h0a.86.86,0,0,1-.23.06V51.9Z" transform="translate(2.68)"/><rect class="cls-4" x="2.86" y="12.62" width="39.72" height="68.2" rx="19.86"/><g class="cls-5"><polygon class="cls-6" points="11.77 42.68 9.91 58.49 0 62.26 0 8.98 46.02 8.98 45.09 62.12 35.53 58.49 35.53 42.13 23.81 21.82 11.77 42.68"/></g><path class="cls-6" d="M20,12.45h0a20.09,20.09,0,0,1,20,20V61A20.11,20.11,0,0,1,20,81h0A20.11,20.11,0,0,1,0,61V32.48a20.09,20.09,0,0,1,20-20Zm0,.35h0A19.75,19.75,0,0,0,.35,32.48V61A19.75,19.75,0,0,0,20,80.65h0A19.73,19.73,0,0,0,39.72,61V32.48A19.73,19.73,0,0,0,20,12.8Z" transform="translate(2.68)"/><rect class="cls-4" x="7.8" y="17.57" width="29.84" height="58.31" rx="14.92"/><g class="cls-7"><polygon class="cls-3" points="23.61 39.23 25.12 39.23 25.12 30.22 24.36 25.5 23.61 30.22 23.61 39.23"/><path class="cls-2" d="M21.11,39.05h1.14V30.24l-.57-3.57-.57,3.57v8.81Zm1.33.37h-1.7V30.2l.76-4.73h.36l.76,4.73v9.22Z" transform="translate(2.68)"/><rect class="cls-4" x="23.14" y="30.27" width="2.45" height="1.47" rx="0.47"/><path class="cls-2" d="M20.92,30.08h1.52a.69.69,0,0,1,.46.19.67.67,0,0,1,.19.47v.53a.67.67,0,0,1-.19.47.69.69,0,0,1-.46.19H20.92a.69.69,0,0,1-.46-.19.67.67,0,0,1-.19-.47v-.53a.67.67,0,0,1,.19-.47.69.69,0,0,1,.46-.19Zm1.52.38H20.92a.27.27,0,0,0-.28.28v.53a.27.27,0,0,0,.28.28h1.52a.27.27,0,0,0,.28-.28v-.53a.27.27,0,0,0-.28-.28Z" transform="translate(2.68)"/><path class="cls-3" d="M20,44.13l5.48,1.47a5.68,5.68,0,1,0-11.16-1.47,5.72,5.72,0,0,0,.49,2.3Z" transform="translate(2.68)"/><path class="cls-2" d="M20.09,44l5.29,1.42a3.29,3.29,0,0,0,.1-.53,5.42,5.42,0,0,0-1.56-4.59h0a5.49,5.49,0,0,0-9.37,3.88,5.35,5.35,0,0,0,.12,1.13h0a4.89,4.89,0,0,0,.28.92L20,44Zm5.38,1.83-5.42-1.46L14.92,46.6l-.17.07-.07-.17a5.83,5.83,0,0,1-.38-1.16,6.21,6.21,0,0,1-.12-1.21A5.85,5.85,0,0,1,15.89,40h0a5.85,5.85,0,0,1,8.29,0h0a5.86,5.86,0,0,1,1.72,4.15,6.47,6.47,0,0,1,0,.76,4.53,4.53,0,0,1-.15.75l-.05.18Z" transform="translate(2.68)"/><polygon class="cls-3" points="22.66 51.52 28.89 45.42 22.72 41.86 16.55 45.42 22.66 51.52"/><path class="cls-2" d="M20,51.26l5.93-5.8L20,42.07l-5.87,3.39,5.8,5.8Zm6.37-5.71L20.1,51.66l-.13.12-.13-.13-6.1-6.1-.18-.17.21-.12L20,41.7l.09-.06.09.06,6.17,3.56.22.12Z" transform="translate(2.68)"/><path class="cls-3" d="M20,48.35c.44,0,.8-1.78.8-4s-.36-4-.8-4-.8,1.79-.8,4S19.6,48.35,20,48.35Z" transform="translate(2.68)"/><path class="cls-2" d="M20,40.21c.32,0,.58.5.75,1.31a17.1,17.1,0,0,1,0,5.71c-.17.81-.43,1.31-.75,1.31s-.59-.5-.75-1.31a17.1,17.1,0,0,1,0-5.71c.16-.81.42-1.31.75-1.31Zm.38,1.39c-.12-.63-.26-1-.38-1s-.26.39-.39,1a16.86,16.86,0,0,0,0,5.55c.13.63.27,1,.39,1s.26-.39.38-1a16.16,16.16,0,0,0,0-5.55Z" transform="translate(2.68)"/><path class="cls-3" d="M20,46.18l2.35.63a2.23,2.23,0,0,0,.09-.63,2.44,2.44,0,0,0-4.88,0,2.65,2.65,0,0,0,.08.63Z" transform="translate(2.68)"/><path class="cls-2" d="M20.09,46l2.17.58v-.11a2.33,2.33,0,0,0,0-.29,2.24,2.24,0,0,0-.66-1.59h0a2.25,2.25,0,0,0-3.18,0h0a2.24,2.24,0,0,0-.66,1.59,2.53,2.53,0,0,0,0,.29l0,.11L20,46Zm2.26,1L20,46.37,17.73,47l-.18,0-.05-.18a3.4,3.4,0,0,1-.07-.34h0c0-.12,0-.23,0-.34a2.67,2.67,0,0,1,.77-1.86h0a2.62,2.62,0,0,1,3.71,0h0a2.67,2.67,0,0,1,.77,1.86,2,2,0,0,1,0,.34h0a3.43,3.43,0,0,1-.06.34l0,.18Z" transform="translate(2.68)"/><path class="cls-3" d="M25.48,45.33c-1.92.84-.19,0-.62-.33-.26-.2-.34-.47-.17-.6a.55.55,0,0,1,.43,0,.41.41,0,0,1,.36-.23.42.42,0,0,1,.36.23.55.55,0,0,1,.43,0c.16.13.09.4-.18.6C25.66,45.33,27.39,46.17,25.48,45.33Z" transform="translate(2.68)"/><path class="cls-2" d="M25.48,45.53c-.77.34-1,.39-1.1.23h0c-.05-.12,0-.22.14-.33h0l.16-.18h0l.07-.1a1.23,1.23,0,0,1-.2-.19.66.66,0,0,1-.13-.3h0a.4.4,0,0,1,.08-.32h0l.07-.07a.57.57,0,0,1,.28-.11H25a.86.86,0,0,1,.14-.13h0a.56.56,0,0,1,.31-.09.53.53,0,0,1,.3.09h0a.58.58,0,0,1,.14.13h.18a.54.54,0,0,1,.28.11h0l.08.07h0a.44.44,0,0,1,.08.32.81.81,0,0,1-.14.3,1.7,1.7,0,0,1-.19.19s0,.05.06.1h0l.16.18h0c.12.11.2.21.14.33h0c-.07.16-.33.11-1.09-.23Zm-.76.08,0,0s0-.07,0,0Zm.34-.26a2.06,2.06,0,0,1,.34-.19l.08,0,.07,0a2.06,2.06,0,0,1,.34.19.36.36,0,0,1,.09-.5h0a.68.68,0,0,0,.12-.12.33.33,0,0,0,.07-.13h0s0,0,0,0h0l-.09,0-.17,0-.14,0-.08-.13a.31.31,0,0,0-.09-.11h0a.29.29,0,0,0-.1,0,.35.35,0,0,0-.11,0h0a.48.48,0,0,0-.09.11l-.07.13-.14,0-.18,0-.09,0h0s0,0,0,0h0a.3.3,0,0,0,.06.13.68.68,0,0,0,.12.12.35.35,0,0,1,.09.5Zm1.17.26s0,0,0,0Z" transform="translate(2.68)"/><path class="cls-3" d="M14.6,45.33c1.92.84.18,0,.62-.33.26-.2.34-.47.17-.6a.55.55,0,0,0-.43,0,.42.42,0,0,0-.36-.23.41.41,0,0,0-.36.23.55.55,0,0,0-.43,0c-.17.13-.09.4.17.6C14.41,45.33,12.68,46.17,14.6,45.33Z" transform="translate(2.68)"/><path class="cls-2" d="M14.68,45.16a1.6,1.6,0,0,1,.33.19.36.36,0,0,1,.09-.5.77.77,0,0,0,.13-.12.49.49,0,0,0,.06-.13h0s0,0,0,0h0l-.08,0-.18,0-.14,0-.07-.13a.32.32,0,0,0-.1-.1.18.18,0,0,0-.1,0,.29.29,0,0,0-.1,0,.52.52,0,0,0-.1.11l-.07.13-.14,0-.18,0-.09,0h0v0h0a.3.3,0,0,0,.06.13.77.77,0,0,0,.13.12h0a.36.36,0,0,1,.09.5,1.6,1.6,0,0,1,.33-.19l.08,0,.08,0Zm.65.47,0,0s0,0,0,0Zm.36.13c-.07.16-.33.11-1.09-.23-.76.34-1,.39-1.09.23h0c-.05-.12,0-.22.14-.33h0a.9.9,0,0,0,.16-.18h0s.08-.1.07-.1a1.13,1.13,0,0,1-.19-.19.68.68,0,0,1-.14-.3.4.4,0,0,1,.08-.32h0l.08-.07h0a.5.5,0,0,1,.28-.11h.17a.86.86,0,0,1,.14-.13h0a.59.59,0,0,1,.31-.09.56.56,0,0,1,.31.09l.14.13h.17a.54.54,0,0,1,.28.11l.08.07h0a.44.44,0,0,1,.08.32h0a.68.68,0,0,1-.14.3,1.13,1.13,0,0,1-.19.19s0,.05.07.1a.9.9,0,0,0,.16.18h0c.11.11.19.21.13.33Zm-1.83-.13v0Z" transform="translate(2.68)"/><path class="cls-3" d="M23.38,48.38l4.14,1.89V47.15a2.11,2.11,0,0,0-4.14-.55Z" transform="translate(2.68)"/><path class="cls-2" d="M23.56,48.26,27.34,50V47.15a2,2,0,0,0-.56-1.36h0a1.89,1.89,0,0,0-1.36-.56,1.94,1.94,0,0,0-1.17.39,2,2,0,0,0-.68,1v1.63Zm3.89,2.18-4.15-1.9-.11,0V46.56A2.25,2.25,0,0,1,24,45.33a2.28,2.28,0,0,1,3,.2h0a2.3,2.3,0,0,1,.67,1.62v3.41Z" transform="translate(2.68)"/><path class="cls-3" d="M16.7,48.38l-4.15,1.89V47.15a2.11,2.11,0,0,1,4.15-.55Z" transform="translate(2.68)"/><path class="cls-2" d="M16.78,48.54l-4.15,1.9-.26.12V47.15A2.26,2.26,0,0,1,13,45.53h0a2.27,2.27,0,0,1,1.62-.68,2.3,2.3,0,0,1,1.4.48,2.25,2.25,0,0,1,.82,1.23v1.93l-.11,0Zm-4,1.44,3.77-1.72V46.63a1.92,1.92,0,0,0-.68-1,1.94,1.94,0,0,0-2.53.17h0a1.91,1.91,0,0,0-.56,1.36Z" transform="translate(2.68)"/><path class="cls-3" d="M29.6,52l-2.08-1.45V48.71a1,1,0,0,1,2.08,0Z" transform="translate(2.68)"/><path class="cls-2" d="M29.5,52.17l-2.08-1.45-.08,0v-2a1.23,1.23,0,1,1,2.45,0v3.67l-.29-.21Zm-1.79-1.7,1.71,1.19V48.71a.84.84,0,0,0-.86-.85.86.86,0,0,0-.6.24.89.89,0,0,0-.25.61Z" transform="translate(2.68)"/><path class="cls-3" d="M10.47,52l2.08-1.45V48.71a1,1,0,0,0-2.08,0Z" transform="translate(2.68)"/><path class="cls-2" d="M10.66,51.66l1.71-1.19V48.71a.84.84,0,0,0-.86-.85.86.86,0,0,0-.6.24.89.89,0,0,0-.25.61v2.95Zm2-.94-2.08,1.45-.29.21V48.71a1.19,1.19,0,0,1,.36-.87,1.23,1.23,0,0,1,2.09.87v2Z" transform="translate(2.68)"/><path class="cls-3" d="M9.42,51.71h1.85V7.34h.15a.56.56,0,0,0,.37-.15.51.51,0,0,0,.15-.36V6.19a.51.51,0,0,0-.15-.36.56.56,0,0,0-.37-.15h-.15V5.47L10.34,0,9.42,5.47v.21H9.26a.51.51,0,0,0-.51.51v.64a.51.51,0,0,0,.15.36h0a.51.51,0,0,0,.36.15h.16V51.71Z" transform="translate(2.68)"/><path class="cls-2" d="M9.61,51.52h1.47V7.15h.34l.13,0h0l.1-.07A.26.26,0,0,0,11.72,7h0a.5.5,0,0,0,0-.12V6.19a.5.5,0,0,0,0-.12h0A.44.44,0,0,0,11.65,6h0l-.1-.07h0l-.13,0h-.34V5.49l-.74-4.35L9.61,5.49v.38H9.26l-.12,0h0A.3.3,0,0,0,9,6.07H9a.5.5,0,0,0,0,.12v.64A.43.43,0,0,0,9,7,.41.41,0,0,0,9,7.06H9a.41.41,0,0,0,.11.07h0l.12,0h.35V51.52Zm1.66.38h-2V7.53A.86.86,0,0,1,9,7.47H9a.61.61,0,0,1-.23-.15h0a.61.61,0,0,1-.15-.23h0a.58.58,0,0,1,0-.26V6.19a.65.65,0,0,1,0-.27.66.66,0,0,1,.15-.22A.61.61,0,0,1,9,5.55a.86.86,0,0,1,.23-.06v0L10.16,0h.37l.92,5.44v0a.86.86,0,0,1,.23.06.57.57,0,0,1,.23.15h0a.86.86,0,0,1,.15.22h0a.75.75,0,0,1,0,.26v.64a.75.75,0,0,1,0,.26.76.76,0,0,1-.15.23.7.7,0,0,1-.23.15h0a.86.86,0,0,1-.23.06V51.9Z" transform="translate(2.68)"/><rect class="cls-4" x="11.53" y="25.1" width="2.99" height="1.97" rx="0.67"/><path class="cls-2" d="M9.51,24.92h1.66a.85.85,0,0,1,.61.25h0a.85.85,0,0,1,.25.6v.64a.86.86,0,0,1-.25.6.89.89,0,0,1-.61.25H9.51a.88.88,0,0,1-.6-.25h0a.86.86,0,0,1-.25-.6v-.64a.86.86,0,0,1,.25-.6h0a.84.84,0,0,1,.6-.25Zm1.66.37H9.51a.44.44,0,0,0-.33.14h0a.52.52,0,0,0-.14.34v.64a.49.49,0,0,0,.15.34h0a.48.48,0,0,0,.33.14h1.66a.5.5,0,0,0,.34-.14.48.48,0,0,0,.14-.34v-.64a.48.48,0,0,0-.14-.34h0A.46.46,0,0,0,11.17,25.29Z" transform="translate(2.68)"/><rect class="cls-4" x="11.53" y="35.11" width="2.99" height="1.97" rx="0.67"/><path class="cls-2" d="M9.51,34.93h1.66a.85.85,0,0,1,.61.25h0a.86.86,0,0,1,.25.6v.64a.86.86,0,0,1-.25.6.85.85,0,0,1-.61.25H9.51a.84.84,0,0,1-.6-.25h0a.86.86,0,0,1-.25-.6v-.64a.86.86,0,0,1,.25-.6h0a.84.84,0,0,1,.6-.25Zm1.66.37H9.51a.48.48,0,0,0-.33.14h0a.52.52,0,0,0-.14.34v.64a.49.49,0,0,0,.15.34h0a.48.48,0,0,0,.33.14h1.66a.5.5,0,0,0,.34-.14.48.48,0,0,0,.14-.34v-.64a.48.48,0,0,0-.14-.34h0A.5.5,0,0,0,11.17,35.3Z" transform="translate(2.68)"/><path class="cls-3" d="M30.66,51.5H29.6V46.9a.53.53,0,0,1,.53-.53h0a.53.53,0,0,1,.53.53Z" transform="translate(2.68)"/><path class="cls-2" d="M30.66,51.69H29.42V46.9a.72.72,0,0,1,.21-.51h0a.71.71,0,0,1,1,0h0a.72.72,0,0,1,.21.51v4.79Zm-.87-.37h.69V46.9a.35.35,0,0,0-.1-.24h0a.33.33,0,0,0-.24-.1.35.35,0,0,0-.24.1h0a.35.35,0,0,0-.1.24Z" transform="translate(2.68)"/><polygon class="cls-2" points="35.55 73.44 22.74 76.13 22.63 76.15 22.63 76.04 22.63 45.03 22.63 44.98 22.72 44.93 22.77 44.95 33.38 51.08 33.43 51.11 33.43 51.16 33.43 58.94 35.35 58.45 35.51 58.41 35.54 58.4 35.62 58.43 35.62 58.49 35.62 73.35 35.62 73.42 35.55 73.44"/><path class="cls-2" d="M32.89,73.52,20.07,76.21l-.1,0-.11,0V44.93l0,0,.09,0,.05,0,0,0,.05,0L30.74,51l.05,0,0,0v7.77l1.81-.47.17,0h.08l.08,0,.06,0V73.49l-.07,0ZM20,76l12.81-2.69V58.49l-.16,0-1.93.5-.11,0V51.16L20,45Z" transform="translate(2.68)"/><polygon class="cls-3" points="22.81 75.93 35.45 73.28 35.45 58.6 33.36 59.14 33.25 59.17 33.25 59.05 33.25 51.21 22.81 45.18 22.81 75.93"/><polygon class="cls-2" points="22.7 76.13 9.89 73.44 9.82 73.42 9.82 73.35 9.82 58.49 9.82 58.43 9.91 58.4 9.93 58.41 10.25 58.49 12.02 58.94 12.02 51.16 12.02 51.11 12.06 51.08 22.68 44.95 22.72 44.93 22.72 44.93 22.81 44.98 22.81 45.03 22.81 76.04 22.81 76.15 22.7 76.13"/><path class="cls-2" d="M20,76.21,7.19,73.52H7.12l-.07,0V58.37l.06,0,.08,0h.08l.32.08,1.66.43V51.06l0,0,0,0L20,44.88l0,0,0,0,0-.06h0v.06l0,0,.09,0,0,0V76.26l-.11,0-.11,0ZM7.23,73.35,20,76V45L9.42,51.16h0v7.89l-.11,0-1.77-.46-.31-.08h0Z" transform="translate(2.68)"/><path class="cls-2" d="M31.6,76.47l-6.85.11V57.71a1,1,0,0,1,.51.68.34.34,0,0,0-.17.33c0,.17.1.29.35.38s.33,0,.35-.14a.63.63,0,0,0-.17-.44c0-.25.28-.36.5-.34a1,1,0,0,1,.51.68.33.33,0,0,0-.17.32c0,.18.1.3.35.39s.33,0,.35-.15A.63.63,0,0,0,27,59c0-.25.28-.36.5-.34a1,1,0,0,1,.5.68.34.34,0,0,0-.16.32c0,.18.1.3.35.38s.33,0,.35-.14a.66.66,0,0,0-.17-.44c0-.24.28-.35.5-.33a1,1,0,0,1,.51.68.32.32,0,0,0-.17.32c0,.18.1.3.35.38s.33,0,.35-.14a.65.65,0,0,0-.17-.44c0-.24.28-.35.5-.33a1,1,0,0,1,.51.68.32.32,0,0,0-.17.32c0,.18.1.3.35.38s.33,0,.35-.14a.63.63,0,0,0-.17-.44c0-.24.28-.36.5-.33Z" transform="translate(2.68)"/><path class="cls-3" d="M8.47,76.47l6.85.11V57.71a1,1,0,0,0-.5.68.38.38,0,0,1,.17.33.45.45,0,0,1-.35.38c-.25.08-.33,0-.35-.14a.66.66,0,0,1,.16-.44c0-.25-.27-.36-.5-.34a1,1,0,0,0-.5.68.37.37,0,0,1,.17.32.45.45,0,0,1-.35.39c-.25.08-.33,0-.35-.15a.66.66,0,0,1,.16-.43c0-.25-.27-.36-.5-.34a1,1,0,0,0-.5.68.37.37,0,0,1,.17.32.43.43,0,0,1-.35.38c-.25.09-.33,0-.35-.14a.69.69,0,0,1,.16-.44c0-.24-.27-.35-.5-.33a1,1,0,0,0-.5.68.36.36,0,0,1,.17.32.43.43,0,0,1-.35.38c-.25.09-.33,0-.35-.14a.68.68,0,0,1,.16-.44c0-.24-.27-.35-.5-.33a1,1,0,0,0-.5.68.35.35,0,0,1,.17.32.43.43,0,0,1-.35.38c-.25.09-.33,0-.35-.14A.66.66,0,0,1,9,60.39c0-.24-.27-.36-.5-.33Z" transform="translate(2.68)"/><path class="cls-3" d="M24.15,76.08l.6-.18V57.71a1,1,0,0,0-.5.68.36.36,0,0,1,.17.33.41.41,0,0,1-.27.35Z" transform="translate(2.68)"/><path class="cls-2" d="M15.93,76.08l-.61-.18V57.71a1,1,0,0,1,.5.68.35.35,0,0,0-.16.33.41.41,0,0,0,.27.35Z" transform="translate(2.68)"/><path class="cls-2" d="M24.15,77.1,20,76.92V53.4a1,1,0,0,1,.5.68.36.36,0,0,0-.17.32.43.43,0,0,0,.35.38c.25.09.33,0,.35-.14a.69.69,0,0,0-.16-.44c0-.24.27-.35.5-.33a1,1,0,0,1,.5.68.35.35,0,0,0-.17.32.43.43,0,0,0,.35.38c.25.09.33,0,.35-.14a.68.68,0,0,0-.16-.44c0-.24.27-.35.5-.33a1,1,0,0,1,.5.67.38.38,0,0,0-.17.33.44.44,0,0,0,.35.38c.26.09.33,0,.35-.14a.66.66,0,0,0-.16-.44c0-.24.27-.36.5-.33Z" transform="translate(2.68)"/><path class="cls-3" d="M15.93,77.1,20,76.92V53.4a1,1,0,0,0-.5.68.33.33,0,0,1,.16.32c0,.18-.1.3-.35.38s-.32,0-.35-.14a.79.79,0,0,1,.17-.44c0-.24-.28-.35-.5-.33a1,1,0,0,0-.5.68.32.32,0,0,1,.16.32c0,.18-.1.3-.35.38s-.32,0-.35-.14a.77.77,0,0,1,.17-.44c0-.24-.28-.35-.5-.33a1,1,0,0,0-.5.67.35.35,0,0,1,.16.33.42.42,0,0,1-.35.38c-.25.09-.32,0-.35-.14a.74.74,0,0,1,.17-.44c0-.24-.28-.36-.5-.33Z" transform="translate(2.68)"/><polygon class="cls-2" points="35.45 72.45 35.45 58.49 35.45 58.42 35.54 58.4 35.57 58.41 35.7 58.46 39.14 59.77 39.2 59.79 39.2 59.85 39.2 72.76 39.2 72.86 39.1 72.85 35.53 72.54 35.45 72.53 35.45 72.45"/><path class="cls-2" d="M32.67,72.45V58.35h.07l.09,0h.08l.14.05,3.44,1.3h0l0,0,.06,0V73h-.19l-3.58-.31h-.16v-.16Zm.18-14v14l3.57.31V59.85L33,58.54l-.13,0Zm0,0Z" transform="translate(2.68)"/><polygon class="cls-3" points="35.62 58.62 35.62 72.37 39.02 72.67 39.02 59.91 35.62 58.62"/><polygon class="cls-2" points="10 58.49 10 72.45 10 72.53 9.92 72.54 6.34 72.85 6.25 72.86 6.25 72.76 6.25 59.85 6.25 59.79 6.31 59.77 9.55 58.53 9.88 58.41 9.91 58.4 10 58.42 10 58.49"/><path class="cls-2" d="M7.4,58.49V72.61H7.24l-3.57.31H3.48V59.73l0,0,.06,0h0l3.24-1.23.33-.12h.08l.1,0H7.4v.14Zm-.17,14v-14l-.34.13L3.65,59.85V72.76Z" transform="translate(2.68)"/><polygon class="cls-3" points="9.82 72.37 9.82 58.62 6.42 59.91 6.42 72.67 9.82 72.37"/></g><path class="cls-6" d="M20,17.39h0A15.08,15.08,0,0,1,30.7,21.82h0a15,15,0,0,1,4.43,10.66V61A15,15,0,0,1,30.7,71.62h0A15,15,0,0,1,20,76.06h0A15,15,0,0,1,9.38,71.62h0A15,15,0,0,1,4.94,61V32.48A15,15,0,0,1,9.38,21.82h0A15.06,15.06,0,0,1,20,17.39Zm0,.35h0A14.69,14.69,0,0,0,9.63,22.07h0A14.7,14.7,0,0,0,5.3,32.48V61A14.69,14.69,0,0,0,9.63,71.37h0A14.69,14.69,0,0,0,20,75.7h0a14.7,14.7,0,0,0,10.41-4.33h0A14.69,14.69,0,0,0,34.78,61V32.48a14.7,14.7,0,0,0-4.33-10.41h0A14.7,14.7,0,0,0,20,17.74Z" transform="translate(2.68)"/><path class="cls-6" d="M4.66,71.4a.27.27,0,0,1-.44.3A19.12,19.12,0,0,1,.9,61V55a.27.27,0,1,1,.53,0v6a18.6,18.6,0,0,0,.82,5.46,18.37,18.37,0,0,0,2.41,5ZM38.65,55a.26.26,0,0,1,.26-.27.27.27,0,0,1,.27.27v6a19,19,0,0,1-.85,5.61,19.3,19.3,0,0,1-2.47,5.13.27.27,0,1,1-.44-.3,18.81,18.81,0,0,0,2.41-5A18.6,18.6,0,0,0,38.65,61V55ZM5.37,70.69A17.47,17.47,0,0,1,2.42,61V55a.27.27,0,1,0-.53,0v6a18.13,18.13,0,0,0,.77,5.23A17.87,17.87,0,0,0,4.93,71a.26.26,0,0,0,.36.08.26.26,0,0,0,.08-.37ZM37.66,55v6A17.39,17.39,0,0,1,36.91,66a17.72,17.72,0,0,1-2.2,4.65.26.26,0,1,0,.44.29,18.15,18.15,0,0,0,2.26-4.79A17.8,17.8,0,0,0,38.19,61V55a.27.27,0,1,0-.53,0ZM6.8,69.27a15.77,15.77,0,0,1-1.79-4A15.39,15.39,0,0,1,4.4,61V55a.27.27,0,0,0-.27-.27.26.26,0,0,0-.26.27v6a16.06,16.06,0,0,0,2.48,8.59.27.27,0,0,0,.37.08.26.26,0,0,0,.08-.36ZM35.68,55v6a15.39,15.39,0,0,1-.61,4.32,15.77,15.77,0,0,1-1.79,4,.26.26,0,1,0,.44.28,16.47,16.47,0,0,0,1.86-4.12A16.09,16.09,0,0,0,36.21,61V55a.27.27,0,1,0-.53,0ZM6.08,70a16.56,16.56,0,0,1-2.67-9V55a.27.27,0,1,0-.53,0v6a17,17,0,0,0,2.76,9.31.28.28,0,0,0,.37.08A.27.27,0,0,0,6.08,70ZM36.67,55v6A16.46,16.46,0,0,1,34,70a.27.27,0,0,0,.08.37.28.28,0,0,0,.37-.08,17.75,17.75,0,0,0,2.06-4.46A17.28,17.28,0,0,0,37.2,61V55a.27.27,0,1,0-.53,0Z" transform="translate(2.68)"/><path class="cls-3" d="M4.1,56.92a.44.44,0,0,1-.25.84L.94,56.9a.44.44,0,0,1,.24-.85l2.92.87Zm.2-4.21a.46.46,0,0,1,.23.59.44.44,0,0,1-.58.22l-3-1.3a.45.45,0,0,1-.23-.58.44.44,0,0,1,.59-.23l3,1.3Zm0-4.14a.45.45,0,0,1,.1.62.44.44,0,0,1-.61.1L.91,47.22a.43.43,0,0,1-.1-.61.43.43,0,0,1,.61-.1l2.87,2.06Zm-.08-4.5a.44.44,0,1,1-.59.65l-2.7-2.4a.44.44,0,0,1,.59-.66l2.7,2.41Zm.09-4.53a.43.43,0,0,1,0,.62.44.44,0,0,1-.62,0L.77,37.25a.44.44,0,1,1,.62-.62L4.3,39.54Zm-.13-4.61a.44.44,0,0,1-.71.52L.88,32a.44.44,0,0,1,.71-.52l2.58,3.47Zm.33-5.2a.44.44,0,0,1-.75.45l-2-3.41a.44.44,0,0,1,.16-.6.44.44,0,0,1,.6.16l2,3.4Zm1.65-4.64a.44.44,0,0,1-.21.58.44.44,0,0,1-.59-.21L3.8,22.17a.44.44,0,0,1,.8-.37l1.55,3.29Zm2.54-3.53a.44.44,0,1,1-.84.26l-1-3.22a.44.44,0,0,1,.3-.54.43.43,0,0,1,.54.29l1,3.21ZM11.75,19a.45.45,0,0,1-.34.53.45.45,0,0,1-.53-.34l-.65-3a.42.42,0,0,1,.33-.52.45.45,0,0,1,.53.34l.66,3Zm4.11-1.8a.44.44,0,1,1-.88.07l-.25-3.06a.44.44,0,1,1,.88-.07l.25,3.06Zm4.62-.53a.44.44,0,0,1-.44.44.44.44,0,0,1-.44-.44V13.51a.44.44,0,0,1,.44-.45.45.45,0,0,1,.44.45v3.17ZM36.23,57.76a.44.44,0,0,1-.55-.3.43.43,0,0,1,.3-.54l2.91-.87a.44.44,0,1,1,.25.85l-2.91.86Zm-.1-4.24a.44.44,0,1,1-.35-.81l3-1.3a.44.44,0,0,1,.36.81l-3,1.3Zm.17-4.23a.45.45,0,0,1-.62-.1.46.46,0,0,1,.1-.62l2.88-2.06a.43.43,0,0,1,.61.1.44.44,0,0,1-.1.61L36.3,49.29Zm.15-4.57a.43.43,0,0,1-.62,0,.44.44,0,0,1,0-.62l2.7-2.41a.44.44,0,1,1,.58.66l-2.7,2.4Zm-.05-4.56a.45.45,0,0,1-.63,0,.44.44,0,0,1,0-.62l2.91-2.91a.45.45,0,0,1,.63,0,.44.44,0,0,1,0,.62L36.4,40.16Zm.21-4.71a.44.44,0,1,1-.7-.52l2.58-3.47a.44.44,0,0,1,.62-.09.44.44,0,0,1,.09.61l-2.59,3.47Zm-.28-5.27a.43.43,0,0,1-.6.15.44.44,0,0,1-.16-.6l2-3.4a.44.44,0,0,1,.6-.16.44.44,0,0,1,.16.6l-2,3.41Zm-1.61-4.72a.44.44,0,0,1-.59.21.44.44,0,0,1-.21-.58l1.56-3.29a.44.44,0,0,1,.79.37l-1.55,3.29Zm-2.49-3.64a.44.44,0,1,1-.84-.26l1-3.21a.44.44,0,0,1,.55-.29.43.43,0,0,1,.29.54l-1,3.22Zm-3-2.62a.44.44,0,0,1-.52.34.45.45,0,0,1-.34-.53L29,16a.44.44,0,0,1,.52-.34.44.44,0,0,1,.34.52l-.66,3ZM25.1,17.28a.45.45,0,0,1-.48.41.45.45,0,0,1-.4-.48l.25-3.06a.44.44,0,0,1,.48-.41.45.45,0,0,1,.4.48Z" transform="translate(2.68)"/><path class="cls-2" d="M19.69,78.94a.28.28,0,0,1,.28.23.24.24,0,0,1-.27.21.28.28,0,0,1-.28-.24c0-.12.12-.21.27-.2ZM15,78.76l.18-1.18c0-.4.11-.8.17-1.19,0-.09-.09-.14-.2-.18a1.57,1.57,0,0,0,.71-.6c-.05.43-.1.86-.16,1.29s-.11.86-.16,1.3l.38.09c.05-.43.1-.86.14-1.29s.1-.87.14-1.3a2.28,2.28,0,0,0,.55.92c-.12,0-.22,0-.23.07,0,.4-.07.8-.11,1.2s-.07.8-.11,1.2c-.43-.1-.87-.21-1.3-.33Zm2.22.51c0-.4.05-.81.07-1.21l.06-1.2c0-.09.11-.09.23-.08a2.16,2.16,0,0,1-.58-.9l-.12,1.65-.12,1.65.46.09ZM7.71,74.59c.17-.33.34-.66.52-1l.51-1c0-.07,0-.14-.08-.21a1.27,1.27,0,0,0,.7-.3l-.55,1.07-.54,1.07a26.1,26.1,0,0,0,5.07,3.18A.58.58,0,0,1,14,77a2,2,0,0,0,.87-.06c-.05.29-.09.58-.14.87s-.09.58-.14.87a22.14,22.14,0,0,1-3.88-1.76,22.59,22.59,0,0,1-3-2.28Zm-.3-1.15c0,.31-.27.9-.67.49a.64.64,0,0,1,0-.84,4.53,4.53,0,0,1,.62-.55,1.11,1.11,0,0,0,.39-.85c0-.06,0-.06,0,0a1,1,0,0,1-.4.72c-.22.17-.49.31-.71.51a1.13,1.13,0,0,0-.33.68.92.92,0,0,0,.27.81c.39.41.77.21,1-.16A1.94,1.94,0,0,0,7.85,73l-.44.4Zm-.28-.17a.27.27,0,0,1,0,.31.13.13,0,0,1-.23,0,.29.29,0,0,1,0-.32.15.15,0,0,1,.24,0Zm7.12,4.52c0-.14,0-.27.07-.41h-.07c-.28,0-.41,0-.46.24l.46.17Zm19.42-4-.42-.57c-.35-.48-.62-.54-.89-.3-.53.48-1.11,1-1.72,1.45.07.13.15.26.22.4.63-.48,1.21-1,1.75-1.43.11-.09.21-.09.36.13a35.15,35.15,0,0,1-4.67,3.28c-.21-.51-.5-.58-.95-.37a21.65,21.65,0,0,1-2.26.88c-.05-.17-.1-.35-.14-.53,0,.21-.17.47-.54.81.1,0,.19,0,.21.1s.09.37.14.55a24.42,24.42,0,0,1-4,.65,1.34,1.34,0,0,0-.43-.7l-.21.7a.54.54,0,0,1-.44.94.64.64,0,0,1-.67-.7,4.29,4.29,0,0,1,.33-.95,1,1,0,0,0-.19-1c0-.05-.1,0-.06,0a.82.82,0,0,1,.07.91c-.13.31-.35.63-.48,1a.89.89,0,0,0,.12.81,1.25,1.25,0,0,0,1,.52.88.88,0,0,0,1.05-.81,23,23,0,0,0,7.67-2.2,28.81,28.81,0,0,0,5.13-3.56ZM27.85,77q-1.22.57-2.55,1l-.09-.32c.78-.27,1.54-.56,2.26-.89C27.64,76.76,27.77,76.77,27.85,77Z" transform="translate(2.68)"/></g></g></svg>