<svg xmlns="http://www.w3.org/2000/svg" viewBox="0 0 142.57 43"><defs><style>.cls-1{fill:#000f9f;}.cls-2{fill:#ff4d00;}</style></defs><g id="Layer_2" data-name="Layer 2"><g id="Layer_2-2" data-name="Layer 2"><path class="cls-1" d="M62.17,12.13A5.28,5.28,0,0,0,56.91,7H56.7a1.94,1.94,0,0,0-1.93,1.94v6.44c0,.94,0,1.75,0,3,0,2.21-.09,3.49-2.31,4.81a4,4,0,0,1-4.15-.23c-1.4-1-1.52-2.36-1.52-4.06,0-2,0-3.91,0-5.86V9.64a1.92,1.92,0,0,0-1.93-1.93h-.21a5.09,5.09,0,0,0-5,4.1.19.19,0,0,1,0,.08,5.5,5.5,0,0,0-.09.91v6.71c0,3.5.58,6.67,3.33,9.07s7.73,1.92,10.36-.18a16.34,16.34,0,0,0,1.51-1.49,8.53,8.53,0,0,1-2.57,5.8,9.27,9.27,0,0,1-5.65,2.55l-.39,0A8.92,8.92,0,0,1,39.2,32c-1.87-2.26-2.13-5.1-2.13-7.93V13.2h0v-.76a5,5,0,0,0-.42-2,5.08,5.08,0,0,0-3.17-2.89l-.25-.07a12.43,12.43,0,0,0-5.64-.22,9.67,9.67,0,0,0-2.29.66,9.24,9.24,0,0,0-3.49,2.71,5.07,5.07,0,0,0-3.28-3.15l-.24-.07a12.57,12.57,0,0,0-5.64-.22,9.67,9.67,0,0,0-2.29.66,9,9,0,0,0-3.13,2.3v-1A1.93,1.93,0,0,0,5.3,7.2H1.93A1.93,1.93,0,0,0,0,9.13V28.32a1.94,1.94,0,0,0,1.93,1.93H5.3a1.94,1.94,0,0,0,1.93-1.93v-11A4.18,4.18,0,0,1,8,15.14a4.26,4.26,0,0,1,2.57-1.67,1.07,1.07,0,0,1,.23,0,3.8,3.8,0,0,1,2.25.39A3.88,3.88,0,0,1,14.89,17c0,1.59,0,3.17,0,4.73v6.62a1.92,1.92,0,0,0,1.93,1.93h3.36a1.93,1.93,0,0,0,1.94-1.93s0-10.76,0-10.76a4.14,4.14,0,0,1,3.33-4.09l.22,0a3.59,3.59,0,0,1,4.12,3.61c.12,2.13.06,4.28,0,6.41-.09,2.94-.23,5.72.74,8.54a16.14,16.14,0,0,0,3.66,6A16.22,16.22,0,0,0,61.7,30.5a26.57,26.57,0,0,0,.47-5.75V12.13Z"/><path class="cls-2" d="M118.29,9.17a17.78,17.78,0,0,0,0,3.05.59.59,0,0,0,0,.11.61.61,0,0,0,0,.17,1.19,1.19,0,0,0,0,.14,1.51,1.51,0,0,0,.17.3,1.33,1.33,0,0,0,.14.17,1.08,1.08,0,0,0,.18.16l.17.11.24.1a1.19,1.19,0,0,0,.25,0h.13a.74.74,0,0,0,.15,0h6.85c-.41.64-.84,1.26-1.27,1.88l-2.3,3.36c-.87,1.26-1.74,2.51-2.6,3.77l-2.92,4.26a3.07,3.07,0,0,0-.27.46,3.73,3.73,0,0,0,0,2.53,1,1,0,0,0,.21.37,1,1,0,0,0,.2.21,1.75,1.75,0,0,0,.43.26l.17.05.17,0h.12c.15,0,11.91,0,15.73,0a1.27,1.27,0,0,0,.43-.07,1.76,1.76,0,0,0,.38-.2l.09-.07a1.36,1.36,0,0,0,.35-.45,1.56,1.56,0,0,0,.07-.17c0-.08,0-.15.05-.18s0-.06,0-.11V29.4a.13.13,0,0,0,0-.06v-3a1.19,1.19,0,0,0,0-.25,1,1,0,0,0-.08-.3,1.21,1.21,0,0,0-.22-.38,1.32,1.32,0,0,0-.21-.21,1.39,1.39,0,0,0-.51-.27,1.59,1.59,0,0,0-.45-.06h-8c4.28-6.26,7.38-10.82,7.68-11.27a5.53,5.53,0,0,0,.41-.69c0-.09.13-.28.24-.59A9,9,0,0,0,135,11a10.56,10.56,0,0,0,.21-1.83.92.92,0,0,0,0-.16,1.49,1.49,0,0,0-.53-1,1.46,1.46,0,0,0-.89-.31H121.08c-.36,0-.56,0-1,0A3.24,3.24,0,0,0,119,8a1.46,1.46,0,0,0-.21.15,1,1,0,0,0-.24.25,1.73,1.73,0,0,0-.21.4A2.12,2.12,0,0,0,118.29,9.17Z"/><path class="cls-2" d="M89.5,7.59a11.33,11.33,0,0,0-13.83,5.65,12.44,12.44,0,0,0,3.46,15.85c2.86,2.14,7.19,2.82,11,2.07h0c.82-.17,1.51-.36,2-.52A11.51,11.51,0,0,0,94.6,29.5a1.34,1.34,0,0,0,.2-.16,1.59,1.59,0,0,0,.25-.3,1.65,1.65,0,0,0,.09-.16,1.81,1.81,0,0,0,.12-.35s0-.14,0-.28a1.32,1.32,0,0,0,0-.36,1.58,1.58,0,0,0-.15-.38L95,27.39a21,21,0,0,0-1.78-2.52,1.57,1.57,0,0,0-.21-.19,2,2,0,0,0-.23-.14,1.67,1.67,0,0,0-.45-.14,1.32,1.32,0,0,0-.46,0c-.68.1-1.41.46-2.4.68l-.26.05c-.54.1-1.08.18-1.63.23a7.15,7.15,0,0,1-4.47-1.15A6.29,6.29,0,0,1,81,21.13H95.63c.87,0,1.8.13,1.81-1.2C97.47,15.58,95.4,9.55,89.5,7.59ZM81,17a5.24,5.24,0,0,1,2.18-3.93A4.89,4.89,0,0,1,86,12.35a4.77,4.77,0,0,1,2.93,1.05A4.86,4.86,0,0,1,90.51,17Z"/><path class="cls-2" d="M116,8.36c-.25-.4-.84-.58-1.91-.77-3-.54-5.19.69-6.91,3.2V9.3a1.93,1.93,0,0,0-1.93-1.93h-3.36A1.94,1.94,0,0,0,99.91,9.3V28.56a1.94,1.94,0,0,0,1.94,1.93h3.36a1.93,1.93,0,0,0,1.93-1.93v-.35c0-1.79,0-3.58,0-5.37V20.1c0-.2,0-.4,0-.6v-.84a5.21,5.21,0,0,1,.49-2.28,4.36,4.36,0,0,1,2.52-2.23,4.66,4.66,0,0,1,2.17-.11,2.73,2.73,0,0,0,2.17-.16,4,4,0,0,0,1-2.09l0-.06a12,12,0,0,0,.37-1.44C116.06,9.24,116.17,8.71,116,8.36Z"/><rect class="cls-2" x="64.48" width="7.23" height="30.49" rx="1.93"/><path class="cls-1" d="M139.67,7.71a2.9,2.9,0,1,0,2.9,2.9A2.9,2.9,0,0,0,139.67,7.71Zm2.37,2.9a2.37,2.37,0,1,1-2.37-2.37A2.38,2.38,0,0,1,142,10.61Z"/><path class="cls-1" d="M138.32,10.13h-.56V9.68h1.62v.45h-.55v1.4h-.51Z"/><path class="cls-1" d="M139.61,9.68h.54l.44.72.44-.72h.54v1.85h-.51V10.47l-.47.73h0l-.47-.72v1h-.5Z"/></g></g></svg>