<svg xmlns="http://www.w3.org/2000/svg" width="26" height="36.922" viewBox="0 0 26 36.922"><defs><style>.a{fill:#fff;}</style></defs><g transform="translate(-75.726)"><g transform="translate(75.726)"><g transform="translate(0)"><path class="a" d="M88.726,0a13.118,13.118,0,0,0-13,13.2V23.718a13,13,0,1,0,26,.04V13.2A13.118,13.118,0,0,0,88.726,0ZM99.281,23.759a10.556,10.556,0,1,1-21.11-.041V13.2a10.557,10.557,0,1,1,21.11,0Z" transform="translate(-75.726)"/></g></g><g transform="translate(87.503 10.107)"><g transform="translate(0)"><path class="a" d="M240.269,140.15a1.223,1.223,0,0,0-1.223,1.223v4.279a1.223,1.223,0,0,0,2.445,0v-4.279A1.223,1.223,0,0,0,240.269,140.15Z" transform="translate(-239.046 -140.15)"/></g></g></g></svg>