<svg width="40" height="40" viewBox="0 0 40 40" fill="none" xmlns="http://www.w3.org/2000/svg">
<path d="M39.9219 1.64062C39.9219 1.5625 39.9219 1.40625 39.9219 1.32812C39.9219 0.625 39.375 0.078125 38.6719 0.078125C38.5938 0.078125 38.4375 0.078125 38.3594 0.078125C35.3125 1.01562 29.6094 2.8125 23.6719 4.92188C23.5156 4.375 23.3594 3.82812 23.2031 3.4375C23.0469 2.96875 22.5781 2.57812 22.0312 2.57812C21.875 2.57812 21.5625 2.57812 21.4062 2.65625C18.125 4.45312 9.53125 9.14062 4.6875 13.8281C4.60938 13.9062 4.53125 13.9844 4.45312 14.0625C1.95312 16.4844 0 21.3281 0 24.8438C0 33.2031 6.79688 40 15.1562 40C18.6719 40 23.5156 38.0469 25.9375 35.5469C26.0156 35.4688 26.0938 35.3906 26.1719 35.3125C30.8594 30.4688 35.625 21.875 37.3438 18.5938C37.4219 18.4375 37.5 18.125 37.5 17.9688C37.5 17.4219 37.0312 16.9531 36.5625 16.7969C36.1719 16.6406 35.7031 16.4844 35.1562 16.3281C37.2656 10.3906 38.9844 4.6875 39.9219 1.64062ZM24.9219 25.0781C24.9219 30.5469 20.4688 35 14.9219 35C9.45312 35 4.92188 30.5469 4.92188 25.0781C4.92188 19.5312 9.45312 15.0781 14.9219 15.0781C20.4688 15.0781 24.9219 19.5312 24.9219 25.0781ZM14.9219 22.5781V22.5C14.9219 21.1719 13.8281 20.0781 12.5 20.0781H12.4219C11.0938 20.0781 9.92188 21.1719 9.92188 22.5C9.92188 23.9062 11.0938 25 12.4219 25C13.8281 25 14.9219 23.9062 14.9219 22.5781ZM17.4219 28.8281C17.4219 28.125 16.875 27.5781 16.1719 27.5781C15.5469 27.5781 14.9219 28.125 14.9219 28.75C14.9219 29.4531 15.5469 30 16.1719 30C16.875 30 17.4219 29.4531 17.4219 28.8281Z" fill="#001E60"/>
</svg>