<svg width="100" height="100" viewBox="0 0 100 100" fill="none" xmlns="http://www.w3.org/2000/svg">
<circle opacity="0.1" cx="50" cy="50" r="50" fill="#001E60"/>
<path d="M70.3975 32.1067C70.3611 31.7909 70.0702 31.6505 69.8521 31.6155C69.6339 31.5804 65.2708 31.5453 65.2708 31.5453C65.2708 31.5453 61.5986 28.1068 61.235 27.7559C60.8714 27.4051 60.1806 27.5103 59.8897 27.5805C59.8897 27.5805 59.1989 27.791 58.0354 28.1419C57.8536 27.5454 57.5627 26.8086 57.1628 26.0718C55.8539 23.6508 53.9632 22.3877 51.6362 22.3877C51.4908 22.3877 51.309 22.3877 51.1636 22.4227C51.0908 22.3526 51.0181 22.2824 50.9454 22.1771C49.9274 21.1245 48.6548 20.6333 47.1277 20.6684C44.1463 20.7386 41.2012 22.8087 38.7652 26.5279C37.0563 29.1243 35.7837 32.3874 35.4201 34.9136C32.0024 35.9311 29.6027 36.6328 29.5663 36.6679C27.8575 37.1942 27.7847 37.2293 27.5666 38.8082C27.3848 39.9661 22.8763 73.6844 22.8763 73.6844L60.726 80L77.1239 76.0703C77.1239 76.0703 70.4338 32.3874 70.3975 32.1067ZM56.1447 28.7033C55.2721 28.9489 54.2904 29.2646 53.1997 29.5804C53.1633 28.1419 52.9815 26.1068 52.2907 24.3525C54.5813 24.7736 55.6721 27.2296 56.1447 28.7033ZM51.2363 30.1769C49.2365 30.7734 47.0914 31.4049 44.9098 32.0716C45.5279 29.826 46.6914 27.5805 48.1094 26.1068C48.6548 25.5455 49.382 24.949 50.2546 24.5981C51.0908 26.2472 51.2363 28.598 51.2363 30.1769ZM47.1641 22.5982C47.8549 22.5982 48.4366 22.7385 48.9457 23.0543C48.1458 23.4403 47.3459 24.0367 46.6187 24.8086C44.728 26.7735 43.2737 29.7909 42.6919 32.7382C40.874 33.2645 39.1287 33.7908 37.4926 34.282C38.5834 29.6506 42.5828 22.7385 47.1641 22.5982Z" fill="#001E60"/>
<path d="M69.8522 31.6156C69.634 31.5805 65.2709 31.5454 65.2709 31.5454C65.2709 31.5454 61.5987 28.1069 61.2351 27.756C61.0897 27.6157 60.9079 27.5455 60.7261 27.5455V80.0001L77.124 76.0704C77.124 76.0704 70.4339 32.4226 70.3976 32.1068C70.3248 31.791 70.0703 31.6506 69.8522 31.6156Z" fill="#00133D"/>
<path d="M51.6364 39.7557L49.7458 46.6327C49.7458 46.6327 47.6369 45.6853 45.0918 45.8608C41.3832 46.0713 41.3468 48.3169 41.3832 48.9133C41.6013 52.001 49.9639 52.6676 50.4366 59.8604C50.8002 65.5444 47.3097 69.4039 42.2922 69.7197C36.2566 70.0706 32.9479 66.6672 32.9479 66.6672L34.2205 61.4393C34.2205 61.4393 37.5655 63.8602 40.2197 63.7199C41.9649 63.6146 42.583 62.2463 42.5103 61.2638C42.2558 57.264 35.4203 57.4745 34.984 50.9133C34.6204 45.3696 38.4018 39.7557 46.728 39.2294C50.0003 38.9487 51.6364 39.7557 51.6364 39.7557Z" fill="#E1E4EB"/>
</svg>