<?xml version="1.0" encoding="utf-8"?>
<!-- Generator: Adobe Illustrator 13.0.0, SVG Export Plug-In . SVG Version: 6.00 Build 14948)  -->
<!DOCTYPE svg PUBLIC "-//W3C//DTD SVG 1.1//EN" "http://www.w3.org/Graphics/SVG/1.1/DTD/svg11.dtd">
<svg version="1.1" id="Layer_1" xmlns="http://www.w3.org/2000/svg" xmlns:xlink="http://www.w3.org/1999/xlink" x="0px" y="0px"
	 width="91.823px" height="97.655px" viewBox="0 0 91.823 97.655" enable-background="new 0 0 91.823 97.655" xml:space="preserve">
<g id="logo" transform="translate(12379.018 -9294.653)">
	<g id="Group_113" transform="translate(-12379.018 9294.653)">
		<g id="Group_60" transform="translate(0 0)">
			<ellipse id="Ellipse_158" fill="#FFFFFF" cx="45.759" cy="48.422" rx="7.63" ry="8.188"/>
			<ellipse id="Ellipse_159" fill="#FFFFFF" cx="59.926" cy="33.214" rx="7.626" ry="8.188"/>
			<path id="Ellipse_160" fill="#FFFFFF" d="M60.291,55.441c4.213,0,7.626,3.665,7.626,8.186c0,4.526-3.413,8.19-7.626,8.19
				c-4.217,0-7.63-3.664-7.63-8.19C52.661,59.106,56.074,55.441,60.291,55.441z"/>
			<path id="Ellipse_161" fill="#FFFFFF" d="M31.589,55.826c4.212,0,7.629,3.67,7.629,8.191c0,4.521-3.417,8.19-7.629,8.19
				c-4.212,0-7.629-3.67-7.629-8.19C23.96,59.496,27.377,55.826,31.589,55.826z"/>
			<path id="Ellipse_162" fill="#FFFFFF" d="M31.226,25.026c4.212,0,7.629,3.668,7.629,8.19c0,4.521-3.417,8.186-7.629,8.186
				S23.6,37.738,23.6,33.216C23.6,28.694,27.013,25.026,31.226,25.026z"/>
			<ellipse id="Ellipse_163" fill="#FFFFFF" cx="45.506" cy="18.115" rx="4.905" ry="5.262"/>
			<path id="Ellipse_164" fill="#FFFFFF" d="M74.507,43.415c2.707,0,4.904,2.358,4.904,5.262c0,2.909-2.197,5.267-4.904,5.267
				c-2.709,0-4.905-2.357-4.905-5.267C69.602,45.772,71.798,43.415,74.507,43.415z"/>
			<path id="Ellipse_165" fill="#FFFFFF" d="M74.419,74.009c2.705,0,4.901,2.359,4.901,5.263c0,2.908-2.196,5.262-4.901,5.262
				c-2.71,0-4.904-2.354-4.904-5.262C69.515,76.368,71.709,74.009,74.419,74.009z"/>
			<path id="Ellipse_166" fill="#FFFFFF" d="M46.395,74.064c2.705,0,4.9,2.357,4.9,5.262c0,2.908-2.195,5.267-4.9,5.267
				c-2.712,0-4.905-2.358-4.905-5.267C41.489,76.422,43.683,74.064,46.395,74.064z"/>
			<path id="Ellipse_167" fill="#FFFFFF" d="M16.824,74.126c2.711,0,4.905,2.354,4.905,5.262c0,2.91-2.193,5.264-4.905,5.264
				c-2.705,0-4.901-2.354-4.901-5.264C11.922,76.479,14.119,74.126,16.824,74.126z"/>
			<ellipse id="Ellipse_168" fill="#FFFFFF" cx="17.175" cy="48.738" rx="4.905" ry="5.262"/>
			<ellipse id="Ellipse_169" fill="#FFFFFF" cx="17.452" cy="18.294" rx="4.905" ry="5.264"/>
			<path id="Ellipse_170" fill="#FFFFFF" d="M74.124,12.637c2.71,0,4.904,2.357,4.904,5.262c0,2.909-2.194,5.266-4.904,5.266
				c-2.706,0-4.903-2.357-4.903-5.266C69.221,14.995,71.418,12.637,74.124,12.637z"/>
			<path id="Ellipse_171" fill="#FFFFFF" d="M59.578,0.077c1.509,0,2.727,1.308,2.727,2.924s-1.218,2.924-2.727,2.924
				c-1.499,0-2.721-1.308-2.721-2.924S58.079,0.077,59.578,0.077z"/>
			<path id="Ellipse_172" fill="#FFFFFF" d="M31.683,0c1.507,0,2.725,1.311,2.725,2.924c0,1.616-1.218,2.927-2.725,2.927
				c-1.501,0-2.722-1.311-2.722-2.927C28.961,1.311,30.182,0,31.683,0z"/>
			<path id="Ellipse_173" fill="#FFFFFF" d="M2.725,30.395c1.504,0,2.725,1.311,2.725,2.927c0,1.614-1.221,2.924-2.725,2.924
				C1.217,36.247,0,34.936,0,33.322C0,31.706,1.217,30.395,2.725,30.395z"/>
			<path id="Ellipse_174" fill="#FFFFFF" d="M31.603,91.803c1.503,0,2.724,1.311,2.724,2.929c0,1.613-1.22,2.924-2.724,2.924
				c-1.505,0-2.725-1.311-2.725-2.924C28.878,93.113,30.098,91.803,31.603,91.803z"/>
			<path id="Ellipse_175" fill="#FFFFFF" d="M60.005,91.549c1.504,0,2.724,1.311,2.724,2.927c0,1.612-1.22,2.924-2.724,2.924
				c-1.508,0-2.725-1.312-2.725-2.924C57.28,92.859,58.497,91.549,60.005,91.549z"/>
			<ellipse id="Ellipse_176" fill="#FFFFFF" cx="88.915" cy="64.255" rx="2.724" ry="2.924"/>
			<path id="Ellipse_177" fill="#FFFFFF" d="M89.098,30.343c1.508,0,2.726,1.311,2.726,2.924c0,1.617-1.218,2.928-2.726,2.928
				c-1.5,0-2.724-1.311-2.724-2.928C86.374,31.654,87.598,30.343,89.098,30.343z"/>
			<path id="Ellipse_178" fill="#FFFFFF" d="M2.84,61.182c1.504,0,2.725,1.312,2.725,2.93c0,1.612-1.221,2.924-2.725,2.924
				c-1.507,0-2.724-1.312-2.724-2.924C0.116,62.493,1.333,61.182,2.84,61.182z"/>
		</g>
	</g>
</g>
</svg>
