<svg width="45" height="40" viewBox="0 0 45 40" fill="none" xmlns="http://www.w3.org/2000/svg">
<path d="M45 18.75C45 16.9531 43.9844 15.3125 42.5 14.4531V2.57812C42.5 1.875 41.9531 0 40 0C39.375 0 38.8281 0.234375 38.4375 0.625L31.7188 5.9375C28.4375 8.59375 24.2188 10 20 10H5C2.1875 10 0 12.2656 0 15V22.5C0 25.3125 2.1875 27.5 5 27.5H7.57812C7.5 28.3594 7.42188 29.2188 7.42188 30C7.42188 33.125 8.125 36.0938 9.45312 38.6719C9.84375 39.5312 10.7031 40 11.6406 40H17.4219C19.4531 40 20.7031 37.7344 19.4531 36.0938C18.2031 34.375 17.4219 32.3438 17.4219 30C17.4219 29.1406 17.5781 28.3594 17.7344 27.5H20C24.2188 27.5 28.4375 28.9844 31.7188 31.6406L38.4375 36.9531C38.75 37.2656 39.4531 37.5 39.9219 37.5C41.875 37.5 42.4219 35.7812 42.4219 35V23.125C43.9844 22.2656 45 20.625 45 18.75ZM37.5 29.8438L34.8438 27.7344C30.625 24.375 25.3906 22.5 20 22.5V15C25.3906 15 30.625 13.2031 34.8438 9.84375L37.5 7.73438V29.8438Z" fill="#001E60"/>
</svg>