<svg width="100" height="100" viewBox="0 0 100 100" fill="none" xmlns="http://www.w3.org/2000/svg">
<circle opacity="0.1" cx="50" cy="50" r="50" fill="#001E60"/>
<path d="M54.6665 30.8244C55.0815 31.0079 55.4455 31.2897 55.7269 31.6456C56.0084 32.0014 56.1988 32.4205 56.2817 32.8666C56.3647 33.3126 56.3376 33.7722 56.2028 34.2054C56.0681 34.6387 55.8298 35.0325 55.5085 35.3528C55.1872 35.6732 54.7926 35.9103 54.359 36.0438C53.9253 36.1772 53.4657 36.2029 53.0199 36.1186C52.5741 36.0344 52.1556 35.8427 51.8006 35.5602C51.4456 35.2777 51.1648 34.9128 50.9826 34.4973C50.8144 35.0327 50.7288 35.5906 50.7289 36.1518C50.6954 36.9049 50.8148 37.6569 51.0799 38.3625C51.345 39.0682 51.7503 39.7128 52.2713 40.2576C52.7924 40.8023 53.4183 41.2358 54.1115 41.532C54.8047 41.8282 55.5507 41.9809 56.3045 41.9809C57.0583 41.9809 57.8043 41.8282 58.4974 41.532C59.1906 41.2358 59.8166 40.8023 60.3376 40.2576C60.8587 39.7128 61.2639 39.0682 61.529 38.3625C61.7941 37.6569 61.9135 36.9049 61.88 36.1518C61.8876 35.5945 61.8057 35.0397 61.6374 34.5084C61.4286 33.8043 61.0813 33.1489 60.6158 32.5808C60.1504 32.0128 59.5761 31.5434 58.9268 31.2002C58.2775 30.8571 57.5662 30.6471 56.8346 30.5825C56.103 30.518 55.3659 30.6002 54.6666 30.8244H54.6665ZM42.3573 36.1297C41.7231 36.116 41.1122 35.8875 40.6248 35.4814C40.1373 35.0754 39.8021 34.5159 39.674 33.8946C39.5459 33.2732 39.6325 32.6268 39.9195 32.0611C40.2066 31.4953 40.6772 31.0438 41.2543 30.7803C40.7219 30.6169 40.1678 30.5351 39.6109 30.5377C38.1307 30.5377 36.7112 31.1257 35.6645 32.1723C34.6178 33.219 34.0298 34.6385 34.0298 36.1187C34.0298 37.5989 34.6178 39.0185 35.6645 40.0651C36.7112 41.1118 38.1307 41.6998 39.6109 41.6998C40.3416 41.71 41.067 41.5749 41.7451 41.3024C42.4231 41.0298 43.0402 40.6252 43.5605 40.1121C44.0808 39.5989 44.494 38.9875 44.7759 38.3133C45.0579 37.6392 45.2031 36.9157 45.203 36.1849C45.2012 35.6247 45.1195 35.0676 44.9604 34.5304C44.7289 35.0212 44.3595 35.4339 43.8971 35.718C43.4348 36.002 42.8997 36.1451 42.3573 36.1298L42.3573 36.1297Z" fill="#001E60"/>
<path d="M57.6996 23.3021C54.73 21.5759 51.3564 20.6667 47.9217 20.6667C44.4869 20.6667 41.1133 21.5759 38.1438 23.3021C35.188 21.6024 31.8362 20.7121 28.4265 20.7211V40.2548C28.4207 45.3809 29.4247 50.4579 31.381 55.196C33.3373 59.9341 36.2077 64.2405 39.8282 67.8692C43.4488 71.498 47.7487 74.3781 52.4823 76.3451C57.216 78.3121 62.2907 79.3275 67.4168 79.3333V20.7211C64.0071 20.7121 60.6554 21.6024 57.6996 23.3021ZM56.2767 44.5454C54.6939 44.5367 53.1456 44.0818 51.8097 43.2329L47.9051 47.1154L44.0116 43.1998C42.6942 44.042 41.1633 44.4898 39.5997 44.4903C37.9722 44.4907 36.3798 44.0174 35.0168 43.1281C33.6538 42.2388 32.5791 40.972 31.9239 39.4822C31.2688 37.9924 31.0615 36.3442 31.3273 34.7386C31.5931 33.1329 32.3205 31.6394 33.4208 30.4403C34.5212 29.2411 35.9467 28.3882 37.5236 27.9856C39.1005 27.583 40.7605 27.6481 42.301 28.173C43.8415 28.6979 45.1959 29.6599 46.1989 30.9416C47.2018 32.2233 47.81 33.7692 47.9492 35.3907C48.1032 33.7776 48.7225 32.244 49.7321 30.9764C50.7416 29.7088 52.0977 28.7619 53.6354 28.2509C55.1732 27.7399 56.8263 27.6868 58.3937 28.098C59.9611 28.5093 61.3752 29.3671 62.4641 30.5673C63.5529 31.7674 64.2694 33.2581 64.5266 34.858C64.7838 36.4579 64.5705 38.0981 63.9126 39.579C63.2548 41.0599 62.1807 42.3177 60.8212 43.1994C59.4616 44.0812 57.8751 44.5488 56.2547 44.5454H56.2767Z" fill="#001E60"/>
</svg>