<svg width="100" height="100" viewBox="0 0 100 100" fill="none" xmlns="http://www.w3.org/2000/svg">
<circle opacity="0.1" cx="50" cy="50" r="50" fill="#001E60"/>
<path d="M59.6424 33.1861C58.311 31.8595 56.1522 31.8595 54.8215 33.1861L33.1255 54.8049C30.4614 57.4573 26.1451 57.4573 23.4831 54.8049C20.8183 52.1517 20.8183 47.8502 23.4831 45.1957L44.7615 23.9937C42.0988 21.3399 37.781 21.3399 35.1183 23.9937L18.6602 40.3921C13.3354 45.6991 13.3354 54.3014 18.6602 59.6091C23.9863 64.9161 32.6196 64.9161 37.9457 59.6091L59.6424 37.9903C60.973 36.6638 60.973 34.5127 59.6424 33.1861ZM66.8744 25.9808C61.5482 20.6731 52.9149 20.6731 47.5888 25.9808L25.8929 47.5981C24.5622 48.924 24.5622 51.0765 25.8929 52.4024C27.2242 53.729 29.3824 53.729 30.7137 52.4024L52.4111 30.785C55.0738 28.1312 59.3901 28.1312 62.0521 30.785C63.3849 32.1109 65.543 32.1109 66.8744 30.785C68.2057 29.457 68.2057 27.3073 66.8744 25.9808ZM74.1071 47.5981C72.7757 46.273 70.6161 46.273 69.2848 47.5981L47.5888 69.2162C44.9261 71.8694 40.6084 71.8694 37.9457 69.2162C36.6151 67.8903 34.4569 67.8903 33.1255 69.2162C31.7921 70.5435 31.7921 72.6946 33.1255 74.0198C38.4495 79.3268 47.085 79.3268 52.4111 74.0198L74.1071 52.4024C75.4377 51.0765 75.4377 48.924 74.1071 47.5981ZM81.3398 40.3928C76.0136 35.0865 67.3789 35.0865 62.0542 40.3928L40.3568 62.0116C39.0255 63.3368 39.0255 65.4893 40.3568 66.8151C41.6889 68.1424 43.8477 68.1424 45.1784 66.8151L66.8744 45.1971C69.5364 42.5432 73.8548 42.5432 76.5168 45.1971C79.1795 47.8502 79.1795 52.1517 76.5168 54.8049L55.2385 76.0075C57.9012 78.6599 62.2167 78.6599 64.8816 76.0075L81.3398 59.6091C86.6645 54.3014 86.6645 45.6991 81.3398 40.3928Z" fill="#001E60"/>
</svg>