<svg width="100" height="100" viewBox="0 0 100 100" fill="none" xmlns="http://www.w3.org/2000/svg">
<circle opacity="0.1" cx="50" cy="50" r="50" fill="#001E60"/>
<path d="M43.1073 22.7029C40.1321 22.7029 37.7012 25.1339 37.7012 28.109C37.7012 31.0842 40.1321 33.5151 43.1073 33.5151H48.5134V28.109C48.5134 25.1339 46.1187 22.7029 43.1073 22.7029ZM43.1073 37.1071H28.7395C25.7643 37.1071 23.3334 39.538 23.3334 42.5131C23.3334 45.4883 25.7643 47.9192 28.7395 47.9192H43.1436C46.1187 47.9192 48.5496 45.4883 48.5496 42.5131C48.5134 39.538 46.1187 37.1071 43.1073 37.1071Z" fill="#001E60"/>
<path d="M77.3216 42.5131C77.3216 39.538 74.8906 37.1071 71.9155 37.1071C68.9403 37.1071 66.5094 39.538 66.5094 42.5131V47.9192H71.9155C74.8906 47.9555 77.3216 45.5246 77.3216 42.5131ZM62.9174 42.5131V28.0727C62.9174 25.0976 60.4865 22.6667 57.5114 22.6667C54.5362 22.6667 52.1053 25.0976 52.1053 28.0727V42.5131C52.1053 45.4883 54.5362 47.9192 57.5114 47.9192C60.5228 47.9555 62.9174 45.5246 62.9174 42.5131Z" fill="#001E60"/>
<path d="M57.5114 76.8C60.4866 76.8 62.9175 74.3691 62.9175 71.3939C62.9175 68.4187 60.4866 65.9878 57.5114 65.9878H52.1053V71.3939C52.1053 74.3691 54.5363 76.8 57.5114 76.8ZM57.5114 62.3596H71.9155C74.8907 62.3596 77.3216 59.9287 77.3216 56.9535C77.3216 53.9783 74.8907 51.5474 71.9155 51.5474H57.5114C54.5363 51.5474 52.1053 53.9783 52.1053 56.9535C52.1053 59.9287 54.5363 62.3596 57.5114 62.3596Z" fill="#001E60"/>
<path d="M23.3334 56.9535C23.3334 59.9287 25.7643 62.3596 28.7395 62.3596C31.7146 62.3596 34.1455 59.9287 34.1455 56.9535V51.5474H28.7395C25.728 51.5474 23.3334 53.9783 23.3334 56.9535ZM37.7375 56.9535V71.3939C37.7375 74.3691 40.1684 76.8 43.1436 76.8C46.1187 76.8 48.5496 74.3691 48.5496 71.3939V56.9535C48.5496 53.9783 46.1187 51.5474 43.1436 51.5474C40.1321 51.5474 37.7375 53.9783 37.7375 56.9535Z" fill="#001E60"/>
</svg>