<svg width="95" height="30" viewBox="0 0 95 30" fill="none" xmlns="http://www.w3.org/2000/svg">
<path d="M60.9178 7.29811C50.9777 4.33338 38.9031 4.16122 28.8215 6.38229C23.1042 7.64246 17.6584 9.96491 12.4901 12.6357C9.81342 14.0186 7.22675 15.5114 4.70498 17.1485C3.97257 17.6242 1.34765 20.1812 0.531143 19.7821C-2.21542 18.4395 8.84449 11.2716 10.0919 10.584C15.3668 7.67663 20.8663 4.98461 26.7307 3.44207C36.5677 0.855764 47.9818 -0.0746525 57.9992 2.09819C63.8324 3.36421 69.6913 4.57213 75.185 7.09407C77.4955 8.15472 79.7122 9.42601 81.7821 10.894C83.2468 11.9321 84.7199 13.0299 86.0408 14.244C87.0193 15.1432 87.8101 16.7887 88.8806 17.4796C89.3292 15.291 87.7757 12.6285 88.0678 10.3277C88.4157 7.59161 90.221 9.06349 90.9235 10.7654C92.0424 13.4726 92.6919 16.3386 93.4737 19.1493C94.1403 21.5437 95.5793 24.4498 92.8466 25.8435C90.4472 27.0667 87.4862 27.395 84.9087 28.0859C83.1852 28.5476 79.6825 30.4291 78.0177 29.1072C72.8146 24.9773 87.3568 23.9922 88.3168 23.4969C87.6871 22.6621 86.5878 22.0778 85.8109 21.3485C84.6886 20.2928 83.7311 19.0914 82.6027 18.0403C80.4754 16.0585 78.0587 14.2456 75.5769 12.7155C71.2734 10.0629 65.9196 8.07369 60.9178 7.29811C57.3216 6.22558 61.6409 7.41006 60.9178 7.29811Z" fill="#001E60"/>
</svg>