<svg width="40" height="36" viewBox="0 0 40 36" fill="none" xmlns="http://www.w3.org/2000/svg">
<path d="M38.125 17.6094L30.625 14.7188V6.28125C30.625 5.10938 29.8438 4.09375 28.75 3.625L20.9375 0.734375C20.3125 0.5 19.6094 0.5 18.9844 0.734375L11.1719 3.625C10.0781 4.09375 9.29688 5.10938 9.29688 6.28125V14.7188L1.79688 17.6094C0.703125 18 0 19.0156 0 20.1875V28.7812C0 29.875 0.546875 30.8906 1.48438 31.3594L9.29688 35.2656C10.1562 35.6562 11.0938 35.6562 11.875 35.2656L20 31.2031L28.0469 35.2656C28.9062 35.6562 29.8438 35.6562 30.625 35.2656L38.4375 31.3594C39.375 30.8906 40 29.875 40 28.7812V20.1875C40 19.0156 39.2188 18 38.125 17.6094ZM27.9688 14.7969L21.3281 17.2969V11.9844L27.9688 9.09375V14.7969ZM12.0312 6.20312L20 3.15625L27.9688 6.20312L20 9.48438L12.0312 6.20312ZM18.5938 28.9375L11.9531 32.2188V26.0469L18.5938 23V28.9375ZM18.5938 20.1875L10.625 23.3906L2.65625 20.1875V20.1094L10.625 17.1406L18.5938 20.1094V20.1875ZM37.3438 28.9375L30.7031 32.2188V26.0469L37.3438 23V28.9375ZM37.3438 20.1875L29.375 23.3906L21.4062 20.1875V20.1094L29.375 17.1406L37.3438 20.1094V20.1875Z" fill="#001E60"/>
</svg>