<svg width="100" height="100" viewBox="0 0 100 100" fill="none" xmlns="http://www.w3.org/2000/svg">
<circle opacity="0.1" cx="50" cy="50" r="50" fill="#001E60"/>
<path d="M65.2619 40.3134L59.8299 58.8744C59.8299 57.4529 56.0836 26.6667 56.0836 26.6667C47.4673 26.6667 42.8969 33.287 40.4994 40.3134L33.8685 58.9151C33.8685 57.5748 32.932 40.4758 32.932 40.4758C32.6121 36.7743 31.0513 33.3284 28.5451 30.7909C26.0388 28.2534 22.7613 26.8005 19.3332 26.7073L26.3761 73.3334C35.367 73.3334 40.2371 66.7131 42.7471 59.6867L48.3664 43.8469C48.3664 44.4967 52.1127 73.3334 52.1127 73.3334C55.7892 73.3283 59.3686 72.054 62.3323 69.6953C65.296 67.3366 67.4899 64.016 68.596 60.2147L81.3332 26.6667C72.3423 26.6667 67.622 33.287 65.2244 40.3134H65.2619Z" fill="#001E60"/>
</svg>