<svg width="100" height="100" viewBox="0 0 100 100" fill="none" xmlns="http://www.w3.org/2000/svg">
<circle opacity="0.1" cx="50" cy="50" r="50" fill="#001E60"/>
<path d="M18.6667 38.0284C18.6667 38.0284 21.1507 37.7149 22.8068 39.1825C23.829 40.0878 24.1268 41.5309 24.1268 41.5309L27.5087 54.7034L30.3216 43.9224C30.5948 42.7765 31.089 41.3592 31.8698 40.4014C32.8662 39.1814 34.889 39.1044 35.1047 39.1044C35.3205 39.1044 37.3422 39.1816 38.3378 40.4014C39.1185 41.3592 39.6127 42.7756 39.8869 43.9224L42.6997 54.7034L46.0807 41.5308C46.0807 41.5308 46.3797 40.0879 47.4018 39.1825C49.0579 37.7148 51.541 38.0283 51.541 38.0283L45.0648 62.6455C45.0648 62.6455 42.929 62.8008 41.8595 62.2529C40.4552 61.5335 39.7885 60.9785 38.9379 57.6282C38.508 55.9146 38.0833 54.1996 37.664 52.4833L37.5048 51.8368C37.1029 50.1946 36.6988 48.553 36.2924 46.912L36.1383 46.2953C35.9966 45.7363 35.899 45.3601 35.8642 45.2471C35.7686 44.9377 35.6545 44.2008 35.1038 44.2008C34.5655 44.2008 34.4412 44.9387 34.3436 45.2471C34.3077 45.3601 34.2101 45.7352 34.0693 46.2952L33.9151 46.912C33.5871 48.2309 33.2619 49.5505 32.9393 50.8707L32.7811 51.5142C32.2836 53.5539 31.7802 55.5922 31.2709 57.6291C30.4202 60.9785 29.7526 61.5346 28.3481 62.2529C27.2787 62.8008 25.1429 62.6455 25.1429 62.6455L18.6667 38.0284ZM57.7029 42.1115V43.0005H57.705V57.8606C57.6936 60.91 57.3988 61.5872 56.1168 62.2892C55.1202 62.8348 53.5956 62.6284 53.5956 62.6284V45.9818C53.5956 45.1463 53.8545 44.5985 54.809 44.1073C55.3791 43.8134 55.9101 43.5882 56.4629 43.2553C57.2181 42.8031 57.6012 42.2656 57.6854 42.1381L57.7029 42.1114V42.1115ZM59.7596 38.1105C59.7596 38.1105 63.1056 37.5175 64.7627 39.0869C65.6945 39.9697 66.7248 41.4743 66.9581 41.8217L67.0022 41.8875L67.0073 41.8957L69.925 46.2698C70.0657 46.4969 70.2505 46.7446 70.5465 46.7446C70.8413 46.7446 71.0273 46.4979 71.169 46.2698L74.0857 41.8957L74.0907 41.8875L74.1349 41.8217C74.3681 41.4743 75.3985 39.9697 76.3313 39.0859C77.9873 37.5175 81.3334 38.1096 81.3334 38.1096L73.4055 50.3766L81.3118 62.6035C81.3118 62.6035 77.8888 63.0618 76.2317 61.4926C75.1715 60.4895 74.0856 58.8563 74.0856 58.8563L71.168 54.4833C71.0273 54.2552 70.8412 54.0075 70.5465 54.0075C70.2507 54.0075 70.0657 54.2542 69.9239 54.4833L67.0073 58.8563C67.0073 58.8563 65.981 60.4895 64.9219 61.4926C63.2648 63.0618 59.7801 62.6035 59.7801 62.6035L67.6865 50.3766L59.7596 38.1105ZM57.6947 38.0006H57.705C57.705 39.6347 57.5507 40.606 56.5646 41.3603C56.1068 41.7123 55.6019 41.9983 55.0648 42.2101C54.52 42.4227 54.0213 42.7382 53.5956 43.1393C53.5956 40.163 54.0302 39.0848 55.1983 38.4466C55.9246 38.0499 57.1173 38.0046 57.5457 38.0006H57.6947Z" fill="#001E60"/>
</svg>