<svg width="100" height="100" viewBox="0 0 100 100" fill="none" xmlns="http://www.w3.org/2000/svg">
<circle opacity="0.1" cx="50" cy="50" r="50" fill="#001E60"/>
<path d="M14.5598 37.0366C15.015 36.4226 15.6978 36.0994 16.6083 36.0347C18.2666 35.9055 19.2096 36.6811 19.4372 38.3616C20.4453 45.1159 21.5508 50.8361 22.7214 55.5222L29.8425 42.0458C30.4929 40.8177 31.3058 40.1714 32.2813 40.1067C33.712 40.0098 34.5899 40.9147 34.9476 42.8214C35.7605 47.1196 36.8011 50.7715 38.0367 53.874C38.8821 45.6653 40.3129 39.7513 42.3289 36.0994C42.8166 35.1945 43.532 34.742 44.475 34.6774C45.2229 34.6128 45.9057 34.839 46.5235 35.3238C47.1413 35.8085 47.4665 36.4226 47.5315 37.1659C47.564 37.7476 47.4665 38.2323 47.2064 38.7171C45.9382 41.0439 44.8977 44.9544 44.0523 50.3837C43.2393 55.6514 42.9467 59.7558 43.1418 62.6966C43.2068 63.5046 43.0768 64.2156 42.7516 64.8296C42.3614 65.5406 41.7761 65.9284 41.0282 65.993C40.1828 66.0577 39.3048 65.6698 38.4594 64.7973C35.4354 61.7271 33.0292 57.138 31.2733 51.03C29.1597 55.1667 27.5989 58.2691 26.5909 60.3375C24.6724 63.9893 23.0466 65.8637 21.6809 65.9607C20.8029 66.0253 20.0551 65.282 19.4047 63.7308C17.7464 59.4972 15.958 51.3209 14.0395 39.2019C13.9094 38.3616 14.1045 37.6183 14.5598 37.0366ZM84.4378 42.1104C83.2672 40.0744 81.5438 38.8464 79.2352 38.3616C78.6173 38.2323 78.032 38.1677 77.4793 38.1677C74.3577 38.1677 71.8214 39.7836 69.8379 43.0153C68.147 45.7623 67.3016 48.8001 67.3016 52.1288C67.3016 54.6173 67.8218 56.7502 68.8624 58.5277C70.033 60.5637 71.7563 61.7918 74.065 62.2765C74.6828 62.4058 75.2681 62.4704 75.8209 62.4704C78.975 62.4704 81.5113 60.8545 83.4623 57.6228C85.1532 54.8435 85.9986 51.8057 85.9986 48.477C86.0311 45.9562 85.4783 43.8556 84.4378 42.1104ZM80.3407 51.0624C79.8855 53.1953 79.0726 54.7789 77.8695 55.8453C76.9265 56.6856 76.0485 57.0411 75.2356 56.8795C74.4552 56.7179 73.8049 56.0392 73.3171 54.7789C72.9269 53.777 72.7318 52.7752 72.7318 51.838C72.7318 51.03 72.7969 50.2221 72.9595 49.4788C73.2521 48.1538 73.8049 46.8611 74.6828 45.633C75.7559 44.0495 76.894 43.4031 78.0646 43.6293C78.845 43.7909 79.4953 44.4696 79.983 45.73C80.3732 46.7318 80.5683 47.7337 80.5683 48.6709C80.5683 49.5111 80.5033 50.3191 80.3407 51.0624ZM64.0824 42.1104C62.9119 40.0744 61.156 38.8464 58.8798 38.3616C58.262 38.2323 57.6767 38.1677 57.1239 38.1677C54.0023 38.1677 51.466 39.7836 49.4825 43.0153C47.7917 45.7623 46.9462 48.8001 46.9462 52.1288C46.9462 54.6173 47.4665 56.7502 48.507 58.5277C49.6776 60.5637 51.401 61.7918 53.7097 62.2765C54.3275 62.4058 54.9128 62.4704 55.4656 62.4704C58.6197 62.4704 61.156 60.8545 63.1069 57.6228C64.7978 54.8435 65.6432 51.8057 65.6432 48.477C65.6432 45.9562 65.123 43.8556 64.0824 42.1104ZM59.9528 51.0624C59.4976 53.1953 58.6847 54.7789 57.4816 55.8453C56.5386 56.6856 55.6607 57.0411 54.8477 56.8795C54.0674 56.7179 53.417 56.0392 52.9293 54.7789C52.5391 53.777 52.344 52.7752 52.344 51.838C52.344 51.03 52.409 50.2221 52.5716 49.4788C52.8642 48.1538 53.417 46.8611 54.295 45.633C55.368 44.0495 56.5061 43.4031 57.6767 43.6293C58.4571 43.7909 59.1074 44.4696 59.5952 45.73C59.9854 46.7318 60.1805 47.7337 60.1805 48.6709C60.213 49.5111 60.1154 50.3191 59.9528 51.0624Z" fill="#001E60"/>
</svg>