<svg width="100" height="100" viewBox="0 0 100 100" fill="none" xmlns="http://www.w3.org/2000/svg">
<circle opacity="0.1" cx="50" cy="50" r="50" fill="#001E60"/>
<path d="M49.999 12.6666C29.4145 12.6666 12.6666 29.4138 12.6666 49.999C12.6666 70.5867 29.4145 87.3333 49.999 87.3333C70.583 87.3333 87.3333 70.5867 87.3333 49.999C87.3327 29.4138 70.583 12.6666 49.999 12.6666ZM49.999 85.6221C30.3584 85.6221 14.3784 69.6415 14.3784 49.999C14.3784 30.3578 30.3578 14.3785 49.999 14.3785C69.6391 14.3785 85.6179 30.3578 85.6179 49.999C85.6179 69.6415 69.6391 85.6221 49.999 85.6221Z" fill="#001E60"/>
<path d="M17.9734 49.9991C17.9734 62.676 25.3404 73.6314 36.023 78.8229L20.7462 36.965C18.9692 40.9481 17.9734 45.356 17.9734 49.9991Z" fill="#001E60"/>
<path d="M71.619 48.3829C71.619 44.4247 70.1973 41.6836 68.9779 39.5501C67.3545 36.9119 65.8328 34.6778 65.8328 32.0397C65.8328 29.0957 68.0656 26.3551 71.2107 26.3551C71.3527 26.3551 71.4874 26.3728 71.6257 26.3807C65.9279 21.1605 58.3367 17.9733 49.9991 17.9733C38.8107 17.9733 28.9672 23.714 23.2408 32.409C23.9922 32.4316 24.7003 32.4474 25.3017 32.4474C28.6516 32.4474 33.8368 32.0409 33.8368 32.0409C35.5632 31.9392 35.7668 34.4749 34.0422 34.6791C34.0422 34.6791 32.3073 34.8832 30.3767 34.9844L42.0392 69.675L49.0478 48.6547L44.0581 34.9832C42.3336 34.882 40.6998 34.6778 40.6998 34.6778C38.974 34.5767 39.1763 31.9379 40.9021 32.0397C40.9021 32.0397 46.191 32.4462 49.3379 32.4462C52.6871 32.4462 57.873 32.0397 57.873 32.0397C59.6006 31.9379 59.8035 34.4737 58.0784 34.6778C58.0784 34.6778 56.3398 34.882 54.4129 34.9832L65.9864 69.4111L69.1808 58.7361C70.5654 54.3063 71.619 51.1246 71.619 48.3829Z" fill="#001E60"/>
<path d="M50.5608 52.8006L40.952 80.7231C43.821 81.5665 46.8551 82.0279 49.999 82.0279C53.7284 82.0279 57.3049 81.3831 60.634 80.2124C60.5481 80.0753 60.4701 79.9297 60.4061 79.7712L50.5608 52.8006Z" fill="#001E60"/>
<path d="M78.1004 34.6333C78.2381 35.6535 78.3161 36.7486 78.3161 37.9266C78.3161 41.1766 77.7091 44.83 75.881 49.3981L66.0984 77.6826C75.6196 72.1303 82.0236 61.8148 82.0236 49.9996C82.0242 44.4314 80.6019 39.1954 78.1004 34.6333Z" fill="#001E60"/>
</svg>